<svg xmlns="http://www.w3.org/2000/svg" viewBox="0 0 762.34 198.18"><title>Asset 46</title><g id="Layer_2" data-name="Layer 2"><g id="Layer_1-2" data-name="Layer 1"><path d="M4.82,176.46c11.4-21.5,22.82-43,34.93-64.11,11-19.18,22-39.11,36.44-56a89.59,89.59,0,0,1,21-18.56A58.23,58.23,0,0,1,108.9,32.3,50.51,50.51,0,0,1,116,30.46a21.74,21.74,0,0,1,2.67-.39q3.2,1.11,1.53-1.31c-.56-2-.74-1.88-.53.28-.85,5.26-.45,10.88-1.17,16.22-.75,5.56-1.82,11.08-3.1,16.54-2.45,10.5-5.69,20.8-9,31.05-7.51,23.15-15.56,46.4-16.67,70.93-.09,2,1,4.17,1.95,5.89.18.32,2.67,3.7,2.72,2.57,1.08-24,8.78-46.7,16.13-69.3,7-21.65,15.08-45.16,13.85-68.27a19.82,19.82,0,0,0-4.27-11.39C117.3,20,113.2,21,109.51,21.89c-9.73,2.24-18.48,7.34-26,13.76C66.56,50,55.05,70.14,43.81,89,28.38,114.82,14.26,141.42.15,168c-1.1,2.07,4.23,9.28,4.67,8.46Z"/><path d="M26.27,109.7A325.4,325.4,0,0,0,178.05,69.79l-7.65-4.1a661.83,661.83,0,0,0-50.31,102.76,3.57,3.57,0,0,0,2.67,5c22.45,4.84,51.53-2.2,63.3-23.7,4.94-9,4.81-20-2.78-27.45-6.85-6.74-17.47-8.68-25.59-3.1-5.48,3.77,1.67,8.46,6.12,5.79l39.44-23.61c9.41-5.64,19.45-11.55,25.5-21,5.15-8,7.17-21.26-4.39-24.37C212,52.62,198,54.37,186,58.06c-4.58,1.41-3.33,7.42,1.28,7.43l96.3.16-3.28-6.07a270.1,270.1,0,0,0-70.53,114.34c-.58,1.87,1.46,3.54,3,4,24.38,6.47,49.9-6.13,64.05-26.09,16.75-23.61,16.62-54.8,11-82-1.06-5.07-10.91-3.36-9.86,1.7,5,24.25,5.81,51.37-7.3,73.37-10.78,18.09-32.77,31.2-54,25.56l3,4a261.65,261.65,0,0,1,68.57-110.5c2.69-2.58-.26-6.06-3.28-6.06l-96.3-.16L189.85,65a63.14,63.14,0,0,1,15.6-2.75c4.24-.18,12.22-.81,15.91,1.53,3.48,2.21,1.11,8.76-.43,11.76a32.34,32.34,0,0,1-8.43,9.8c-7.29,6-15.87,10.47-23.94,15.3l-30.87,18.48,6.12,5.79c5.21-3.58,11.81,1.49,14.3,6.22,3.79,7.21,0,15.74-5,21.33-11.3,12.72-30.4,16.9-46.57,13.41l2.68,5A661.38,661.38,0,0,1,179.58,68.11c2.88-4.78-5-5.54-7.65-4.11A310.35,310.35,0,0,1,27.61,101.82c-5.73.08-7.9,8-1.34,7.88Z"/><path d="M302.87,68.38a60.79,60.79,0,0,1,18.79,1.05l-5.45-3.64C303.52,90.5,293,116.61,285.91,143.5c-1.4,5.33-2.48,10.95.94,15.8,2.85,4,7.58,6.6,12.17,8.16a34,34,0,0,0,30.69-4.58c9.92-7,16.52-18.06,22.3-28.47a204.66,204.66,0,0,0,24.15-73.74c1.3-10.26-.3-26.13,12.88-28.6,15.2-2.86,30.6-4.4,45.78-7.53q24.12-5,47.71-12c3.17-.94-5.19-5.18-7.6-4.46a567.15,567.15,0,0,1-77.17,17.29c-8.8,1.33-22,.3-27,9.26-2.16,3.84-2.61,8.43-3,12.74-.59,6.33-1.26,12.63-2.33,18.9a204.81,204.81,0,0,1-23.72,66.51c-5.82,10.26-12.46,21.16-22.77,27.46a28.23,28.23,0,0,1-14.74,4.48c-9.52-.12-11.05-8.73-9.23-16.26C301.57,121,312.8,94.08,325.68,69c.89-1.73-4.77-3.5-5.45-3.65A75.46,75.46,0,0,0,297,63.74c-5,.46,3.54,4.85,5.9,4.64Z"/><path d="M435.56,26c-1.18,49.11-20.7,95-39.84,139.44-.61,1.41,3.53,0,3.82-.07,1.56-.58,4.48-1.68,5.21-3.39C424,117.2,443.44,71.17,444.63,21.74c0-.49-9,1.41-9.07,4.21Z"/><path d="M541.22,169.24c-1.24-33.53-2.47-67.52,4.23-100.6,5.27-26,15.73-57.8,43.76-66.78L579.53.2a204.7,204.7,0,0,1,8.07,55.05c0,.78,9.31,2.43,9.88,1.55A216.84,216.84,0,0,1,631.78,16c1.71-1.58,3.43-3.15,5.2-4.67.71-.62,6-3.75,6.07-4-.55,1.42-3.23-.82-3.58,1-.09.47.81,1.79,1,2.37a40.45,40.45,0,0,1,1.29,6.63,118.87,118.87,0,0,1,1,24.58c-2,33.81-15.52,65.54-23.32,98.18-4.43,18.55-7,37.56-4.69,56.6.19,1.56,9.86,1.42,9.88,1.55-4.59-37.75,9.88-73.91,19.65-109.67,4.86-17.79,8.83-36.08,8.59-54.61a114.64,114.64,0,0,0-1-13.48c-.5-3.77-.7-9.27-3.65-12.09C644.87,5.12,636.15,4.27,632,6.12c-4.5,2-8.5,6.74-12,10.09-4,3.79-7.83,7.72-11.51,11.8A217.11,217.11,0,0,0,587.6,55.25l9.88,1.55a204.69,204.69,0,0,0-8.07-55c-.38-1.3-8.51-2-9.68-1.66C552.08,9,541.4,39.53,536,65.27c-7.12,33.64-5.88,68.28-4.61,102.41,0,1.33,9.89,1.69,9.88,1.56Z"/><path d="M719.48,32c-7.27-.1-14.64-.57-21.9-.31-6.45.24-7.59,6.54-9.6,11.67-5.13,13-10.21,26.12-15,39.29-9.79,26.87-18.29,54.21-23.85,82.29-.22,1.12,7.56,5.3,8.66,5a321.66,321.66,0,0,0,89.46-39.59c-.69.44-6.85-6.15-8.66-5a321.66,321.66,0,0,1-89.46,39.59l8.66,5c5.43-27.48,13.69-54.25,23.22-80.56,4.57-12.62,9.41-25.13,14.31-37.62,1.94-4.95,3.48-14.31,9.84-15,7.28-.81,15.23.2,22.55.3.65,0-2.46-2.12-2.71-2.28-1.38-.86-3.77-2.75-5.5-2.78Z"/><path d="M699.52,92.28c20.9,1.29,42.84,1.21,62.21-7.68,2-.92-1.61-1.52-2-1.6a73.39,73.39,0,0,0-11.92-1.27c-5.12-.27-10.28-.44-15.41-.25-2.82.11-6.63-.26-9.22.93A80.23,80.23,0,0,1,710,87.19a54.41,54.41,0,0,1-6.59,1.29c-7,.9,7.86.32,6.83.25-5.1-.31-10.29-.41-15.41-.25-1.7.06-7.42-.22-9.22.93-1.64,1,1,1.39,2,1.6a79.55,79.55,0,0,0,11.92,1.27Z"/></g></g></svg>