<svg xmlns="http://www.w3.org/2000/svg" viewBox="0 0 659.18 347.32"><title>Asset 56</title><g id="Layer_2" data-name="Layer 2"><g id="Layer_1-2" data-name="Layer 1"><path d="M0,32q98.84-7.32,197.77-13.23,98.28-5.86,196.64-10.33Q493.08,3.93,591.82.85c6.39-.2,13.4-.48,19.06,3,5.44,3.37,8.31,9.45,10.75,15.11a346.37,346.37,0,0,1,14.91,41.92c8.1,28.09,13,57,15.88,86.08,6,59.37,4.17,119.14,5.32,178.71q.21,10.94.57,21.88c0-.15.88-.33.87-.5-2-59.8.2-119.73-4.08-179.45-2.1-29.21-5.77-58.37-12.42-86.92a383.17,383.17,0,0,0-12.24-42c-2.43-6.83-5.06-13.59-7.94-20.24-2.45-5.66-5.31-11.74-10.76-15.11C605.9-.25,598.62.17,592,.37l-24.93.8Q542.83,2,518.56,2.86q-49.51,1.82-99,4-98.68,4.32-197.3,10T25.09,29.71Q13,30.58.87,31.48C.56,31.5.3,32,0,32Z" transform="translate(0 -0.24)"/></g></g></svg>