<svg xmlns="http://www.w3.org/2000/svg" viewBox="0 0 549.8 32.59"><title>Asset 54</title><g id="Layer_2" data-name="Layer 2"><g id="Layer_1-2" data-name="Layer 1"><path d="M0,.75C35.9,1.54,71.75,3.87,107.53,7S179.19,13.9,215,17.67c35.56,3.75,71.14,7.43,106.79,10.23s71.37,4.73,107.12,4.92a897.26,897.26,0,0,0,106.84-5.39q6.6-.75,13.2-1.63c.31,0,.56-.46.86-.5a862.64,862.64,0,0,1-106.8,7c-35.73.24-71.45-1.35-107.08-3.92s-71.22-6.12-106.77-9.83c-35.81-3.75-71.6-7.66-107.45-10.93S50.08,1.75,14.18.61C9.74.46,5.3.35.87.25.58.24.28.76,0,.75Z" transform="translate(0 -0.25)"/></g></g></svg>