<svg xmlns="http://www.w3.org/2000/svg" viewBox="0 0 544.09 281.28"><title>Asset 57</title><g id="Layer_2" data-name="Layer 2"><g id="Layer_1-2" data-name="Layer 1"><path d="M541.59.5q3.54,78-.64,156.18-2.1,39-6.14,77.87c-1.14,11-2.67,23.36-14,28.5-9.63,4.37-21.24,4.31-31.57,5.27q-77.94,7.24-156.21,10.29t-156.53,1.84q-78.28-1.2-156.41-6.61-9.63-.68-19.25-1.4c-.28,0-.6.52-.87.5q79.66,6,159.58,7.72,80.13,1.66,160.29-1.1,79.85-2.76,159.46-9.91,9.87-.88,19.75-1.85a92.1,92.1,0,0,0,15.68-2.4c6.69-1.85,13.1-5.51,16.49-11.79,2.59-4.82,3.41-10.36,4-15.72.71-6.24,1.3-12.5,1.89-18.75q1.88-20,3.25-40a1571.82,1571.82,0,0,0,2.82-159.36Q542.92,9.9,542.46,0c0,.15-.88.34-.87.5Z"/></g></g></svg>