<svg xmlns="http://www.w3.org/2000/svg" viewBox="0 0 487.11 183.92"><title>Asset 36</title>
<style> <![CDATA[  
    path {  
        fstroke-dasharray: 1000;
  stroke-dashoffset: 1000;
  animation: dash 5s linear forwards;
    }

    @keyframes dash {
  to {
    stroke-dashoffset: 0;
  }
}

    ]]> </style>
    <g id="Layer_2" data-name="Layer 2"><g id="Layer_1-2" data-name="Layer 1"><path d="M56,179A1007.63,1007.63,0,0,0,91.86,21.16c.39-2.69-2.11-6-4.45-7.14C58-.28,36.18,38.94,25.89,60.08A266.91,266.91,0,0,0,0,156.39l7.05,5.43c.19-12.23.89-25.5,7-36.43,8.09-14.46,24.62-15,39.15-18.26a388.5,388.5,0,0,0,49.45-14.75c13.16-4.89,26.48-10.13,38.14-18.09C152.3,66.44,162,55.6,164.21,41.44c.39-2.45-5.7-10.08-6.87-6.86L111.17,162.11c-.87,2.41,2.48,6.25,4.45,7.14,11,4.94,21.5-.43,30.07-7.69s17.52-16.67,21.84-27.37a29.82,29.82,0,0,0-2.82-28.08c-5-7.78-13.62-14.53-23.34-12.57l5.09,8.27c23.73-8.38,53.23-20.07,57.65-48.45,3.11-20-15.66-46.38-37.94-39.69-3.54,1.07,2.62,8.21,5.09,8.27A431.2,431.2,0,0,0,289,8.59L283.37.53a337.55,337.55,0,0,0-49,63.13,333.63,333.63,0,0,0-18,34.45c-2.78,6.17-5.42,12.41-7.77,18.76-2.12,5.75-3.61,11.62-1.1,17.53,3.94,9.28,14.12,15.68,24.22,14.25,11.74-1.66,21.53-11.25,28.9-19.89A103.17,103.17,0,0,0,284.9,64.41a98.25,98.25,0,0,0-1.44-18.75c-1.08-6.19-4.51-15.11,3.8-17.66,7.3-2.25,15.78-2.37,23.36-3.41l27.12-3.71-6-7.57a379.54,379.54,0,0,0-25,70.31,371.68,371.68,0,0,0-7.26,37.57c-1.41,10-3.94,21.39-1,31.3,2.45,8.27,9.31,15.56,18.14,16.57,10.4,1.19,18.76-5.37,24.54-13.36C354.69,137,364.51,114.58,372.34,93a324.51,324.51,0,0,0,17.75-78.84l-1,1.41,96.78-7.3-5.65-8C468.67,5.59,451.12-5.2,442.68,7.4c-4.43,6.61-4.23,16.39-5.24,24l-3.81,28.4L418,176.3c-.29,2.14,1.16,4.3,2.65,5.74.48.47,4,3.17,4.23,1.11L440.24,68.59l3.81-28.4c1.05-7.8.74-18.33,5.07-25.15,4-6.33,11.54-6,18.15-5.44s13,1.34,19.18-1.54C489.12,6.81,483-.16,480.8,0L384,7.31c-.79.06-.91.79-1,1.41A319.37,319.37,0,0,1,345.5,130.34c-4.77,8.71-9.61,18.56-17.32,25.08-6.06,5.12-21.27,10.13-23.46-1.32-1.9-10,.92-21.6,2.45-31.46q2.54-16.22,6.47-32.16a379.25,379.25,0,0,1,25-70.31c1.14-2.43-3.48-7.9-6-7.56L290,18.46c-4.25.58-9.79.66-12.95,4s-2.56,8.29-1.8,12.37c4.07,22,2.76,43.34-6.79,63.93a95.77,95.77,0,0,1-19.18,27.61c-7.5,7.49-18.7,17-30.15,13.52-8.31-2.52-6.15-9.6-3.71-16.2,2.15-5.81,4.55-11.55,7.07-17.21A330.1,330.1,0,0,1,289.58,8.37c2.06-2.09-3.14-8.69-5.65-8A431.2,431.2,0,0,1,166.17,13.67l5.09,8.27A20.45,20.45,0,0,1,194,29.57c5.88,8.47,3.71,20.13-.62,28.77-10,20-32.26,28.23-52,35.2-3.24,1.15,2.34,8.83,5.09,8.27,8.12-1.64,14.52,3.39,16.1,11.34,1.64,8.23-2.36,16.81-7,23.36a94,94,0,0,1-16.7,17.75c-6.75,5.57-16.32,11.58-25.25,7.57l4.45,7.14L164.21,41.44l-6.87-6.86C152.85,63.42,119.71,76,95.81,84.77A389.7,389.7,0,0,1,45.37,99.48c-13.83,3-28.54,3.93-36.9,16.91C1,128,.21,143,0,156.39,0,159,6.73,166,7.05,161.82A263.2,263.2,0,0,1,30.5,71.72c6.16-13.35,13-27.24,23.22-38C62.61,24.37,76.27,15,89.43,21.44L85,14.3A1006.65,1006.65,0,0,1,49.1,172.11c-.92,2.92,6,9.64,6.88,6.85Z"/></g></g></svg>