<svg xmlns="http://www.w3.org/2000/svg" viewBox="0 0 483.24 171.61"><title>Asset 35</title><g id="Layer_2" data-name="Layer 2">
<style> <![CDATA[  
    g {  
        fill: white;  
        stroke: black;  
        stroke-width: 4;
        transition: fill 1s linear 0s;
    }
    ]]> </style>
<g id="Layer_1-2" data-name="Layer 1"><path d="M4.82,168.49c11.4-21.5,22.82-43,34.93-64.11,11-19.18,22-39.11,36.44-56a89.59,89.59,0,0,1,21-18.56,58.23,58.23,0,0,1,11.71-5.51A50.48,50.48,0,0,1,116,22.5a20,20,0,0,1,2.67-.4q3.2,1.11,1.53-1.31-.84-3-.53.28c-.85,5.26-.45,10.88-1.17,16.22-.75,5.56-1.82,11.08-3.1,16.54-2.45,10.5-5.69,20.8-9,31.05-7.51,23.15-15.56,46.4-16.67,70.93-.09,2,1,4.17,1.95,5.89.18.32,2.67,3.7,2.72,2.57,1.08-24,8.78-46.7,16.13-69.3,7-21.65,15.08-45.16,13.85-68.27a19.84,19.84,0,0,0-4.27-11.39c-2.76-3.28-6.86-2.24-10.55-1.39-9.73,2.24-18.48,7.34-26,13.76C66.56,42.06,55.05,62.17,43.81,81,28.38,106.85,14.26,133.45.15,160c-1.1,2.07,4.23,9.28,4.67,8.46Z"/><path d="M26.27,101.73A325.4,325.4,0,0,0,178.05,61.82l-7.65-4.1a661.83,661.83,0,0,0-50.31,102.76,3.57,3.57,0,0,0,2.67,5c22.45,4.84,51.53-2.2,63.3-23.7,4.94-9,4.81-20-2.78-27.45-6.85-6.74-17.47-8.68-25.59-3.1-5.48,3.77,1.67,8.46,6.12,5.79l39.44-23.61c9.41-5.64,19.45-11.55,25.5-21,5.15-8,7.17-21.26-4.39-24.37C212,44.65,198,46.4,186,50.09c-4.58,1.41-3.33,7.42,1.28,7.43l96.3.16-3.28-6.07A270.1,270.1,0,0,0,209.73,166c-.58,1.87,1.46,3.54,3,4,24.38,6.47,49.9-6.13,64.05-26.09,16.75-23.61,16.62-54.8,11-82-1.06-5.08-10.91-3.37-9.86,1.69,5,24.25,5.81,51.37-7.3,73.37-10.78,18.1-32.77,31.2-54,25.56l3,4a261.71,261.71,0,0,1,68.57-110.5c2.69-2.58-.26-6.06-3.28-6.06l-96.3-.16,1.27,7.43a63.14,63.14,0,0,1,15.6-2.75c4.24-.18,12.22-.81,15.91,1.53,3.48,2.21,1.11,8.76-.43,11.76a32.34,32.34,0,0,1-8.43,9.8c-7.29,6-15.87,10.47-23.94,15.3l-30.87,18.48,6.12,5.79c5.21-3.58,11.81,1.49,14.3,6.22,3.79,7.21,0,15.74-5,21.33-11.3,12.72-30.4,16.9-46.57,13.41l2.68,5A661.38,661.38,0,0,1,179.58,60.14c2.88-4.78-5-5.54-7.65-4.11A310.48,310.48,0,0,1,27.61,93.86c-5.73.07-7.9,8-1.34,7.87Z"/><path d="M302.87,60.41a60.79,60.79,0,0,1,18.79,1.05l-5.45-3.64c-12.69,24.71-23.23,50.82-30.3,77.71-1.4,5.33-2.48,11,.94,15.8,2.85,4,7.58,6.6,12.17,8.16a34,34,0,0,0,30.69-4.58c9.92-7,16.52-18.06,22.3-28.47a204.7,204.7,0,0,0,24.15-73.73c1.3-10.27-.3-26.14,12.88-28.61,15.2-2.86,30.6-4.4,45.78-7.53q24.12-5,47.71-12c3.17-.94-5.19-5.18-7.6-4.46a567.15,567.15,0,0,1-77.17,17.29c-8.8,1.33-22,.3-27,9.26-2.16,3.84-2.61,8.44-3,12.74-.59,6.33-1.26,12.63-2.33,18.9a204.81,204.81,0,0,1-23.72,66.51c-5.82,10.26-12.46,21.16-22.77,27.46a28.13,28.13,0,0,1-14.74,4.48c-9.52-.12-11.05-8.73-9.23-16.26C301.57,113,312.8,86.11,325.68,61c.89-1.73-4.77-3.5-5.45-3.65A75.46,75.46,0,0,0,297,55.77c-5,.46,3.54,4.85,5.9,4.64Z"/><path d="M435.56,18c-1.18,49.11-20.7,95-39.84,139.44-.61,1.42,3.53,0,3.82-.07,1.56-.58,4.48-1.68,5.21-3.39C424,109.23,443.44,63.2,444.63,13.77c0-.49-9,1.41-9.07,4.21Z"/></g></g></svg>