<svg xmlns="http://www.w3.org/2000/svg" viewBox="0 0 763.31 871.66"><title>Asset 37</title><g id="Layer_2" data-name="Layer 2"><g id="Layer_1-2" data-name="Layer 1"><path d="M445.7,22.75l3.14-17.84a2.73,2.73,0,0,0-1.35-2.66c-12.58-6.85-24.36,3.86-36.32,6.92-8.49,2.17-15.35-2.74-23.67-2.67a24.79,24.79,0,0,0-18.15,8.27l4.09,1.93c.16-6.45-4.15-11.8-9.83-14.49-7.89-3.73-16.72-1.36-24.64,1-2.13.64-1.7,3.13-.13,4.17,8.06,5.38-1.62,18.76-3.68,25.07-2.22,6.78-2.29,14.37,4.25,18.61l1.3-4.08c-9.82-3.2-18,5.67-19.11,15a17.33,17.33,0,0,0,.54,6.91c.39,1.28,1.34,2.53,1.62,3.81.77,3.5-.9,4.24-3.94,5.26a24.22,24.22,0,0,0-12.33,8.63c-6.85,9.19-8.43,21.75-9,32.87-.32,6.09.08,12.17,4.77,16.59a58.55,58.55,0,0,0,6.08,4.42c5.58,4.08,3.88,9.17.1,14-12.74,16.2-26.81,31.51-40.18,47.2a2.55,2.55,0,0,0,1.43,3.93c7.69,1.58,11.13,6.08,15.55,12.05,3.38,4.55,7.86,7.09,13.62,6.71s10.66-3.25,15.31-6.36c5.8-3.87,14.62-10.67,21.34-4.83,3.14,2.73,3.59,6.78-.2,9.14-2.32,1.44-5.49,1.51-8.1,2.06-4.63,1-8.81,2.83-10.93,7.31-4.66,9.79,2.79,22.33-4.94,31.08-3.63,4.11-8.75,6.75-10.09,12.49-1,4.17.63,8.6,4.67,10.42,8,3.59,14.21-6.41,21.79-6.2,4.8.13,6.48,7.6,11.16,9.19s8.87-1.42,11.55-5c3.26-4.4,3.78-9.4,5.63-14.38.88-2.37,2-5.13,4-6.81,3-2.57,6.88-1.9,8,2,3.92,13.21-14.59,20-15.41,32.47-.77,11.67,11.36,18.81,21.52,19.84l-2-4-42.91,57.78a2.4,2.4,0,0,0,.32,3.25,63,63,0,0,1,15.6,27c.78,2.72,5.22,2.31,4.33-.82a68.34,68.34,0,0,0-17-29.19l.33,3.24,42.91-57.78a2.62,2.62,0,0,0-2-4.05c-6.13-.62-13.47-3.63-15.83-9.86C356.17,295,362.36,289,366.73,284c5.46-6.18,10.65-15.66,5.18-23.66s-14.74-3.19-18.1,3.87c-2.12,4.43-2.48,9.48-4.77,13.81-1.5,2.84-5,7.94-9,5.93-2.59-1.29-3.79-5.23-6.11-7.05-7.23-5.68-14.8,1.76-21.62,4.17-3.84,1.36-6.9-.45-5.18-5.21,1.16-3.23,4.14-5.27,6.56-7.5a19.67,19.67,0,0,0,6.87-13.87c.38-5.12-.56-10.25-.14-15.36.57-6.83,4.38-9.35,10.73-10.56,4.14-.78,8.87-1.46,11.33-5.33,2.36-3.7,1.23-8.06-1.33-11.32-9.72-12.36-22.91-1.14-32.67,4.44-3.52,2-7.81,3.87-12,3.32-5.31-.69-7.17-5.54-10.06-9.26a25.22,25.22,0,0,0-15-9.25l1.43,3.92,33.43-39.25c4.15-4.88,10.36-10.32,11.47-17,.87-5.18-2.07-9-6-11.92-2.54-1.87-5.49-3.25-7.13-6.06-2.11-3.6-1.69-8-1.41-12a86.55,86.55,0,0,1,2.75-17.45c1.53-5.48,4-11,8.26-14.9A21,21,0,0,1,322,82.27c2.17-.74,4.59-1.37,6-3.33s1.14-4.44.27-6.7c-1.26-3.27-2.58-5.72-2.05-9.37.95-6.41,6.51-13.93,13.75-11.56,2.83.93,3.34-2.75,1.29-4.08-8.32-5.4,1.82-19.28,3.8-25.74,2-6.63,1.88-13.78-4.37-17.94l-.13,4.17c8.94-2.64,28.64-6.55,28.26,8.62,0,1.78,2.77,3.37,4.08,1.93a20.78,20.78,0,0,1,20.44-6.55c6.4,1.53,11.48,3.68,18.14,2.28C422,11.8,434.91.22,445.62,6.06l-1.34-2.67-3.14,17.85c-.46,2.6,4,4.5,4.56,1.51Z"/><path d="M347.78,404.23c5.18,4.51,8.57-2.93,10.63-6.58,6.57-11.67,19.43-.37,25.11,5.86a2.72,2.72,0,0,0,4.28-.1,31.73,31.73,0,0,0,5.05-21.11l-4.06,1.62c8.75,8.34,23.23,8.93,32.36.85,5.35-4.74,8.07-11.66,13.17-16.6,3.73-3.62,14.58-7.28,16.33.43l1.58-2.1a39,39,0,0,0-23.66,20.27c-5.33,10.88-4.72,22.39-.09,33.39s11.07,23.15,22,28.83c8.88,4.6,20.68,4.23,27.74-3.42l-4.24-.83c1.75,5.4,3.58,12.48,1.12,17.95-2.74,6.11-10.06,4.3-14.74,7.74-4.4,3.22-4,9.11-4,14a134.68,134.68,0,0,0,2.25,24q.59,3.19,1.34,6.37c.34,1.46,1.42,3.71,1.12,5.2-.52,2.59-5.08,5.61-7.14,7.33-5.65,4.74-12.74,9.48-20.38,9.64-6.83.14-11.8-6.07-18.66-4.89-6.32,1.08-10.78,6.88-14.87,11.27l-39.75,42.79c-1.26,1.36-.13,3.22,1.51,3.51,5.34.92,9.89-1.09,14.29-4,5-3.27,11.85-9.84,18.05-5.74,6.72,4.43,8,16.39,10,23.41l8.25,29.69,2.21-2.19c-16.25.91-30.58,12.07-44.11,20.06l-48.05,28.39c-2.22,1.31-.4,4,1.71,3.91,5.53-.27,6.86,9.29,8,13.21,1.31,4.67,2.77,10.53,7.34,13.11,7.41,4.19,14.58-3.9,20.12-7.74a163.66,163.66,0,0,1,33.11-17.71l-2.91-.9,12.61,13.85.1-2.57-16,16.15c-1.88,1.9.95,3.83,2.81,3.47a69.24,69.24,0,0,1,36.43,2.47c8.53,3,16.82,10.79,26.32,9.18,4.85-.83,9-3.6,13-6.34,5.43-3.74,10.82-7.56,16.22-11.33l32.44-22.65-3.36-3.25-22.85,27.56c-6.62,8-12.86,16.91-20.57,23.9-3.89,3.53-8.41,6.1-13.79,6.15-6.23.06-12.14-2.64-18.23-3.57-8.58-1.32-17,.57-24.68,4.48-8.4,4.28-15.7,10.56-22.49,17-7.53,7.14-13.28,14.09-16.66,24a88.84,88.84,0,0,1-15.78,28.35c-6.38,7.79-13.24,15.73-20.8,22.4-4.72,4.17-9.79,6.75-15.58,9.08-4.16,1.67-8.56,3.46-11.74,6.75-5.05,5.22-6.28,13.89-.37,18.84a2.9,2.9,0,0,0,3,.26l25.61-14-3.47-.68a48.24,48.24,0,0,1,9.25,17.45c.34,1.16,2.17,1.76,3.21,1.4,8.47-3,11.78-10.7,15-18.46,1.81-4.35,3.59-9,6.65-12.61,4.27-5.11,10.74-7,17.15-7.58,14.68-1.35,30.25,1.33,44.05,6.32,4.41,1.59,9.21,4.36,13.91,2.1s7.76-7.8,9.45-12.39a30,30,0,0,0,1.39-16c-.43-2.22-2-5.48-1.41-7.77,1-4,10-4.56,13.15-5.21a187.56,187.56,0,0,1,21.49-3.11c6.18-.54,16.61-2.71,21.29,2.52,2.92,3.25,3.08,8.06,7.09,10.53,3.28,2,7,1.51,10.28-.21,4.48-2.34,8-6.53,13.24-7.08,4.59-.48,9.4,1.26,13.82-.72,5.94-2.66,4.3-10.11,9.35-13.59,5.87-4.06,13.77-2.6,20.43-3.61,5-.76,9.88-2.76,12.57-7.32,2.34-4,2.47-8.56-.55-12.19-1.72-2.07-6.06-.21-4,2.23,5.77,6.92-4.59,12.6-10.08,13.28-5.24.63-10.59.13-15.71,1.61-3.72,1.08-7.42,3-9.58,6.34-1.45,2.24-1.51,4.84-2.68,7.17-1.7,3.37-5.56,2.89-8.74,2.72-3.94-.21-7.66-.3-11.3,1.41-3.91,1.84-9.51,8.42-13.89,6.46-3.78-1.7-4.31-7.88-7.56-10.67s-8-3.6-12.32-3.71c-12.78-.32-26.1,1.89-38.54,4.69-3.68.83-9,1.33-11.4,4.63-3.06,4.13,0,9.68.49,14.1A26.51,26.51,0,0,1,443.09,833c-3,4.39-7.19,4.93-11.94,3.15q-4.65-1.75-9.43-3.14c-12.21-3.55-25.49-5.39-38.2-4.41-10.55.81-19.56,4.72-24.81,14.24-4.42,8-6.28,21.21-16,24.66l3.21,1.4a51.34,51.34,0,0,0-9.85-18.44,2.89,2.89,0,0,0-3.47-.68l-25.61,14,3,.26c-3.72-3.11-2.21-8.81.43-12.12,3-3.77,8-5.45,12.36-7.19,8.47-3.43,15.06-8.44,21.34-15,12.61-13.2,25-26.91,31-44.47,1.85-5.42,3.7-10.45,7.25-15a96.6,96.6,0,0,1,10.36-10.76C399.69,753,407.2,746.72,416,743A33.66,33.66,0,0,1,431.13,740c5.44.3,10.58,2.25,15.89,3.27,7.94,1.52,15.08.14,21.5-4.85,8.44-6.56,14.83-16.16,21.6-24.32l24.08-29c1.69-2.05-1.35-4.66-3.37-3.25L480,703.37,463.79,714.7c-4.9,3.42-10.54,8-16.87,6.82-5.12-.95-9.65-4.71-14.39-6.79a75,75,0,0,0-14.31-4.58,76.12,76.12,0,0,0-30.7-.08l2.8,3.47,16-16.14a1.91,1.91,0,0,0,.11-2.57L393.83,681a2.89,2.89,0,0,0-2.91-.9A169.36,169.36,0,0,0,361,695.33c-4.71,3-9,7.07-13.83,9.87-3.85,2.24-6,1.13-7.82-2.44-3.89-7.69-3.63-24.33-15.74-23.74l1.72,3.9L370,656.52c7.2-4.25,14.38-8.55,21.61-12.76s14.87-8.18,23.49-8.66c1-.06,2.57-.92,2.21-2.19L408,599.39c-2-7.29-3.5-16.3-9.49-21.56-4.74-4.15-10.88-4.12-16.35-1.47-6.07,3-12.22,10.48-19.56,9.21l1.51,3.5,37.06-39.88c2.73-2.94,5.35-6.09,8.3-8.81,1.33-1.24,2.89-2.8,4.63-3.44,3.58-1.32,5.72-.11,8.81,1.47a23.51,23.51,0,0,0,16.8,2c6.25-1.55,11.81-5.15,16.79-9.12a91,91,0,0,0,7.84-7.12c3.11-3.14,1.8-4.39.78-8.62a134.14,134.14,0,0,1-3.62-24.81c-.21-4-.62-8.37,0-12.35.78-5,4.21-5.59,8.45-6.65,13.56-3.39,12.17-17.51,8.7-28.26-.51-1.57-3.16-2-4.24-.83-7.13,7.73-18.86,5.84-26.28-.47-7.78-6.62-13-17.14-16.36-26.65-6.42-18.27,3.35-39.3,22.21-45,.84-.26,1.82-1.1,1.59-2.1-2.46-10.84-17.06-10.17-24-4.21-6.36,5.45-9.07,14.28-16.08,19.06-7.37,5-17.27,3.54-23.54-2.44-1.33-1.26-4.27-.41-4.06,1.62a28.18,28.18,0,0,1-4.63,18.92l4.28-.1c-5.65-6.2-12.3-13-21.34-12.78a15.42,15.42,0,0,0-8.86,2.89c-1.15.87-7.16,9.11-6.4,9.77-2.15-1.87-5.62.93-3.18,3.06Z"/><path d="M594.39,769.8c6.26.13,10.69,5.6,15.45,9,4,2.87,8.47,4.75,13.51,4.21,7.95-.86,15.33-5.87,23.14-7.73a75.24,75.24,0,0,1,26.2-1.54c7.41.88,14.75,3.66,22.28,3.06,7.15-.57,13.19-4.38,18.55-8.89,12.72-10.7,24.25-23.2,35-35.86,2.61-3.08,6.3-6.31,7.34-10.3a27.26,27.26,0,0,0,.74-9.81,29.27,29.27,0,0,0-8.8-18,2.89,2.89,0,0,0-3.8-.5,55.56,55.56,0,0,1-54,9.3l.86,3.37,30.63-21.58a1.63,1.63,0,0,0,.2-2.64l-9-7.93c-2.24-2-7.32-4.74-5-8.09,3-4.26,10.26-3.46,14.45-2.29,6.9,1.93,17.88,4.36,21.51-4a2.08,2.08,0,0,0-1-2.35c-3.32-2.29-6.92-5.64-8.12-9.64-2.09-7,5.36-6.46,10.07-7.14,6-.87,10.18-5,12.83-10.18,3-5.95,4.08-12.78,4.84-19.34a110.53,110.53,0,0,0,.69-23.28c-1.35-14.06-7.73-26.63-21.26-32.32-8.59-3.61-18.17-4.8-27.24-6.58-5.14-1-10.27-2.12-15.43-3-3.24-.57-6.73-1-9.73.72-6.74,3.78-5.94,13.47-12.24,17.69-7.09,4.74-17.39,1.46-21.39-5.67l-.13,1.88c7.1-6.91,15.14-15.17,16-25.6s-6.84-19.66-13.09-27.32c-6.53-8-14.33-15.86-23.87-20.18a30.28,30.28,0,0,0-13.72-2.9,24.78,24.78,0,0,0-6.28,1.1c-3.07,1-7.14,3.88-10.36,2.24l.85,3.38a41.91,41.91,0,0,1,41,1c1.17.71,2.75,1,3.6-.32,5.22-8-1.16-17-7.38-22.15-4.22-3.51-10.15-6.83-12.12-12.25-1.6-4.39-.4-11.13,4.95-12a1.53,1.53,0,0,0,1.05-2.35c-9.53-17.8-24.57-39.51-48-34.35l3.37,2.91c2.51-4.25,1-8.92-2.05-12.49-4-4.76-9.79-6.1-15.41-8.18-8.15-3-10.38-9-12-17a195,195,0,0,0-6.1-22.74c-9.12-27-24.36-53.29-45.73-72.44a98.25,98.25,0,0,0-37.52-21.52c-3.15-.94-2.86,2.95-.21,3.74,32.89,9.8,56.06,39.76,70.37,69.52a181.84,181.84,0,0,1,10,25.64c2.44,7.95,3.52,16.31,6,24.21a20.22,20.22,0,0,0,11.67,13.07c6,2.63,22.3,6.09,16.4,16.1-1,1.74,2.06,3.2,3.37,2.91C611,408,623.59,428.59,631.83,444l1-2.35c-8.34,1.37-10,11.82-6.32,18.25,5.08,8.91,26.77,17.24,18.49,29.92l3.6-.31a47.75,47.75,0,0,0-46.78-1.82c-1.75.91-.3,2.79.86,3.38,3,1.54,5.8,1.33,9,.22,5.17-1.81,9.57-3.71,15.19-2.67,10,1.84,18.29,9.66,24.82,17,6.36,7.15,15,16.53,15.09,26.63.11,10.29-8.42,18.66-15.26,25.31a1.55,1.55,0,0,0-.13,1.88c5.42,9.67,19.72,14.38,29.29,7.89,6-4.1,5.6-12.67,11.08-16.8,4.13-3.11,12,0,16.61.87L725,554.64c9.49,1.88,19.57,4,26,11.92,5.14,6.37,6.95,14.85,7.41,22.84a122,122,0,0,1-1.23,23.23c-.95,7.12-2.56,16-8.17,21-4.06,3.68-8.62,2.39-13.44,3.62-2.86.72-5.35,2.54-6,5.53-1.56,6.8,5.55,13.71,10.51,17.13l-1-2.35c-2.78,6.4-11.58,3.73-16.73,2.29-4.6-1.29-9.32-1.59-13.88.12-3.52,1.31-6.78,4-6.26,8.09.39,3,3.23,4.52,5.38,6.42L718,683.76l.2-2.64L687.6,702.71c-1.43,1-.61,2.83.86,3.38A60.68,60.68,0,0,0,748,696.32l-3.8-.51c6.1,6,10,16.16,6.91,24.59-1.64,4.5-6.51,8.73-9.61,12.29s-6.53,7.35-9.9,10.92c-6.27,6.65-12.76,13.14-19.57,19.24-3.56,3.19-7.31,6.33-11.72,8.29-5.61,2.5-11.25,1.89-17.11.71-17.14-3.46-33.85-3.32-50.29,3.26-4.83,1.94-10,5.24-15.38,3.73-3.39-1-6.24-3.59-8.92-5.74-4.56-3.69-9.15-7.07-15.23-7.2-3.27-.07-1.49,3.85,1,3.9Z"/><path d="M466.47,259.37A16.43,16.43,0,0,1,456.39,269c-6,2-11,.32-15.88-3.25-3.58-2.6-7-5.1-11.5-5.6-3.73-.41-19.47,3-16.41-5.38l-3.12,1.32c11.4,3.65,24.9,7.16,36.61,2.77,5.48-2.06,8.55-5.68,12.3-9.92,5.55-6.3,13.87-.69,20.7-3.83,3.58-1.65,7.5-5.57,5.81-9.84a7.61,7.61,0,0,0-4.28-4c-1.29-.58-2.73-.68-4-1.19-2.45-1-3-2.23-4.37-4.39-2.59-4.2-5.78-6.47-11-6.1-6.15.43-10.5,5.05-14.32,9.41l2.85-.84c-2.9-.65-2.11-4.48-1.11-6.39,1.59-3.07,4.66-3.71,7.87-4.06,5.18-.56,10.25-.27,15-2.67,7.23-3.61,11.22-11,14.78-17.91a102.51,102.51,0,0,1,7.07-12.51c2.93-4.11,6.83-7.31,10-11.19,2.61-3.16,4.66-6.86,4.52-11.07-.15-4.69-3.66-9.53-.95-14,6.21-10.25,26.74-7,28.76-21.21.61-4.3-1.41-8.6-3-12.49a66.72,66.72,0,0,0-6.47-12.61c-4.81-7-12-12.21-20.79-11.82-11.57.52-21.44,10.63-33.18,8.71-9-1.47-20.18-9.35-28.3-1.52-2.27,2.19,1.51,4.86,3.43,3,4.11-4,9.43-1.85,14.17-.29s9.38,3.29,14.38,3.14c9.85-.3,17.78-7,27.25-8.68,11.61-2,18.72,7.88,23,17.19,1.9,4.11,5,9.7,4.58,14.33-.33,3.58-3,5.9-6,7.57-10,5.69-27,7.62-23.21,23.05,1.48,6.09,1.26,10.07-2.94,15-3.25,3.82-7.09,7-10,11.18-4.87,7-7.62,15.37-12.75,22.24-4,5.31-8.66,7.75-15.27,8.21-4.48.31-9.65.13-13.49,2.85-5.38,3.81-6.75,14.11,1,15.84a2.86,2.86,0,0,0,2.85-.85c3.27-3.72,9.63-10.8,14.91-6.16,3.24,2.85,2.77,6.58,7.32,8.36,1.5.58,3.46.64,4.85,1.47,5.53,3.28-1.76,7-4.49,7.21-4.63.37-9.08-1.3-13.65.25-3.5,1.19-5.42,3.85-7.71,6.57a20.64,20.64,0,0,1-12.56,7.29c-9.64,1.74-19.75-1.13-28.88-4.05a2.61,2.61,0,0,0-3.12,1.32c-2.1,5.73,3.31,10.32,8.62,11.13,4.32.66,8.75-1.21,13-.3,4.48,1,7.8,4.88,11.68,7.09,10.84,6.19,25.57.68,30.09-10.81,1-2.63-3.82-3.68-4.78-1.25Z"/><path d="M446.49,95.45c-6.91.58-12.21-7.1-19.27-4.14-4.36,1.83-8.11,6-11.62,9.14q-5.78,5.08-11.35,10.38-10.83,10.28-20.93,21.29-4.89,5.34-9.6,10.84c-1,1.17-8.23,11.63-10.67,9.92l2.2,2.31,15.87-22.84c4.86-7,10.21-13.86,14.54-21.2,3.08-5.23,2.65-13,8-16.49,4.15-2.7,10.15-3.3,11.94-8.56.32-.95-2.85-2.78-3.51-3.07-4-1.73-8-1-12.05,0-2.59.66-10.6,3.93-13,1.62l.73,1.08A37.88,37.88,0,0,0,406.87,71c2.43-3.68,3.34-8.17,5.78-11.76,2.59-3.79,7.08-4.84,11.24-6,3.66-1.05,7.58-2.14,10.56-4.63s3.67-5.89,5.29-9.27c1.79-3.76,4.28-4.67,8.18-5.67,2.41-.62,5.16-1.11,5.37-4,.1-1.35-3.93-2.87-3.92-3.1-.25,3.42-4,3.61-6.69,4.34-3.05.83-5.13,1.9-6.62,4.81-1.69,3.29-2.21,6.76-5,9.38-3.18,2.94-7.59,4.08-11.64,5.24-3.65,1-7.7,2.05-10.19,5.17-2.69,3.38-3.53,8.16-5.86,11.85a37.74,37.74,0,0,1-19.44,15.33c-.24.08.71,1.07.72,1.08,3.35,3.27,6.79,5,11.57,4.34,6.25-.92,12.75-4.72,19-2L411.68,83c-1.78,5.26-7.79,5.86-11.93,8.56-5.38,3.5-4.93,11.26-8,16.49-4.33,7.34-9.68,14.2-14.55,21.2q-7.92,11.43-15.86,22.84c-.34.5,2,2.18,2.21,2.32,2.21,1.54,3.71,2.19,6.23.52,4-2.62,7.13-8,10.24-11.61q10.69-12.28,22.31-23.73c7.51-7.4,15.29-14.56,23.36-21.36,5-4.24,8.76-5.44,14.84-2.46,3.16,1.55,6,3.16,9.6,2.86,0,0-2.35-3.29-3.63-3.18Z"/><path d="M396.5,530.78c-3.95-5.58-10.14-10.34-17.34-8.29-7,2-9.84,9.08-6.23,15.42,8.15,14.31,29.12,9.16,33.46-5.24a2.06,2.06,0,0,0-1.78-2.56l-6.62-.39c-2.87-.17-4.46,4.18-1.22,4.37l6.62.39-1.79-2.56c-2.71,9-13,13.23-20.88,7.4-4.34-3.19-7.26-11.19.12-12.7,5-1,8.85,3.11,11.44,6.76,1.61,2.28,5.93-.18,4.22-2.6Z"/><path d="M239.64,92.1l7.49-11,3.75-5.5c1.24-1.83,2.7-5.16,4.46-6.4,3.4-2.4,2.42,2.51,2.56,5,.11,2,.37,4.12,1.73,5.69,3.45,4,10.06,2.33,13.87-.24,1.86-1.25,3.49-2.86,3.3-5.25-.31-3.89-4.55-5.33-2-9.7C278.48,58.53,288,58.76,290,51.12a6.88,6.88,0,0,0-1-6.2,11.37,11.37,0,0,0-2.3-2c-2.73-2.12-2.91-3.7-1.61-6.91,1.63-4,5.59-9.48.25-12.15-4.34-2.17-9.63-.37-12.91,2.82-2.86,2.78-4.48,6.57-7.32,9.37-2.51,2.48-5.69,4.1-8.74,5.83-5.11,2.89-9.9,5.85-11.73,11.75l4.93.27c-4.77-12.44-24.58-5.18-17.73,6.78.92,1.62,2.29,2.93,3.27,4.51,1.87,3,.41,5-1.93,7S229,75.85,228.5,79a11.4,11.4,0,0,0,7.72,12.62c2.57.89,4.92-2,1.8-3-4.13-1.43-6-7.13-3.88-10.92,1.73-3.14,6.05-4.13,6.93-7.89.78-3.3-1.7-6-3.48-8.41-1.47-2-2.52-4.1-1.85-6.64,1.23-4.64,7.2-5.21,9-.61.7,1.83,4.26,2.43,4.93.27,2.1-6.78,9.79-9.16,15.21-12.67a26.37,26.37,0,0,0,7-6.41c2.09-2.76,4.56-8.41,8.51-8.7,5.65-.41.38,6.85-.47,9.45s-1,5,.86,7.15c2.28,2.66,6.07,3,4.14,7.77-1.7,4.17-6.64,5.44-10.11,7.69-2.63,1.71-5.17,4.19-5.77,7.43a6.83,6.83,0,0,0,.3,3.72c.45,1.24,1.93,2.27,2.21,3.43.86,3.59-5.6,7.16-8.19,4.19-.83-.94-.48-3.54-.51-4.66-.06-2.08.15-4.52-1.07-6.35-2.7-4-8-2.36-10.63.62C244.94,73.9,240.21,82.85,235,90.5c-1.36,2,3.41,3.41,4.64,1.6Z"/><path d="M287.28,129.43a36.76,36.76,0,0,0-3.24-16c-1.53-3.32-4-8.36-8.12-9-2.35-.38-5.48.91-6.55,3.14-.82,1.71-.09,3.25-.12,5s.06,2.84-1.87,2.52c-1.29-.21-2.81-1.68-3.76-2.5-1.19-1-4.67.67-4.36,2.28,1.43,7.58-13.82,11.71-8.62,20.06.86,1.38,3.53,0,4.26-.91s3.3.6,3.89,1a8.15,8.15,0,0,1,2.19,2.88c1,1.94,1.43,4.17,2.18,6.22a14.63,14.63,0,0,0,7,8.47,15.91,15.91,0,0,0,8.43,1.59c2.84-.13,6.13-.95,8.78.27,2.2,1,4.56,4.24,2.45,6.49-.48.51-.52,1.3.24,1.53A11.42,11.42,0,0,0,301,159.61c4.7-4.27,4.48-10.52,3.93-16.37-.06-.63-.49-.77-1.07-.84A19.74,19.74,0,0,1,287.43,129c-.55-1.56-5.17.33-4.58,2a21.71,21.71,0,0,0,18.45,14.44l-1.08-.84c.39,4.14,1.46,17.38-6.74,15l.25,1.53c3-3.24,1.06-7.85-2.72-9.57-6.93-3.15-14.31,2.45-20.41-4.34-4.08-4.54-3.19-12.46-9-15.56A8.52,8.52,0,0,0,251,133.77l4.26-.91c-4.34-7,10.14-12.05,8.62-20.07l-4.37,2.27c3.88,3.33,12.75,5.94,14.45-1.26.35-1.5-1-4.46-.29-5.68.8-1.41,4.09,3.95,4.73,5.12a34.89,34.89,0,0,1,4.24,17.52c0,1.87,4.66.32,4.68-1.33Z"/><path d="M270,283c-3.65,1.07-4.76,4.84-3.75,8.31,1.6,5.47,9.79,10.34,5.86,16.4-.7,1.08,1.66,3.15,2.51,3.51,7.44,3.15,11.32-7.25,12.35-12.9a31.75,31.75,0,0,0-5-23.09c-.44-.67-2.12-2.83-3.15-2.19a9.72,9.72,0,0,0-4.59,10.24c.18,1.21,3.87,4.15,3.63,2.5a8.82,8.82,0,0,1,4.42-9.13l-3.15-2.19a28.23,28.23,0,0,1,4.25,20c-.64,4.1-4.06,16.06-10.35,13.4l2.51,3.51c1.92-2.95,1.43-6.11-.16-9.14-2.08-4-10.56-13-2.41-15.38,1.22-.36-1.73-4.18-3-3.8Z"/><path d="M312.39,299.35,303,319.75c-1.72,3.75-6.56,10.55-3,14.55,4.43,4.94,13.61,1,16.51-3.63,2.48-4,2.24-8.95,2-13.45-.2-3.66-.6-7.45.5-11,1-3.16,3.57-5.68,4.25-8.92,1.64-7.78-9.07-8.61-11-2.55-.25.76,4.22-.07,4.64-1.36.36-1.11,1.81,3.56,1.8,4a10.24,10.24,0,0,1-1.66,4.91c-1.86,3.38-3.16,6.11-3.38,10-.34,6.18,2.08,13.75-1.58,19.31-2.11,3.21-6.81,3.28-8.38-.67-1.2-3,1.53-7.22,2.74-9.86L317,298c.27-.59-4.06.08-4.65,1.36Z"/><path d="M333.94,296.09c-5.16,3.08-6.61,8.83-6.86,14.49-.2,4.79-.55,11.22,4.16,14.06,3.77,2.26,8.83.87,11.56-2.37,4.63-5.47.87-13.33-2-18.67-1-1.94-5.74-2.43-4.32.24,2,3.79,5.07,9,3.46,13.4s-7.64,6.63-8.17.41-.39-14.56,5.74-18.22c2.12-1.27-1.67-4.49-3.6-3.34Z"/><path d="M256.61,198.05c-1.35,3.45-5.39,5.81-5.41,9.76a5.77,5.77,0,0,0,4.26,5.63c7.66,2.67,12.2-9.29,12.66-15,.13-1.61-4.6-2.84-4.7-1.71a20.94,20.94,0,0,1-2.12,7.83A19.14,19.14,0,0,1,259,208.1c-.48.59-2.21,3-3.1,3,.5,0,.33.23.16-.45a5.55,5.55,0,0,1-.16-1.77,5.89,5.89,0,0,1,1-2.7c1.41-2.23,3.39-3.85,4.37-6.36.5-1.3-4.17-3.07-4.7-1.72Z"/><path d="M284.24,230.88a13,13,0,0,0-11.36,7.53c-.2.41,3.85,2.37,4.39,2.2,3.44-1.08,6.65.3,10.11.53,2.39.16,5.59-.32,6.47-2.95,1.34-4-3.48-6.27-6.66-6.74-.34,0,1.28,1,1.4,1.11a9.34,9.34,0,0,0,2.87,1.13c-3.87-.58-2.24-1.83-1.94.5a4.2,4.2,0,0,1-.17,1.83c-.65,1.91-2.55,2.69-4.44,2.88-4.09.4-7.83-1.81-11.92-.53l4.39,2.2a12.66,12.66,0,0,1,11.13-7.44c.41,0-1.3-1.06-1.4-1.12a6.92,6.92,0,0,0-2.87-1.13Z"/><path d="M266.42,471.89c2.66,5.84,11.42,5,13.31-1.1,2.36-7.66-6.36-12.92-12.77-13.16l2.49,2.21c-.81-2.76,5.5.45,5.1.13.86.67,1.52,1.62,2.31,2.37a11.69,11.69,0,0,0,4.52,3.05c3.6,1,6.43-1.1,8.39-3.93,3-4.35,4.41-9,9.1-12a19,19,0,0,1,15.94-2.14c1.16.35,1.92-.9,1.85-1.9l-1.85-29-2.36,1.71a56.36,56.36,0,0,1,13.8,10.62,1.63,1.63,0,0,0,2.65-.28c3.64-8.25-.21-17.42-7-22.83-9-7.21-21.5-6-32.21-4.8l2.59,2.83c.23-6.16,11.36-7.9,14.74-12.3,2.77-3.59,2.86-8.45-.83-11.48-2.31-1.89-5.49-2.14-8-3.62a15.33,15.33,0,0,1-7.12-10c-1.22-5.85,3.44-12.16-.26-17.58-3.29-4.83-10.38-4-15.45-4.22-9.28-.43-18.56-1-27.84-1.29-6.43-.22-12,.67-15.45,6.58-1.72,2.92-2.49,6.61-4.69,9.22-1.34,1.59-6.64,5.26-8.37,2.29l.13,2.34a49,49,0,0,1,17.36-18.14c1.49-.92.88-3.1-.22-4.07a47.22,47.22,0,0,0-22.15-11.07c-1.89-.38-2.08,1.92-1.53,3.15,1.47,3.27-10.29,2.78-11.43,3.11a6.68,6.68,0,0,0-4.86,4.87c-1.48,6.16,5.06,11.42,3.41,17.47l1.82-1.32c-7.09-.8-10.75-8.91-16.87-12a22.47,22.47,0,0,0-17.57-1,21.29,21.29,0,0,0-12.67,13.6,22.24,22.24,0,0,0-1,8.64c.31,3.76,2.76,8.16.84,11.72-3.25,6-13.13,5.28-18.73,4.7-5.35-.55-11.49-.89-16.43,1.66-3.46,1.79-7.19,5.91-4.58,9.67,3.27,4.71,9.66,6.73,15,7.35,7.42.87,14.93-.69,22.3.27,6.91.91,17.85,4.73,16.54,13.47l1.32-1.35a45.77,45.77,0,0,0-30.75,11.83c-1.73,1.54,1,5.67,3,3.91a43,43,0,0,1,29-11,1.54,1.54,0,0,0,1.32-1.36c1.6-10.79-8.11-17.43-17.5-19.63-11.93-2.78-29.11,4.1-38.09-6.75l.48,2.9c3.7-10.08,17.86-5.59,25.8-5.85,7.53-.25,16.5-3.51,16-12.5-.16-2.65-1.21-5.14-1.51-7.76a17.72,17.72,0,0,1,1.73-9.79,18,18,0,0,1,14.57-10.22c6.58-.58,11.78,2.11,16.29,6.66,3.44,3.45,6.68,7,11.77,7.55a1.56,1.56,0,0,0,1.83-1.31c.83-3.07.15-6-.91-8.91-1.35-3.72-5.28-10.11,1.3-11,3.62-.5,7,.74,10.14-1.69,2.59-2,3.07-4.61,1.77-7.5L214.36,335a42.72,42.72,0,0,1,20.18,10l-.22-4.08a52.06,52.06,0,0,0-14.24,12.62c-2.39,3.12-6.47,7.22-3.28,11,2.45,2.87,6.35,2.89,9.58,1.37,5-2.34,6.18-7.4,8.58-11.88,4.29-8,13.07-6.13,20.75-5.77,8.62.4,17.25.67,25.86,1.2,3,.18,4.24-.21,5.61,2.63,1.2,2.5.68,3.26.16,5.77a20.41,20.41,0,0,0-.26,7.39,22,22,0,0,0,7.6,13.41,23.41,23.41,0,0,0,7.05,3.69c6.92,2.57-.43,7.89-3.87,9.58-4.82,2.37-9.28,5-9.51,10.82,0,1.24,1.22,3,2.59,2.82,8-.91,16.6-1.94,24.34,1,7.38,2.81,13.61,10.76,10.07,18.78l2.64-.29a60.52,60.52,0,0,0-14.76-11.28c-1.3-.72-2.45.36-2.36,1.7l1.85,29,1.86-1.9a21.69,21.69,0,0,0-16.73,1.65c-5.56,3-7.67,7.7-10.8,12.83-.72,1.17-1.92,3.14-3.41,3.6-3.05.94-4.7-1.72-6.42-3.4s-3.33-3.08-5.87-3.21c-3.78-.2-6.79,2.25-5.65,6.14a2.8,2.8,0,0,0,2.49,2.21c2.66.09,9.35,2,7.68,6.2-.62,1.57-5.05,4.15-6.17,1.69-1.29-2.83-4.57-1.23-3.28,1.6Z"/><path d="M139.93,431c.69,5.06-4,7.75-8.57,7.27-3.66-.37-7.52-2.9-11.19-3.73a42.2,42.2,0,0,0-18.71,0,.45.45,0,0,0-.38.25,9,9,0,0,1-1.46,5.71l4.28.17c-4.84-1.62-6.65-7.25-11.63-8.92-4.6-1.54-9.93-1.2-14.69-1.07s-33.16.23-31.3,8.21c.48,2,3.2,3.8,4.45,5.36a22.81,22.81,0,0,1,4,7.68,23.73,23.73,0,0,1-.55,15.43c-.82,2.07-2.91,4.24-1.14,6.3.88,1,3,1.47,4.26,1.75,5.17,1.17,14.63-2,17.07,3.79.43,1,5.08,1,4.82.35-2.77-6.59-10.94-4.93-16.52-5.2-1.86-.08-5.2-1.1-5-3.18.08-1,1.1-2.16,1.48-3.12a22.71,22.71,0,0,0,1.51-6.64,24.69,24.69,0,0,0-2-11.54,22.58,22.58,0,0,0-3.13-5.26c-1.3-1.62-4.77-3.89-4.48-6.32.59-4.9,14.57-5.13,18.08-5.52,6.59-.72,16.92-2.7,22.75,1.27,3.21,2.19,4.44,5.64,8.39,7,.81.27,3.69,1.15,4.28.17,1-1.64,1.16-4.78,2.79-5.85,2.1-1.37,6.94-.42,9.09-.11a30,30,0,0,1,6.5,1.62c3.31,1.22,6.56,2.55,10.09,2.92,5.22.56,12.75-1.44,11.85-8.1-.16-1.16-5-1.16-5-.69Z"/><path d="M76,480.13c-3.29,4.34-11.91,1.42-16.63,3.2a7.45,7.45,0,0,0-4.3,3.62c-1.79,3.67,1.62,10.3-4.58,10.25-3.06,0-5.54-.67-8.55.49a13.21,13.21,0,0,0-7.05,6.25c-2.9,5.82,0,12.94,5.64,15.82,2.93,1.5,8.85,1.11,10.55,4.26,1.6,3-.78,6.83,1.6,9.7,3.27,3.94,7.9,1.13,10.46-1.83,2.42-2.8,4.39-5.89,7.32-1.68,1.94,2.77,3.35,5.6,6.47,7.25s6.6,1.77,9.91,1.51c4.71-.37,11.06-3,15.31-.13,1.68,1.14,3.78,4.09,2.64,6.37s-7.35,1.29-9.74,1.5a28.26,28.26,0,0,0-25.07,23c-.25,1.56,1.18,2.22,2.53,2.22h5.07l-2.48-1.23a15.09,15.09,0,0,1-4.29,14.65c-4.08,3.76-9.62,3.29-14.5,5.26-8.76,3.53-14.17,11.95-18.85,19.69-1.46,2.4,2.57,3.23,4,2C50,605.39,60.26,597,72,598.3c8.61,1,17.08,6.12,25.32.78,3.29-2.13,5.61-5.38,7.64-8.66,1.15-1.87,2.52-5.54,5-4.89,1.17.3,2.3,2.08,3.06,2.94,3.3,3.75,6.77,8.54,12.44,6.77L123.29,592a93.57,93.57,0,0,1-46.58,9.1c-3.89-.24-8.74-1.87-12.58-.73-2.94.87-3.21,2.53-3.87,5.19-.48,1.93-.4,2.66-2.33,4-.67.45-1.5.68-2.2,1.08a16,16,0,0,0-3.64,2.75,15.58,15.58,0,0,0-2.72,17.77c1.06,2.11,5.94,1.1,4.76-1.24a12.57,12.57,0,0,1-.33-11c1.7-3.76,4.69-4.8,7.89-6.86,2.56-1.66,2.37-3,3.54-5.43q-.49-2.37,2.5-2.66c1.15.18,2.31.33,3.47.46,2,.23,4.07.39,6.12.49A101.42,101.42,0,0,0,126,595c2.67-1.26.09-4-2.1-3.28-2.69.84-5.47-4-7-5.73s-3.52-3.74-6-4.35c-8.08-2-10.4,9.2-15.06,13.35-5.37,4.78-11.79,2.17-17.87.64a31.22,31.22,0,0,0-13.18-.75c-10.33,1.76-19,8.53-26.91,15l4,2c3.13-5.18,6.41-10.6,11.08-14.56C58,593,63.59,593.43,69.39,591a18.38,18.38,0,0,0,10.45-21.55c-.24-1-1.68-1.23-2.48-1.23H72.3l2.53,2.22a24,24,0,0,1,16.94-19.35c5.34-1.51,15,2.16,17.69-4.67,2.19-5.68-2.63-10.89-7.88-12.07-8-1.79-19.18,5.06-24.87-3-3-4.31-6.3-9.68-12.4-6.59-2.08,1.06-3.52,3-5,4.77-.9,1.07-1.54,2.69-2.7,1.66-.86-.77-.11-5-.27-6.13-1.07-7.75-9.32-5.48-14.1-9a8.79,8.79,0,0,1-.61-13.54c4-3.45,8.47-.43,13-1.53a6.19,6.19,0,0,0,4.9-5.79c.42-4.75-1.15-8.57,5-9,5.61-.37,12,.68,15.88-4.38,1.72-2.26-3-3.49-4.42-1.64Z"/><path d="M51.64,632.91c-10.88-3-22.57-5.95-33.72-2.57C9.57,632.87,2.14,638.74,0,647.48c-.27,1.13,1.4,1.23,2.07,1.23L16,648.65c4.1,0,11.48-1.44,15,.91,7.75,5.25-6.32,12.29-9.69,14.33s-8.16,6.21-8.19,10.73a5.43,5.43,0,0,0,2.38,4.55c3.55,2.76,6.28,4.48,8,9,.46,1.23,2.48.92,3.38.56l25.61-10.43L49.26,677a97.86,97.86,0,0,1-27.09,21.41c-.7.38-1.47,1.45-.45,2,6.31,3.41,13.09,1.34,19-2,6.63-3.8,17.87-14.95,24.88-6.21l.77-1.74a38.84,38.84,0,0,0-18,25.9c-.35,1.85,3.15,1.16,3.92.66,20.33-13.22,46-9.52,68.75-14.45,8.77-1.9,20.38-4.94,25.71-12.86,4.57-6.79.6-16.12-8-15.7l-.71,2.84,14.81-2.14-1.9-1.6c-4,5.37,1.6,11.25,7.23,11.49a18.94,18.94,0,0,0,10.35-3.11c1.77-1.07,3.38-2.35,5-3.55a20.61,20.61,0,0,1,10.95-4.11c5.83-.62,10.8-3,12.91-8.8,2-5.6.49-12-4.62-15.24l-1.64,2.46a65.32,65.32,0,0,1,41.53,4c1.52.67,6-1.39,3.9-2.3a72.23,72.23,0,0,0-46-4.3c-.89.21-3.19,1.48-1.65,2.47,3.68,2.35,5,6.66,4.3,10.86a11.13,11.13,0,0,1-2.13,5.18c-2.4,3-5.65,2.69-9.14,3.13A23.6,23.6,0,0,0,171,675.93c-3.71,2.64-7.11,6.17-11.92,5-3.39-.8-6.24-4-3.62-7.5.9-1.21-1.11-1.71-1.9-1.6L138.77,674c-2.32.34-4.15,3-.71,2.84,3.08-.16,5.15,3.27,5.66,5.81a8.94,8.94,0,0,1-1.9,7.28c-3.07,4.09-8.41,6.13-13.09,7.73-9.48,3.24-19.55,4.22-29.46,5.11-17.25,1.55-35.07,2.84-50,12.54l3.92.66a35.42,35.42,0,0,1,16.12-23.82c.54-.34,1.32-1.07.77-1.75-4.12-5.14-10.93-4.86-16.69-2.9-8.42,2.86-18.64,15.57-27.79,10.63l-.46,2a103.62,103.62,0,0,0,28.62-22.76c1.44-1.63-2.53-1.56-3.2-1.29L25,686.51l3.37.56a18.06,18.06,0,0,0-5.28-7.81c-1.63-1.37-4.4-2.18-5-4.41-.51-2,.76-4,1.9-5.46,4.43-5.71,12.61-6.56,16.54-13,2.94-4.86.21-9.27-5.09-10.3-4.07-.8-8.58-.28-12.7-.26l-15.93.06,2.08,1.23C9.74,627,34,631.59,48.63,635.57c1.64.44,5.76-1.91,3-2.66Z"/><path d="M241.94,657.78a44.13,44.13,0,0,1,34.73-13.73c2.68.17.06-2.59-.85-3.1-6.09-3.41-5.66-12.72-4.22-18.51,1.76-7,6-13.22,8-20.18a28.29,28.29,0,0,0,1-10.75c-.4-4.46-1.34-8.61,1.25-12.64,3.14-4.88,7.23-8,8.61-13.94a27,27,0,0,0-8.78-26c-1.74-1.48-3.77-2.32-5.61-3.6s-3.71-3.25-2.22-5.75a11.64,11.64,0,0,1,4.8-4c5-2.73,9.29-5.4,9.44-11.7s-3.32-12.37-6.75-17.33c-2.58-3.72-5.34-7.31-8-11-1.57-2.15-4.21-4.8-5.08-7.29-.28-.82-.91-4.24.75-4,2.75.35-.37-3.24-1.95-3.45-4.42-.56-3.87,4.72-2.52,7.5,1.73,3.57,4.91,6.87,7.26,10.07,2.92,4,6.09,7.88,8.48,12.22,4.25,7.68,5.4,16.12-3.34,20.76-4.33,2.3-10.89,6.45-7.4,12.26,1.13,1.87,3.18,3,5.07,3.92,3.74,1.84,6.64,4,8.81,7.64A24.2,24.2,0,0,1,285.86,564c-2.09,7.09-9.75,10.89-10.1,18.53-.18,4,1,8,.62,12-.43,4.93-2.42,9.5-4.44,14-5.25,11.61-10.21,27.53,3.63,35.28l-.85-3.1A46.52,46.52,0,0,0,237.78,655c-1.1,1.16,2.88,4.13,4.16,2.78Z"/></g></g></svg>