<svg xmlns="http://www.w3.org/2000/svg" viewBox="0 0 759.67 775.22"><defs><style>.cls-1{fill:#fff;}.cls-2{fill:#662d91;}</style></defs><title>Asset 40</title><g id="Layer_2" data-name="Layer 2"><g id="Layer_1-2" data-name="Layer 1"><path class="cls-1" d="M501,578.37h-1.34a4.64,4.64,0,0,0-3.18,1.32,4.49,4.49,0,0,0,0,6.36,4.66,4.66,0,0,0,3.18,1.32H501a4.64,4.64,0,0,0,3.18-1.32,4.49,4.49,0,0,0,0-6.36,4.68,4.68,0,0,0-3.18-1.32Z"/><path class="cls-1" d="M501,399.8c28.44,1.5,57.12-5.05,85.08-9.47,26.89-4.25,53.84-8.51,79.93-16.5l-18.46-18.45C641.91,376.47,637.07,398,641,419.8c.86,4.78,2.54,9.29,3.76,14,.65,2.48.87,2.92.6,4.75.23-1.51-.23.77-.32,1.07-.31,1.1-.64,2.2-1,3.29-3.34,10.39-7,20.69-10.5,31l22-9c-1.52-.84-1.62-.75-.32.27-1.17-1.23-1.24-1.25-.21,0a24.33,24.33,0,0,1-1.95-3.67c1.2,2.69-1.13-3.32-1.35-3.93-.66-1.82-1.31-3.65-2-5.47q-4.69-13.25-9.06-26.6-4.22-12.88-8.12-25.88-1.95-6.5-3.82-13a49.58,49.58,0,0,1-1.62-6.2c0,1,0,.57-.07-1.35-.37,1.05-.27.65.3-1.21l-25.07,6.62c5.95,7.68,12.35,16.76,18,25.28,4.77,7.13,17.2,11.16,23.56,3,7.67-9.8,12.23-22.74,5.74-34.52-8-14.45-28.3-12.31-34.43,2.34-4.08,9.75-3.44,22.73-2.92,33.15a168.12,168.12,0,0,0,5.44,34.82,15,15,0,0,0,12.47,10.74c6.46.87,11.15-2.22,15-7.16,7.69-10,13.17-26.35,5.11-37.53-8.28-11.47-25.36-10.16-37.64-8.13l16.94,22c6.64-13.45,3.75-28.3-6.18-39.35-9.22-10.26-23.27-13.48-36.43-14.65-28.19-2.51-56.9.66-85,3.26-7.79.72-15.38,6.38-15,15,.34,7.5,6.64,15.77,15,15,23.42-2.17,46.91-4.34,70.45-3.92,5.12.1,10.22.31,15.32.73,2.47.21.14-.06,1.57.2,1,.19,2.09.39,3.12.63s2,.51,3,.83c.63.19,3.29,1.29,1.54.46.95.45,1.84,1,2.76,1.51,2.36,1.29,0-.24.93.68.19.19,2.05,2.2,1.13,1.06s.64,1.08.79,1.33c.63,1.1.91,2.76.42.79a25.29,25.29,0,0,1,.64,2.6c-.42-2.85-.53,1-.22-.74.39-2.17-1.4,2.63.18-.56-6.11,12.38,3.89,24.19,16.94,22a40,40,0,0,1,6.63-.23c.89,0,4.07-.42,2.07.08l1.22.29q-3.39-.9-3.63-5.17c-3.13-6.29-2-5.47-2.86-2.21-.13.49-1.12,3.49-.45,1.84a31.17,31.17,0,0,1-4.34,7l27.42,3.58a124.21,124.21,0,0,1-4.37-26.84c-.23-4.73-.24-9.48,0-14.21.13-2.51.21-5.08.57-7.56-.23,1.28-.19,1.14.14-.4a19.94,19.94,0,0,1-1.34,2.65l-6.62,3.86q-9.11.48-11.92-5.89a3.56,3.56,0,0,1-.16-2.36c-.58,1.71-.59,2,0,.84-1,1.49-1.07,1.79-.23.89l23.56,3c-7.19-10.75-14.83-21.13-22.74-31.35-7.2-9.31-22.3-3.18-25.07,6.61-3.29,11.57.81,22.95,4.09,34q4.7,15.8,9.83,31.44,5,15.18,10.42,30.22c3.51,9.73,7.47,20.68,17.61,25.31,9.12,4.16,18.7.88,22-9,3.41-10.06,6.89-20.11,10.23-30.21,1.67-5,3-10.45,2.62-15.8-.38-5.92-2.05-11.32-3.69-16.95-5.3-18.18-.19-36.75,4.83-55.57,2.88-10.78-7.35-21.84-18.45-18.45-25.47,7.8-51.78,12.05-78,16.2s-52.41,10.1-79,8.7c-7.85-.42-15.35,7.19-15,15,.38,8.48,6.59,14.55,15,15Z"/><path class="cls-1" d="M487.63,392.9q2.82,45.51,5.24,91,1.2,22.68,2.31,45.35c.67,13.48,1.61,28.37-.59,40.81-2.6,14.79,13.36,24.82,25.08,14.59,3.62-3.16,8.22-4.72,13.94-4.66V550l-12.93,1.7c-7.5,1-13.66,5-14.74,13a15,15,0,0,0,10.75,16.46c17.25,4.51,33.26-1.86,49.84-5.92,15.43-3.78,29.77-5.52,45.35-7,16.72-1.62,33.44-3,50.09-5.24,5-.69,9.44-2.49,12.65-6.65,3.51-4.54,3.68-9.55,3.19-15q-1.14-12.51-2.27-25c-1.61-17.88-3.52-34.9-19.08-46.23-6.55-4.77-16.72-1.12-20.52,5.38-4.44,7.59-1.19,15.74,5.38,20.52-2.07-1.51.73,1.18-.24-.18s.62,1,.76,1.22c.55.94,1.28,2.73.53.75.34.87.62,1.77.88,2.66a57.87,57.87,0,0,1,1.49,7c-.25-1.58-.11-.89,0,.28l.36,3.78c.53,5.78,1,11.56,1.57,17.33l.78,8.67.35,3.85.26,2.89c.08,1.61.18,1.29.31-1l6.89-9c1.22-.84,2.73-.77-.22-.39l-3.63.44q-4.21.51-8.45.94c-5.65.59-11.3,1.11-17,1.63-12.28,1.12-24.55,2.25-36.77,3.89A277.6,277.6,0,0,0,554,547.51c-5.34,1.44-10.6,3.16-16,4.39s-8.61,1.59-13.33.36l-4,29.47,12.93-1.7c7.75-1,15.4-6.17,15-15-.36-8.2-6.59-14.91-15-15-13.25-.14-25.25,4.8-35.16,13.45l25.07,14.59c2.7-15.28,2.56-30.44,1.8-45.88s-1.53-30.85-2.34-46.27q-2.46-46.51-5.35-93c-.49-7.82-6.55-15.38-15-15-7.71.34-15.52,6.61-15,15Z"/><path class="cls-1" d="M549.63,474.25l1.72-.24-12,1.61a32.54,32.54,0,0,1,5.13.14l-12-1.61a41,41,0,0,1,8.32,2.46l-10.75-4.54a128.25,128.25,0,0,1,23.53,14.27l-9.1-7a57.66,57.66,0,0,1,9.49,9.18l-7-9.11c4.17,5.65,6.62,12.24,10.43,18.11a96.72,96.72,0,0,0,11.95,15.17,97.87,97.87,0,0,1,7.34,7.63l-7-9.1a24.21,24.21,0,0,1,2.13,3.74l-4.53-10.75c1.28,3.34,2,6.86,3.08,10.25,3.13,9.37,8,19.57,15.77,26.05L618,463.65a294.66,294.66,0,0,0-76.46,11.84l55.35,55.36c1.52-10.56,3.13-21,2.68-31.7s-2.45-21-4.19-31.46l1.61,12a14,14,0,0,1-.08-3.6l-1.61,12,.4-1.75L591.13,497a9.48,9.48,0,0,1,1.36-2.55l-7,9.11a54.55,54.55,0,0,1,8.84-8.06l-9.11,7c17.57-13.56,35.42-24.89,47.14-44.41,6-9.94,7.6-23.54,4.53-34.67-2.87-10.44-10.94-21.75-20.68-26.9-21.78-11.5-48.62-5.42-61.57,16.15a55,55,0,0,1-3.34,4.95l7-9.1a77.73,77.73,0,0,1-13,12.35l9.11-7c-9.87,7.57-20.48,14.38-29.62,22.84a55,55,0,0,0-17.15,33.33c-1.1,8.21-.28,15.09,1.19,23.37.55,3.08,1.16,6.13,1.58,9.23l-1.61-12a109.83,109.83,0,0,1-.1,26.32l1.6-12-.26,1.86a45,45,0,0,0,11.57,43.78c11.16,11.17,28.48,16.14,43.78,11.58A252.85,252.85,0,0,1,603.82,554l-12,1.61a256.37,256.37,0,0,1,26.12-2c18.11-.46,34.07-10.95,41.12-27.67a42.93,42.93,0,0,0,3.07-23.32c-1.22-9.07-5-19.75-12.37-25.83a9.79,9.79,0,0,1-1.84-1.74l7,9.1a19.09,19.09,0,0,1-1.9-3.24l4.54,10.75C654.4,483.34,653,475,648.26,467,643.19,458.33,636,453,630,445.55l7,9.11c-4.13-5.64-6.57-12.22-10.38-18.05-8.28-12.67-17.34-20.72-29.54-29.47A134.88,134.88,0,0,0,578,395.49c-6.3-3.08-12.92-6.2-19.81-7.82-12.51-3-19.88-1.93-32.47-.21-10.32,1.41-21.91,12.17-26.89,20.68-5.65,9.65-8,23.86-4.54,34.68s10.27,21.39,20.68,26.89l10.75,4.54a45.4,45.4,0,0,0,23.93,0Z"/><path class="cls-1" d="M670.85,352.52a14.57,14.57,0,0,0,7.1-3.59l-7.07-5.45a27,27,0,0,0-3.65,9.37,4.64,4.64,0,0,0,3.14,5.54c2.2.6,5.09-.74,5.54-3.15,1.15-6.1-3.39-9.67-8.85-10.88l1.07,8.23a20,20,0,0,1,9.51-2.45c5.79-.06,5.8-9.06,0-9a29.9,29.9,0,0,0-14,3.67c-3.31,1.8-2.7,7.4,1.08,8.23a9.88,9.88,0,0,0,2.29.61c.9-.21-.23,1.88.27-.8l8.68,2.39a20.19,20.19,0,0,1,2.74-7.22c2.82-4.54-3.35-8.67-7.06-5.45a6.07,6.07,0,0,1-3.14,1.28c-2.39.42-3.74,3.35-3.14,5.53.7,2.53,3.13,3.57,5.54,3.14Z"/><path class="cls-2" d="M409,772.11c15.32,0,15.34-23.82,0-23.82s-15.35,23.82,0,23.82Z"/><path class="cls-2" d="M410.33,354.19l4.93,73.32,2.4,35.67c.88,13,0,27.64,10,37.56,5.42,5.37,15,7.06,21.64,2.79,6.36-4.1,10.88-12.54,8.21-20.17l-2.15-6.14c-2.34-6.7-9.23-14.09-17.22-13.11-6.34.78-12.12,2.24-16.56,7.28a30.43,30.43,0,0,0-6.63,12.5c-2.29,8.8-.84,18.6.71,27.36,1.3,7.4,3.42,14.62,5,22,.37,1.68.68,3.37,1,5.06,1,5.27-.11-3.32.3,2a60.26,60.26,0,0,1-.17,11.86l35.08-4.75-3.27-14.32c-4.45-19.51-35.94-15.45-35.08,4.74q2.3,53.66.7,107.35c-.38,13,15.68,23,26.88,15.42,13.14-8.91,23.24-22.37,25.75-38.33,1.45-9.19-2.34-19.66-12.47-22-8.55-1.95-20.42,2.61-22,12.48a42.71,42.71,0,0,1-1.56,6.71c-.5,1.54-1.36,2.92-.2.71-.59,1.14-1.18,2.27-1.84,3.37-.18.29-1.9,3-.77,1.36,1.25-1.86-1.21,1.38-1.54,1.73-.7.75-1.46,1.44-2.19,2.15-3.41,3.31,2.69-1.72-1.24,1L455,645.15q1.59-53.67-.7-107.35l-35.08,4.75,3.27,14.33c2,8.66,11.21,13.92,19.59,12.79,9.45-1.27,14.42-8.57,15.49-17.54,1.47-12.39-1.49-24.88-4.44-36.85-.69-2.81-1.39-5.62-2-8.44-.25-1.13-.49-2.26-.7-3.39,0,.12-.81-4.78-.52-2.71s-.19-2.31-.22-2.73c-.08-1.42-.12-2.84-.1-4.27,0-2.41.3-3.2-.18-.35l.34-1.27q-2.19,7.11-11.6,7.71l-17.22-13.11,2.15,6.14,29.85-17.38c.24.24,2,3.46,1.81,3.53a23.94,23.94,0,0,1-.63-2.63c.29,2.25.37,2.7.26,1.35-.05-.56-.09-1.11-.12-1.67l-.27-4-1.13-16.84-2.27-33.69-4.53-67.38c-.62-9.3-7.76-18.31-17.86-17.86-9.13.41-18.53,7.88-17.86,17.86Z"/><path class="cls-2" d="M453.54,663.61l.61-3.58-35.08-4.75q-1.95,23.87-5,47.63c-.6,4.73-.52,4.09-1.19,8.81q-.81,5.78-1.7,11.54c-.56,3.63-1.15,7.25-1.93,10.83-.4,1.78-.83,3.56-1.34,5.31-.17.62-2,6-1,3.46-3,7.16-3.52,15.84,2.8,21.64,5.75,5.29,14.71,7.09,21.64,2.79a101.71,101.71,0,0,1,10.49-5.64c-3.05,1.43,1.84-.68,2.05-.75,1.87-.68,3.77-1.28,5.68-1.82a79.8,79.8,0,0,1,10.82-2.31c-3.64.49,1.27,0,2-.09,2.27-.15,4.54-.19,6.81-.17l-9-33.29c-.37.19-4.36,1.95-2.51,1.24s-2.79.88-2.67.84c-1.09.33-2.19.63-3.29.9-.29.07-5.67,1-2,.54l4.75,35.08c5.32-2.14,10.7-4.11,16.17-5.86,2.58-.82,5.17-1.65,7.8-2.33.57-.15,2.39-.27,2.78-.66-1.94,1.91-8.07-2.34-8.44-2.68V725a6,6,0,0,1,4.81-2.28c1.38,0,1.15-.08-.67-.1-9.35-.37-18.28,8.47-17.86,17.86A18.23,18.23,0,0,0,477,758.38c8.2.32,14.94-3,21.12-8.09,7.22-5.93,6.61-19.24,0-25.25-15.32-13.93-36.53-4.31-53.06,2.34-8.35,3.36-14.07,10.12-12.8,19.6,1.06,7.87,8.73,16.61,17.54,15.48a84.23,84.23,0,0,0,28.47-8.39c6.73-3.4,10.51-13,8.2-20.17-2.43-7.53-9.1-13.07-17.22-13.11a105.37,105.37,0,0,0-55.91,15.66l24.44,24.44c7.3-17.25,9.06-35.67,11.5-54.1q3.39-25.69,5.48-51.51c.73-8.84-7.35-16.45-15.48-17.54s-18.1,4-19.6,12.79l-.61,3.59c-1.57,9.17,2.43,19.68,12.47,22,8.66,2,20.28-2.63,22-12.48Z"/><path class="cls-2" d="M502.2,755.86a50.92,50.92,0,0,1,5.82-1.81c.72-.18,6.46-1,3-.65,3.5-.38,7-.49,10.55-.56a208,208,0,0,0,26-1.69C555.4,750,563,748,570.75,746.26c3.54-.81,7.1-1.55,10.68-2.14-3.27.54,1.74-.18,2.41-.23,2.41-.18,4.81-.21,7.23-.16,9.34.18,18.28-8.35,17.86-17.86-.48-10.68-7.89-16.6-17.86-17.86-19.72-2.49-36.85,8-55.5,11.91-1.07.22-2.15.43-3.23.59,1.82-.27,1.49-.15-.13-.11-2.35.06-4.68.1-7,0-1.18-.07-2.35-.21-3.52-.31,1.94.16.69.12-.53-.07-2.34-.37-4.68-.77-7-1.16-12.14-2-23.42-3.29-35.59-.92-9.33,1.82-15.08,13.27-12.47,22a29.42,29.42,0,0,0,20.56,20.4c8.77,2.44,20.12-3,22-12.47l2.63-13.44c1.78-9.14-2.59-19.71-12.48-22-8.84-2-20.05,2.67-22,12.48l-2.62,13.44,22-12.48,1.77.93c-1.41-.85-1.53-.9-.34-.15,1.2,1.35,2.35,1.78,2.95,3.77l-12.48,22c2.16-.39,2.3-.44.43-.13,1.15-.1,2.31-.15,3.46-.16,2.34,0,4.64.18,7,.34q3.24.38.5,0c1.16.18,2.33.36,3.5.56,2.34.38,4.68.8,7,1.17,11.51,1.85,22,2.65,33.57.55,8.73-1.6,17-5,25.36-7.76a122.12,122.12,0,0,1,12.61-3.39q3.17-.53,0,0c1.06-.1,2.13-.15,3.2-.18a46.32,46.32,0,0,1,6.44.41V708c-17.54-.35-34.1,5.62-51.2,8.43,3.22-.53-2.24.19-2.41.21-2.05.16-4.11.24-6.17.3-3.85.11-7.69.1-11.53.21-9.11.25-18.47,1.09-27.06,4.26s-15.62,12.25-12.47,22c2.77,8.56,12.58,15.94,22,12.47Z"/><path class="cls-2" d="M711.82,449.52c4.25-18.3,2-36.25-6-53.15-3.79-8-14.76-10.49-22.3-7.31-8,3.38-12.85,12.46-10.34,21.07,1,3.32,1.83,6.66,2.5,10.06.3,1.54.59,3.08.81,4.64-.43-3,.24,2.75.24,2.74a111.86,111.86,0,0,1-.34,20.7c-.78,7.45,6.08,15.56,13.11,17.22,16.43,3.87,33.08-7.35,35.94-24.1,1.49-8.69,0-16.84-1.8-25.37-.31-1.49-.58-3-.85-4.49l-.28-1.79c.19,1.46.22,1.54.07.26-.17-3.35-.52-6.66-.55-10-.1-12.79,1.54-25.41,0-38.17-.52-4.24-1.14-8.47-1.72-12.7.35,2.57,0-.34-.16-1.43-.17-1.46-.32-2.92-.41-4.38a65.56,65.56,0,0,1,0-8.64c.29-4.66-1,2.48.42-2,.53-1.65,1-3.27,1.66-4.88l-35.08-4.75c-.8,6.11.24-1.59-.26,1.91-.22,1.58-.44,3.17-.68,4.75-.47,3.16-1,6.33-1.47,9.48q-1.63,9.94-3.57,19.84-3.79,19.31-8.79,38.35H706.3c-.42-2.1.07-1.21,0,.25.06-1,0-2,0-3,0-2,.07-1.28-.2.31.17-1,.36-2,.58-3a95,95,0,0,1,4-12.51c3.52-9.29,6.34-18,7.31-28,.86-8.81-7.46-16.46-15.48-17.54-8.61-1.15-17.33,4.14-19.6,12.8l-7.39,28.13c-2.37,9,3,19.81,12.48,22s19.43-2.81,22-12.48l7.38-28.13-35.08-4.75c.16-1.64.41-2,0-.16-.27,1.27-.54,2.53-.87,3.78-.54,2-1.18,4-1.87,6-1.55,4.48-3.37,8.85-4.94,13.31-3.73,10.62-5,21.36-2.75,32.45,3.55,17.61,30.16,16.42,34.44,0a680.08,680.08,0,0,0,16.05-83.82c1.15-8.76-7.68-16.49-15.48-17.54-9.41-1.26-16.24,4.41-19.6,12.79-4.31,10.76-3.84,22.52-2.35,33.78.29,2.17.58,4.35.88,6.52.06.39.69,4.93.42,2.92-.22-1.69.21,1.73.24,2,.16,1.45.31,2.91.41,4.38a147.47,147.47,0,0,1-.09,16.95c-.55,11.94-.48,23.38,1.39,35.23.44,2.75,1,5.45,1.6,8.18.08.41.89,4.91.68,3.24-.17-1.35,0,2,0,2.3,0,2.3,1-1.83-.24,1.19a12.21,12.21,0,0,1,1.84-3.14c-1.3,1.68-.72.43.54-.16a9.78,9.78,0,0,1,6.33-.69l13.11,17.22a124.29,124.29,0,0,0-4.49-47.63L675,414.4c2.25,4.75-.83-3.06.8,1.94.35,1.07.72,2.13,1,3.21.46,1.63.8,3.26,1.18,4.91.75,3.26.13-.9.19,1.09.09,2.81.32,5.58.18,8.41-.07,1.33-.33,3.74,0,1.11-.23,1.67-.61,3.31-1,4.95-2.11,9.08,2.81,19.77,12.47,22,9.12,2.08,19.71-2.74,22-12.47Z"/><path class="cls-2" d="M706.68,76.58c-1.88,1.69-3.81,3.29-5.75,4.9-2.32,2,3.25-2.31-1,.78-.9.65-1.81,1.31-2.72,1.95-4.13,2.9-8.38,5.62-12.67,8.28-8.59,5.32-17.36,10.38-25.69,16.11a257.65,257.65,0,0,0-24.48,19.74q-2.67,2.35-5.42,4.63c-2.53,2.1.94-.49-.74.55-.87.54-1.69,1.19-2.56,1.76-1.94,1.26-4,2.3-6,3.38,1.46-.77,1.72-.59,0-.08-1.49.44-2.94.85-4.47,1.18-19.47,4.26-15.46,36.36,4.75,35.08,14.6-.92,25.06-9.21,30.29-22.67,2.72-7-1.76-16.76-8.21-20.17-6.75-3.56-16.25-3.26-21.64,2.8a63.56,63.56,0,0,1-5.1,5.15c-1,.85-2.82,2.22-.77.75-1.09.78-2.21,1.53-3.35,2.24a68.63,68.63,0,0,1-6.38,3.44c1.61-.78,1.23-.46-.2,0s-3.06,1-4.62,1.43c-9,2.5-15.45,12.77-12.47,22s12.32,15.15,22,12.47a75.5,75.5,0,0,0,36.18-22.22l-29.85-17.37a5.27,5.27,0,0,1,1.7-3q-1.87,1.77-.38.46a3.7,3.7,0,0,1,2.31-1.14c-2,.51-1.83.55.53.1l4.75,35.08c11.8-2.58,21.61-9.38,30.73-17,3.87-3.22,7.54-6.65,11.34-9.95,1.83-1.6,3.68-3.17,5.6-4.67-2,1.54.21-.1,1.08-.74,1.14-.82,2.28-1.63,3.44-2.42,18.39-12.64,38.38-22.56,55.1-37.6,7-6.27,6.85-19,0-25.26-7.44-6.82-17.83-6.68-25.26,0Z"/><path class="cls-2" d="M601,151.58a56.68,56.68,0,0,1-4.66,4.38c2.84-2.33-2.32,1.4-2.94,1.76s-6.5,3-2.93,1.65a56.64,56.64,0,0,1-6.1,1.9l13.76,32.64,25.37-12.6-18-30.85L417.09,248c-5.23,2.71-9.23,9.5-8.84,15.42l5.23,80.18c.6,9.3,7.78,18.31,17.86,17.86,9.15-.41,18.51-7.88,17.86-17.86L444,263.38l-8.85,15.42,188.42-97.49C631.85,177,635,164.69,630,156.87c-5.53-8.58-15.47-10.86-24.44-6.41l-25.37,12.61c-7.95,4-10.54,14.64-7.31,22.3a17.89,17.89,0,0,0,21.07,10.34,69,69,0,0,0,32.39-18.87c6.5-6.72,7.2-18.65,0-25.26-7-6.45-18.32-7.17-25.25,0Z"/><path class="cls-2" d="M505.71,620.62l6.41.07L499,614.76,510.36,675l42-14.16L494,585c-2.16-2.81-8.65-3.46-11.63-3.43a46,46,0,0,0-14.18,2.51c-6.74,2.27-16.53,6.7-16.16,15.07.32,7.19,7.15,12.17,13.48,14,9.43,2.75,18.86,1.76,28.49.83,14.7-1.42,29.4-2.87,44.06-4.62,30.26-3.61,64.1-6.52,88.38-26.94,3.3-2.78,6.59-7.5,2.93-11.43s-12.22-4-17.09-3.06l-57.91,10.69-29,5.34c-11.61,2.15-23.3,4-34.39,8.17-18.23,6.89-32.33,20.35-39.2,38.63-6.42,17.1-4.79,36.28-3.38,54.11.53,6.72,14.73,6.15,18.59,5.56,8.42-1.29,17.78-4.4,23.29-11.26A36.6,36.6,0,0,0,498,650.58l-39.12,16c9.17,3.64,15.63,10.44,22.69,18.95s13.48,17.3,21.89,24.41c5.83,4.93,16.22,3.84,23,1.88s16.7-5.62,18.95-13.11a283.69,283.69,0,0,0,10-47.82L512,659.61l19.22,34.3c3.19,5.68,9.82,6.14,15.86,5.74,7.91-.52,17.1-3.1,23.18-8.47,10.61-9.38,9.86-22.42,6.82-35.21a85.25,85.25,0,0,0-16.13-32.53L523.29,642c13.13,8.15,24.92,20,34.91,32.13,5.26,6.39,10.13,13.07,14.83,19.89s9.56,12.81,17.37,16.27c7,3.09,16.16,1.36,23-.93,5.55-1.87,14.49-5.67,16.11-12.15,7-27.88,6.76-56.77,6.56-85.32l-43.46,11.65a373.68,373.68,0,0,1,7.32,58.87c.39,9.1.59,18.26.09,27.36A50.55,50.55,0,0,1,598.51,720c-.15.55-1.91,4.91-1,3.16a17.19,17.19,0,0,1-1.46,2.14,8.28,8.28,0,0,1,2.93-2.28c-4.76,3.25-12.87,10-5.48,15.13,7,4.87,20.29,2.43,27.22-1,2.21-1.08,4.43-2.11,6.7-3l1.72-.67c2.45-.88,2.3-.84-.47.12,1.08-.78,4-1.13,5.31-1.47q3.83-.87-.48,0c1.21-.22,2.42-.41,3.63-.58l-18.54-8.49-1.51,4.8c-2.86,9.11,14.13,9.33,18.54,8.49l57.06-10.87-14.17-14.49c-5.15,3.91-8.46,9.63-7.22,16.17.84,4.48,7.17,5.41,10.71,5.72a39.24,39.24,0,0,0,19.44-3.25c1-.5,2-1,3.1-1.4q3.6-1.38-.87.18c1.08-.33,2.18-.63,3.28-.9q-4.23.78-1.7.36c.84-.15,1.68-.26,2.53-.36,2.39-.22,2.26-.22-.37,0,1.14,0,2.27,0,3.41,0q-3-.35.26,0c8.84,1.09,19.11-.62,26.76-5.46,5.09-3.21,10.86-8,6.9-14.2-3.66-5.71-3.92-14-3.83-20.53.13-8.14.56-16.25.28-24.4-.63-18.52-2.21-37-3.4-55.53-2.32-36.18-4.51-72.37-7-108.53-1.36-19.87-3.22-39.73-7.76-59.16-1.4-6-11.59-6-15.86-5.75-8.2.54-16.7,3.28-23.17,8.47C669.21,454.52,666.63,472,668,489.9c1.41,18.17,3.51,36.31,5.29,54.45.33,3.36,5.92,5,8.3,5.51,5,1,11.32.28,16.17-1.12,7-2,19.9-6.77,19-16q-2.4-24.44-4.79-48.88c-.7-7.27-1.43-14.56,0-21.78a32.55,32.55,0,0,1,2.78-8.69c-.57,1.08,1.34-1.88,1.5-2.18q1.82-2.15.1-.41a23.69,23.69,0,0,1,2.29-2l-39,2.73c8.17,34.95,8.57,71.53,10.86,107.21,2.38,37,5.26,74,7.08,111,.48,9.82,0,19.54-.07,29.36,0,9.55,1.64,17.44,6.83,25.54L738,705a97.63,97.63,0,0,0-53.34,8.09l30.14,2.47c0-.12-2.21,2.12-1.63,1.68,3.45-2.61,6.48-7.61,2.93-11.43-3.76-4-12.24-4-17.09-3.06l-57,10.87,18.54,8.49,1.51-4.8c2.9-9.22-14.17-9.14-18.54-8.49a135.5,135.5,0,0,0-39.53,11.79l21.75,14.17c9.06-6.2,15.27-13.59,17-24.65,1.65-10.32,1.12-21.24.89-31.66A372.47,372.47,0,0,0,636,611.84c-.7-3.42-5.54-5-8.3-5.51-5-1-11.32-.28-16.17,1.13-7.66,2.23-19.06,6.59-19,16,.18,26.66,0,53.44-6.47,79.47l39.07-13.08c-5.27-2.34-9.58-9.59-13.56-15.29-4.73-6.78-9.72-13.4-15.08-19.7a162.87,162.87,0,0,0-38.47-33.3c-3.42-2.13-10.62-1.77-14.24-1.21a47.74,47.74,0,0,0-14,4.3c-5.27,2.6-14.61,8.72-9.36,15.41a70.07,70.07,0,0,1,12.29,24.35,74.2,74.2,0,0,1,2.57,13.7,20.82,20.82,0,0,1,.1,4.45c-.12,1.06-.75,2.38-.77,3.42s-.17,0,1-1l39-2.72L555.42,648c-4.1-7.32-14.43-6.41-21.53-5a40.55,40.55,0,0,0-13.53,4.93c-3,1.89-7.89,4.89-8.35,8.77a284.5,284.5,0,0,1-10,47.82L544,693.28c-17.72-15-27.62-38.08-50.27-47.06-7.81-3.1-18.29-1.43-25.8,1.89-5.43,2.4-14.37,6.91-13.32,14.12A21.19,21.19,0,0,1,450,679l41.88-5.7c-1.25-15.68-2.49-31.72,2.77-46.86a41.07,41.07,0,0,1,8.7-14.86c-1.84,2.06.78-.54,1.32-1.1,2.69-2.76-2.5.87.75-.65q2.91-1.63-.8.24c1.05-.47,2.12-.89,3.2-1.28l-2.4.86c1.11-.31,2.22-.6,3.34-.87,5.66-1.52-4.85.83.92-.22l6.52-1.2L528.75,605l25.1-4.63L606,590.74l-14.16-14.49c-.37.31-3.84,3-1.79,1.53,1.81-1.27-1,.55-1.34.75-4,2.31,0,.41,0,.11a21.71,21.71,0,0,1-2.93,1.24c-3.94,1.69,3.15-.82.39-.08-1,.28-2.06.61-3.1.89-1.3.36-2.61.65-3.92,1-2.91.74-.26-.18,1.11-.18-5,0-10.5,1.76-15.41,2.46q-9.25,1.31-18.54,2.43c-11.73,1.41-23.48,2.64-35.24,3.8l-8.82.86-3.92.38c.06,0-5.59.24-2.78.27s-2.11-.84-.16-.11c.13,0,2.3,0,2.13.47,0-.09-1.77-1.73-1.91-2,.23.46-.1-2.46-.1-2.54l-42,14.15,58.35,75.81c2.16,2.81,8.64,3.46,11.62,3.42a45.68,45.68,0,0,0,14.18-2.5c5.87-2,17.68-7,16.16-15.07l-11.36-60.19c-1-5.17-9.26-5.89-13.12-5.93l-6.41-.07c-9.53-.11-23,3.31-28.76,11.62s5,11.81,11.54,11.88Z"/><path class="cls-2" d="M608.83,418a4.32,4.32,0,0,0-1.22-2.08,17,17,0,0,0-2.07-5.72c-1.35-2.33-4.38-1-4.66,1.26a11.06,11.06,0,0,1-.75,2.7,2,2,0,0,0,.12,1.64,4.07,4.07,0,0,0-1.06,2.2c-.24,1.41-3.37,3.59-4.33,4.82-1.58,2-3.05,4.14-4.54,6.23-2.76,3.85-6.23,7.69-8.2,12a5.66,5.66,0,0,0-.42,3.52,10.23,10.23,0,0,0-2,6.3c-.06,1.57-.14,3.11-.27,4.64a12.06,12.06,0,0,0-.92,6.82c.25,2.59,4.29,3.64,4.91.66.43-2.12.78-4.26,1-6.41.56-.64,1.23-1.2,1.72-1.86,1.12-1.51,1.54-4,3.36-4.8a2,2,0,0,0,1.07-2.85,38.88,38.88,0,0,0,10.79-8.44,7.07,7.07,0,0,0,.5-.65,15.28,15.28,0,0,0,4.18-2.69C611,430.68,610.34,424,608.83,418Z"/><path class="cls-2" d="M590.63,417.71c-.22-2.69-2.45-5.46-1.81-8.16.75-3.13-4.07-4.46-4.82-1.33a9.34,9.34,0,0,0-.26,2.39,2.45,2.45,0,0,0-1,.86c-4,6.17-8.6,12.29-12.21,18.79a39.88,39.88,0,0,0-8.19,13.5c-4.24,11.39.68,19.44,8.68,27.46a2.51,2.51,0,0,0,3.93-3c-6.38-11.24-2.07-24,5.08-33.73,2.88-3.91,7.08-7.18,9.4-11.46A9.17,9.17,0,0,0,590.63,417.71Z"/><path class="cls-2" d="M564.39,472.45c-7.1-3.39-12-9.09-12.93-16.25a2.44,2.44,0,0,0,2-2.33c.5-9.26,8.88-15.64,6.78-25.45-.62-2.91-4.71-2-4.91.66-.43,5.71-4.81,8.21-6.82,13.05a30.85,30.85,0,0,0-2.21,15c1.16,8.84,7.76,15.94,15.57,19.67C564.75,478.14,567.29,473.83,564.39,472.45Z"/><path class="cls-2" d="M616.84,431.58c-.17.74-.36,1.47-.56,2.2a2.53,2.53,0,0,0-.77.48c-6.33,5.75-13.13,11.28-18.94,17.56-5.32,5.75-8.28,12.54-11,19.77-.87,2.27,1.91,3.62,3.67,2.83,8-3.61,15.82-10.68,21.22-17.56a59.54,59.54,0,0,0,11.24-23.95C622.36,429.78,617.54,428.44,616.84,431.58Z"/><path class="cls-2" d="M595.66,483.16c-1.92-6.91-11.71-3.57-16.6-2.52-4,.85-14.84,1.19-13,7.72a2.53,2.53,0,0,0,3.07,1.75c4.6-1.34,9.14-2.6,13.77-3.53a2.58,2.58,0,0,0,1.48.59,13.35,13.35,0,0,0,7.26-1.4C593.28,487,596.36,485.7,595.66,483.16Z"/><path class="cls-2" d="M585.65,492.92l-9.71.45a2.53,2.53,0,0,0-2.16,3.76c3.34,5.65,2.53,14.35,3,20.73q.78,10.46,1.55,20.91a2.5,2.5,0,0,0,5,0l1.86-20c.3-3.17.59-6.35.89-9.52.27-3,1.31-6.81.75-9.75a4.53,4.53,0,0,0-.66-1.64C588.84,497.2,588.68,492.78,585.65,492.92Z"/><path class="cls-2" d="M742,690.92c-.08-.58-.84-6-.41-2.9s-.38-2.95-.38-2.9q-.57-4.43-1.13-8.85-1.17-9.33-2.23-18.69-2.13-18.71-3.81-37.45-3.37-37.5-5-75.12c-.49-11.25-8.19-20.58-19.51-22.1-8.43-1.13-17.59,2.85-22.18,10.1a22.81,22.81,0,0,0-11.84,12.91c-5.41,0-10.28,2.12-14.79,5.48-13.62,1.28-25.86,9.73-38.08,15.25l-4.17,1.85-.27.12-.24.09c-2.84,1.1-5.65,2.26-8.49,3.33q-8.55,3.21-17.28,5.89a310.19,310.19,0,0,1-36.34,8.8c-8.63,1.56-15,10.66-16.12,18.71a22.58,22.58,0,0,0,10.74,22.42q9.24,5.46,18.46,10.92c-.92,1.87-1.83,3.75-2.77,5.62Q553.8,669,540,692.73q-3.15.27-6.32.71c-1.86.25-3.71.53-5.56.81a17.52,17.52,0,0,0,1.83-1c10.28-6.62,14.4-19.88,8.08-30.78l-5-8.68A22,22,0,0,0,516.53,643c-7.56-1-13.12,1.52-18.9,6.19l-6.14,4.95a23.31,23.31,0,0,0-4.34-.64c-5.26-5.53-13.14-8.21-21.88-6.16-14.65,3.45-27.44,14.5-34.2,27.81-7.27,14.34-8.82,30-9.65,45.8-.47,8.88,6,17.28,13.83,20.57,7.61,3.21,19,2.25,24.58-4.66,1.12-1.37,2.36-2.58,3.58-3.85.93-.5,2.94-1.27,4.1-2l.46-.15c.56-.15,1.12-.27,1.68-.4,1.06,0,2.22-.19,3.22-.17.32,0,.63.05.94.06.67.23,2.42.9,3.31,1.08.61.33,1.22.66,1.82,1,1.44.82,2.85,1.71,4.32,2.47a51.3,51.3,0,0,0,15.36,5.34c11,1.84,21.3.66,32.25-1.11,1.69-.27,3.37-.56,5.06-.85,1.47-.24,8.4-2.26,2.37-.46a52.42,52.42,0,0,1,8.63-.86l.69.13a22.65,22.65,0,0,1,2.31.51c.49.16.85.28,1.11.35l.85.47c4.39,2.41,8.81,4.78,13.75,5.83,26.82,5.72,40.12-22.94,45.05-44.35,2.06-8.95-.71-18-8.06-23.65-.56-.43-1.12-.82-1.69-1.18q4.66-9,9.13-18.19c2.18-4.49,4.64-9,6.29-13.73a22.83,22.83,0,0,0,3.13,5.43,22.31,22.31,0,0,0,5.47,5.06c-5.5,8.22-6.13,18.46.32,26.79a20,20,0,0,0,2.43,2.63l-1.54,1.12c-7.89,5.65-13.58,15.37-10.34,25.41,2.89,8.91,11.65,17.33,21.7,16.52l82.75-6.71c7.3-.6,13.12-3,17.67-8.87C742.7,704.38,743,698.36,742,690.92Zm-231.53,5.43,1.47-1.19a24.44,24.44,0,0,0,4.13.94l-.12,0-2.81.21C512.23,696.37,511.34,696.36,510.45,696.35ZM547.05,737c1.4,0,2.44.11,2.62.42ZM617.32,625a27.71,27.71,0,0,0-3-7c3.85-1.34,7.68-2.74,11.48-4.23L621.25,619A27.86,27.86,0,0,0,617.32,625Z"/><path class="cls-2" d="M697.28,217.05A22.52,22.52,0,0,0,722,200.93a462,462,0,0,0,16.29-95.34c.79-11.77-10.91-23-22.5-22.5-12.86.57-21.65,9.89-22.5,22.5-.5,7.55-1.17,15.1-2.07,22.62-.06.53-.24,2-.35,2.94s-.31,2.18-.47,3.27q-.84,5.63-1.82,11.21c-.24,1.4-.5,2.79-.76,4.18a26.72,26.72,0,0,0-6.37,1.08c-10,3-17.08,10.19-24.21,17.41-2.4,2.43-4.76,4.9-7.1,7.38a20.76,20.76,0,0,0-13.32,6.38,116.64,116.64,0,0,0-20.89,31.32,29.08,29.08,0,0,0-3.07.25c-6.21.83-11.11,3.69-15.43,7.68a31.82,31.82,0,0,0-4.37.05c-15.64,1.37-31,9.91-38,24.52-3.54,7.43-4.33,15.31,0,22.71,3.8,6.49,11.66,11.66,19.43,11.14a183,183,0,0,0,41.35-7.2,207.6,207.6,0,0,0,21.42-8.19l.17-.08c9.33,4.47,20,4.78,29.08-.64a39.89,39.89,0,0,0,4.17-2.91l4.76,3,12.66,7.83a23.51,23.51,0,0,0,10,8.78c-19.64-2.17-38.62.09-58,4.7-18.52,4.41-36.87,9.58-55.27,14.43l-107.7,28.37c-6.52.42-13.24.84-19.31,2.75-11.41,3.57-21.22,11.74-24.37,23.65-2.42,9.17-.64,18.56.32,27.8q3.75,36,7.49,72c0,.35-.07.71-.12,1.07-.07.61-.15,1.22-.23,1.84,0,.29-.12.83-.23,1.62-.71,4.4-1.38,8.79-2.18,13.16-4.87,26.41-18.89,61.7-2.56,85.12l-5.49,24.47c-3.25,14.45,6.58,28.1,21.69,28.48,21.23.53,39.19-16.95,43-37.17,3.38-17.89-.34-36.45-2.2-54.33l-6.72-64.56A390.13,390.13,0,0,0,486.9,372q8.89-.83,17.78-1.76c35.48-3.81,70.85-9,105.9-15.75q28.62-5.5,57-12.37c18-4.37,40.61-9.2,48.92-28.16,3-6.85,4.14-12.91,1.14-20-2-4.68-5.91-9.64-10.86-11.9H707c12.26-.55,22.4-9.88,22.5-22.5l.09-12.77c.09-11.22-8.63-20.63-19.51-22.1a22.49,22.49,0,0,0-10.46,1.07l-1.47-.91c-6.72-4.17-13.37-8.81-21.16-10.77-.32-.08-.63-.13-.94-.2,1.87-2.06,3.77-4.1,5.68-6.13A24.23,24.23,0,0,0,697.28,217.05Z"/><path d="M750.78.31C648.29,57.74,551.79,124.71,454,189.66c-96.61,64.19-196,124-293.57,186.68C106.38,411.09,52.87,446.81,1.19,485.07-3,488.17,5,500.84,8.78,498c93.19-69,192-129.86,290.28-191.25,48.67-30.42,97.23-61,145.14-92.61,48.83-32.22,97.16-65.19,146-97.38,55-36.22,110.71-71.32,168.16-103.51,4.32-2.42-3.15-15.42-7.59-12.94Z"/><path d="M396,250.94c12.13,1.68,23.27-2.88,34-8,12.12-5.8,24.17-11.75,36.22-17.68,24.39-12,48.69-24.21,72.68-37,23.18-12.35,46-25.34,68-39.79,22.46-14.8,44.41-30.4,66.54-45.69,21.91-15.14,44.45-30.17,61.15-51.27,1.54-2-1.34-6-3-3.9C717,66,698,79.71,678.93,92.94c-21.71,15-43.36,30.2-65.24,45-43.22,29.22-89.71,53-136.37,76.23q-19.44,9.65-39,19.13c-13.14,6.4-27.28,15-42.46,12.9-2.92-.4-2.38,4.41.08,4.75Z"/><path d="M410,248.7c-4.37,68.53,2.46,137.44,4.53,206s3,137.36,1.1,205.91c-.51,18.62-1.78,36.8-5.65,55.05-3.78,17.9-9,35.46-13.76,53.1-.55,2,4.34,1.33,4.85-.54,8.46-31.19,17.63-62,18.95-94.45,1.38-34,1.12-68.09,1.12-102.13,0-69-2.15-137.92-5.43-206.84-1.85-38.84-3.33-77.75-.85-116.59.14-2.23-4.73-1.36-4.86.54Z"/><path d="M398.25,775.05c22.28-5.94,44.65-11.92,67.57-14.83,22.76-2.88,45.76-1.45,68.47-4.94,22.47-3.46,44.67-8.59,67.1-12.33s45.23-7,67.92-9.85c26-3.31,51.94-6.23,77.93-9.15,1.74-.19,4.77-3.21,1.54-2.84-46.12,5.18-92.27,10.36-138.11,17.73-22.82,3.67-45.4,8.53-68.16,12.49-23,4-46.2,3-69.38,5.38-25.31,2.61-50,9.2-74.53,15.74-2.22.59-3.62,3.48-.35,2.6Z"/><path d="M734.79,49.18c3.18,31.42,1.87,63-.22,94.45-2.12,32.11-4.49,64.22-6.74,96.33-.16,2.28,4.4,3.76,4.6.9,2.26-32.11,4.62-64.21,6.75-96.33,2.08-31.45,3.39-63,.22-94.45-.23-2.26-4.89-3.72-4.61-.9Z"/><path d="M729.38,238.61c-9.09,62-13.15,125.08-6.46,187.53,1.66,15.5,4.13,30.9,5.69,46.4,1.57,15.72,2.57,31.5,3.71,47.25,2.28,31.61,4.37,63.24,6.07,94.89q2.85,53.36,4.43,106.76c0,1.41,2.28,3.58,2.3,4.24q-2.82-95-9.65-189.78c-2.23-31.43-4.91-62.63-8.87-93.89a619.65,619.65,0,0,1-4.48-93.75c.9-35.31,4.44-70.49,9.56-105.41.19-1.3-2.37-3.77-2.3-4.24Z"/><path d="M488.1,374.11a1393.8,1393.8,0,0,0,196-33.53l-3.22-1.77c-5.84,17.46-11.75,35.31-12.47,53.86-.36,9.42,1.2,18.43,3,27.65,1.75,9,3.32,18.23,1.07,27.32-2,8.25-5.94,15.78-6.95,24.3-1.06,8.88-.08,17.94.58,26.82q2.22,29.55,6.17,58.93l1.71-1.71-10.76,1.86c-3.27.57-1,3.49,1.56,3L675.5,559c.71-.12,1.82-.84,1.71-1.71q-3.8-28.39-6-57c-.75-9.78-2-20-.61-29.73,1.22-8.39,5.41-15.9,7.1-24.16,3.51-17.12-4.53-34.18-4.38-51.36.16-19.22,6.38-37.75,12.41-55.79.59-1.73-2.18-2-3.22-1.77a1385.2,1385.2,0,0,1-194.64,33.31c-3,.29-2.83,3.56.25,3.26Z"/><path d="M665.75,557.71l-148,26.18c-5.59,1-11.95,3.11-17.61,3.11-2.45,0-2.45.55-3.11-1.87-.4-1.45-.13-3.48-.18-5l-.36-10q-.69-18.95-1.4-37.9-1.42-38.38-2.92-76.79-1.68-43.38-3.45-86.76c-.05-1.21-4.59.48-4.54,1.68q4.47,109.7,8.41,219.4c0,.5.5.51.92.43l169.49-30c1-.18,5-3,2.71-2.54Z"/><path class="cls-1" d="M498.58,682.41l8.79-66L499,618.67q20.64,27.3,39.51,55.89c1.91,2.9,7.56,3,8.22-1.07a206.73,206.73,0,0,0,.61-62.18c-.81-5.71-9.48-3.28-8.68,2.39a192.09,192.09,0,0,1-.61,57.4l8.23-1.08q-18.85-28.57-39.51-55.89c-2.81-3.72-7.78-2.27-8.39,2.27l-8.79,66c-.76,5.73,8.24,5.67,9,0Z"/><path class="cls-1" d="M602.42,599.31c-3.53,11.28-14.75,17.68-21.76,26.59-3.95,5-4.2,9.68-4.19,15.87l0,22.77c0,5.79,9,5.8,9,0l0-20.87c0-3.39-.64-7.4,1-10.5,1.23-2.37,3.65-4.49,5.5-6.36,7.55-7.64,15.84-14.48,19.17-25.1,1.73-5.54-7-7.91-8.68-2.4Z"/><path class="cls-1" d="M585.91,629.24,569,604.17c-3.22-4.77-11-.27-7.77,4.55l16.91,25.06c3.22,4.78,11,.28,7.77-4.54Z"/><path class="cls-1" d="M623,594.36c-1.81,7.79-3.3,15.64-4.42,23.55-1,7.17-2.15,14.64-.27,21.77,3,11.49,14.8,19.58,26.6,18.52,12.74-1.15,21.78-11.84,25.86-23.2,5.17-14.38,5-31.39,4.69-46.47-.11-5.78-9.11-5.8-9,0,.24,12.09.12,24.68-2.32,36.56-2,9.75-7,21.06-17.67,23.75-10.14,2.58-19.44-5.56-20.11-15.52-.8-12,2.62-25,5.32-36.57,1.31-5.63-7.37-8-8.68-2.39Z"/><path d="M557.56,419.63c-.34,2.78.32,4.94,1.13,7.59,1.38,4.49,1.07,7.75-1.45,11.73-3,4.71-5.62,9.43-5.7,15.17-.14,10.67,8.47,18.51,17.34,22.86l.94-2.14c-14.13,1.19-25.85-11.37-22.89-25.5,2.25-10.72,12.2-17.94,13.19-29.15.14-1.56-2.82-1.21-2.94.18-1.23,13.81-15.59,22.36-13.38,37.17,1.88,12.58,13.45,20.58,25.79,19.54,1.1-.1,2.36-1.45.94-2.14-10.89-5.34-19.41-16-14.51-28.52,1.66-4.24,5.46-7.69,6.47-12.19,1.16-5.17-2.61-9.64-2-14.79.19-1.54-2.77-1.2-2.94.19Z"/><path d="M585.86,398.16c-.18,6-4.11,11.63-7.18,16.62s-6.51,9.59-9.8,14.36c-5.94,8.62-10.8,18.11-9.27,28.87.17,1.2,3.08.5,2.89-.78-1.74-12.27,5.32-22.53,12.08-32,3.06-4.31,6-8.68,8.68-13.26,2.55-4.38,5.36-8.85,5.52-14,.05-1.4-2.88-.9-2.92.27Z"/><path d="M559.69,458.18c.84,8.71,10.63,14.18,16.8,19.12.68.55,3.11-.1,2.56-1.22-4.57-9.42-6.65-20.51-2.71-30.53,3.61-9.18,10.27-17.56,15.52-25.85.85-1.36-2.1-1.42-2.78-.34-5.74,9.09-13.64,18.6-16.6,29.06-2.7,9.51-.55,19.73,3.67,28.43l2.57-1.22c-5.88-4.72-15.33-10-16.13-18.23-.13-1.33-3-.63-2.9.78Z"/><path d="M592,418.9c-.45-5.93-2.22-11.91-3.44-17.72-.29-1.39-3.2-.64-2.9.78,1.22,5.81,3,11.79,3.45,17.71.1,1.38,3,.68,2.89-.77Z"/><path d="M602.17,406c3.92,6.05,7.69,14.57,7,22-.62,7.07-10.06,11.27-15,15.48a38.24,38.24,0,0,0-10.42,14.82c-2.06,4.92-5.07,11-4.07,16.37.21,1.15,3.12.43,2.9-.78-.7-3.79,1-7.47,2.21-11a56.35,56.35,0,0,1,5-11.08c4.08-6.48,10.42-10.28,16.19-15.06,4.46-3.69,6.43-6.53,5.87-12.37a43.68,43.68,0,0,0-7.11-19.62c-.61-.94-3.4.07-2.67,1.2Z"/><path d="M582.87,472.11c-1.07-5-2.85-10-3.22-15.16-.39-5.54,2.14-9.51,3.41-14.64.17-.68-2.67-.27-2.86.49-1.14,4.59-3.54,8.43-3.51,13.3,0,5.72,2.11,11.24,3.28,16.78.14.67,3,0,2.9-.77Z"/><path d="M583.05,443.07c2.09-5,6.11-9.34,9.27-13.67L602,416.18c.77-1.06-2.13-.85-2.7-.07l-10.78,14.77c-2.93,4-6.38,7.93-8.33,12.55-.39.92,2.49.61,2.9-.36Z"/><path d="M602,415.85q1.38-5,2.36-10.17c.25-1.31-2.69-.89-2.92.28q-1,5.13-2.36,10.16c-.34,1.25,2.61.88,2.92-.27Z"/><path d="M621.24,421.24c-2.08,22.68-12.68,48-37.38,53.11l1.64.51c2.91-6.28,5.5-12.92,9-18.91,3.06-5.28,7.4-9.27,12.09-13.08,7.25-5.91,14.87-11.86,17.31-21.34.26-1-2.64-.59-2.89.38-3,11.47-13.58,17.19-21.67,24.72-8.28,7.7-12.06,18.57-16.72,28.61-.35.77,1.45.55,1.64.51,25.8-5.35,37.69-30.83,39.9-54.89.1-1.13-2.81-.57-2.9.38Z"/><path d="M565.12,482.18c-.13,3.8-2.33,10.11,3,9.21,4.24-.72,8.38-2.17,12.65-2.89A123,123,0,0,1,595.62,487c.51,0,2.07-.3,2.06-1a45,45,0,0,0-.88-7.94c-.06-.3-.64-.28-.84-.26a197.44,197.44,0,0,0-28.89,4.7c-1.71.41-1.44,1.47.28,1,5.74-1.37,11.52-2.51,17.36-3.33,2.31-.33,7-1.88,8.82-.39,1.57,1.3,1.21,5,1.25,6.95l2.06-1a129.17,129.17,0,0,0-18.39,2.14c-2.55.5-5.28,1.55-7.84,1.79-3,.28-2.21-.05-2.79-2.19-.46-1.68.14-4.29.19-6,0-.55-2.86-.15-2.89.78Z"/><path d="M572.61,494.93l16.68-1.42-1.33-.94c-2.38,9.86-2.29,20.08-4.26,30-2,10.11-3.28,19.39-2.63,29.72l2.92-.5a127.74,127.74,0,0,1-6-29.39c-.77-9.43-.36-18.9-3.81-27.88-.5-1.29-3.38-.47-2.9.77,3.45,9,3,18.46,3.81,27.88a128.24,128.24,0,0,0,6,29.4c.37,1.15,3,.68,2.91-.51-.64-10.33.64-19.61,2.64-29.72,2-9.93,1.87-20.15,4.25-30,.17-.71-.85-1-1.33-.94l-16.68,1.43c-1.62.14-2.25,2.26-.27,2.09Z"/><path class="cls-2" d="M526.24,600.13c-4,.54-8.53,3.88-6,8.35,2.06,3.61,7.25,3,10.17.82,3.54-2.6,2.72-8.32-1.27-10.09a5.32,5.32,0,0,0-5,.58c-2.34,1.61-1.63,4.33-.76,6.57.24.61,2.21-.14,2.55-.37l.16-.11s.44-.27.35-.41a1.16,1.16,0,0,0-1.1-.49c-.64,0-2,.2-2.38.83-.82,1.48,2.24,1,2.79.87,1.68-.41,1.48-1.24-.22-.83l.29-.56-2.37.83.09.13.35-.41-.17.11,2.56-.37c-.51-1.3-1.17-2.85-.78-4.28s1.48-1,2.4-.09a5.94,5.94,0,0,1,1.51,6.29c-1.25,3-4.75,2.9-6.31.21a5,5,0,0,1-.56-3.63c.27-1,1.21-2.69,2.36-2.85.44-.06,1.73-.19,1.94-.67s-.17-.5-.67-.43Z"/><path class="cls-2" d="M696.85,268.26c-7.14-.95-12.79-4.19-17.78-9.38l-38.39,15.61c1.35.15,1.54.19.55.11a6.92,6.92,0,0,1,1.29,1.12c.57.81,1.19,1.61,1.76,2.44,1.69,2.47,3.47,5.09,5.92,6.87,4.82,3.51,11.06,4,16.32,6.46,13.74,6.41,11.63,24.68,9.32,36.85L719,318.61l10.29-102.9c.75-7.55,3.6-16-5.63-18.81-7.72-2.33-16.93-2.79-25-2.64a69.22,69.22,0,0,0-27.88,6.29c-4.38,2.06-11.48,5.46-11.19,11.29.15,3.12,2.36,6.12,3.76,8.83l6,11.73c3.24,6.29,19.12,1.69,23.46.62C708,229.3,725.65,221.45,730,205c3.42-13,3.49-27.46,4.57-40.82,1.16-14.2,2-28.43,1.94-42.67,0-13.93-1.34-27.89.84-41.72.31-2-4.65-2.52-5.71-2.66a38.39,38.39,0,0,0-11.91.72c-8,1.55-17.58,3.91-23.75,9.54a123.24,123.24,0,0,0-32,45.74c-3.43,8.79-5.27,18.35-10.1,26.55a25.85,25.85,0,0,1-2.77,4c-.17.19-2.21,2-2.18,2.09a15,15,0,0,1,2.16-1.1l18.66-4.27c1.29.23,1.43.24.42,0-1.27-.59.16.24-1.15-.27a10.24,10.24,0,0,1-4.18-3.05c-4-5.38-15.3-2.47-20.54-1.28a61.67,61.67,0,0,0-13.65,4.48c-2.81,1.37-7.83,3.35-9,6.52a213.34,213.34,0,0,1-16.47,35.66l43.15-9.72c-3.56-7.73-8.07-16.35-16.5-19.51-7.9-2.95-17.32-.63-25.08,1.78-4.69,1.46-17.3,4.91-17.15,11.38l.45,19.91.2,9c.05,2.38,1,6.52-.61,8.45l19.69-10.34-1.12.33,19.62-1.84c-1-.25-5.37-4.64-7.14-5.81a56.41,56.41,0,0,0-9.26-4.95,75.74,75.74,0,0,0-24.39-5.55c-7.9-.57-17,2.12-24.1,5-3.52,1.44-12,4.52-11.78,9.47A230.65,230.65,0,0,0,557,252l39.63-14.11c-8.31-1.75-15.46-7.49-22.64-12.2-8.75-5.73-17.79-9.51-28.37-9.87-8.09-.28-16.7,2-24.09,5-3.59,1.46-11.93,4.49-11.79,9.46.36,12.29,8.44,23.39,12.95,34.5a199.9,199.9,0,0,1,11.07,37.91L577.21,291,541.83,246.6c-7.43-9.33-47,6.42-43.47,11.64,16.32,24.52,45.44,33.24,67,51.83,2.24,1.93,8.67,1.41,11,1.17a71.29,71.29,0,0,0,14.07-2.95c4.38-1.36,17.68-5.06,17.15-11.37a238.09,238.09,0,0,0-6.79-39.76l-42.24,13.15a173.18,173.18,0,0,1,33.29,29.87c1.64,1.91,6.56,1.33,8.68,1.26a58,58,0,0,0,13.54-2.15,77,77,0,0,0,10.74-3.82c1.58-.71,8.51-4,9-6.52a230.44,230.44,0,0,0,3.33-32.09L594.86,270a75.85,75.85,0,0,1,20.62,22.42c3.34,5.57,15.89,2.33,20.54,1.28a62.37,62.37,0,0,0,13.65-4.48c3.07-1.51,7.33-3.3,9-6.53a20.62,20.62,0,0,0,.53-18.2c-3-6.31-18.71-2-23.46-.62-5.12,1.45-10.35,3.15-14.87,6-1.56,1-6.28,3.84-5.14,6.26,2.3,4.87,2.54,9.53.11,14.36l43.14-9.73a86.69,86.69,0,0,0-23.08-25.43c-2.55-1.86-8.33-1.44-11-1.17a71,71,0,0,0-14.06,2.95c-5,1.54-17,4.8-17.15,11.38a204,204,0,0,1-2.7,28.24l41.91-11.23a173.4,173.4,0,0,0-33.28-29.86c-6.12-4.21-19-.11-25.08,1.77-3.59,1.12-18.66,5.57-17.15,11.38a237.8,237.8,0,0,1,6.79,39.75l42.23-13.15c-20.24-17.46-49.27-25.89-64.52-48.81l-43.47,11.64,35.38,44.45c4.66,5.84,17.42,2.32,23.46.61,5.12-1.44,10.35-3.15,14.86-6,2-1.25,5.68-3.45,5.15-6.26a200.11,200.11,0,0,0-11.07-37.91c-4.51-11.1-12.59-22.21-12.95-34.49l-35.88,14.49c2.67.09-.67-.29.86.07,1.06.25,2.12.43,3.17.77.74.25,2.91,1.23,4.07,1.83a111.37,111.37,0,0,1,11,6.82c7.6,5.12,15.3,9.88,24.4,11.8,7.88,1.67,18-.84,25.33-3.61,3.39-1.28,15.51-5.26,14.29-10.49a230.51,230.51,0,0,1-5.78-41.84L558.77,213a22.17,22.17,0,0,1,4.27.67c1.58.34,3.15.73,4.7,1.21a45,45,0,0,1,9.24,4.21,90.66,90.66,0,0,1,9.12,6.67c6.4,4.9,15.38,3.22,22.67,1.58,7.57-1.71,20-4.29,24.1-11.79,1.83-3.37,1-8.12.88-11.84l-.65-28.87L590.86,188c7.55,2.82,10.85,9.58,14,16.49,2.63,5.71,16.53,2.19,20.54,1.28,7-1.57,18.68-4.21,22.61-11a214.84,214.84,0,0,0,16.46-35.66l-43.15,9.72c10.48,14.08,32.91,9.13,47,4.22,14.33-5,25.84-13.58,31.62-27.87,4.62-11.41,7.48-23.1,13.53-33.95a108.06,108.06,0,0,1,21.74-27.36l-41.37,7.6c-1.88,11.92-1.12,23.89-.9,35.9.24,12.29-.21,24.59-1,36.87-.79,11.95-1.91,23.89-3.06,35.82-.52,5.4-.83,10.88-2.75,16A19.8,19.8,0,0,1,683,222c-.48.57-1.93,1.34-2.18,2,.59-1.58,7.13-3.45,8.63-3.81l23.46.62-6-11.74c-1.19-2.31-4.63-7-3.23-9.11l-4.82,4.34,1.07-.64-20.7,7.32,1.27-.24-10,.91c4.5-.08,10.69-.25,15,1.25,1.46.51,1.33.42,1.48,2.61.18,2.59-.43,5.36-.68,7.94L682.64,259l-7.12,71.24c-.54,5.41,19.18,1.58,20.54,1.27a62.34,62.34,0,0,0,13.65-4.47c2.47-1.22,8.39-3.53,9-6.53,2.77-14.54,5.65-34.29-9.9-43-5.68-3.21-13-3.4-18.11-7.53-5.39-4.35-6.16-11-14.19-12-9.39-1.2-19.17,1.11-27.85,4.64-3.35,1.36-15.22,6.1-10.54,11a38.75,38.75,0,0,0,23,11.28c10,1.35,21.3-1.21,30.35-5.65,2.79-1.37,7.86-3.37,9-6.53.87-2.52-1-4-3.52-4.38Z"/><path class="cls-2" d="M508.89,231.49a316.68,316.68,0,0,0-58.68,13.68l58.58,58.58.42-1.3-4.8,11.37a22.06,22.06,0,0,1,2.68-4.63l-7.44,9.64a32.89,32.89,0,0,1,3.91-3.83l-9.64,7.45c7.59-5.81,16.73-9.79,25.19-14.16,9.61-5,19.32-9.72,29.27-14L537,299.12c18.15-7.64,37.86-12.45,54-24.06,11.87-8.52,23.47-17,36.07-24.43,27.75-16.43,56.39-31.83,79.38-54.95a49.18,49.18,0,0,0,14-33.68c0-11.68-5.19-25.63-14-33.68-9.08-8.33-21-14.51-33.68-13.94s-24.59,4.81-33.67,13.94a163.06,163.06,0,0,1-15.81,13.9l9.63-7.45c-16.25,12.37-34.24,22-51.81,32.37-8.69,5.1-17.29,10.37-25.49,16.23-9.22,6.59-17.7,13.76-28.19,18.31l11.38-4.8c-9,3.7-18.21,6.65-27.17,10.39-12.38,5.17-24.56,10.57-36.52,16.65-8.25,4.2-16.74,8.26-24.65,13.08-16.22,9.89-27.7,23.29-33.57,41.43-10.86,33.59,24.7,70,58.59,58.58a317.46,317.46,0,0,1,58.68-13.67c10.92-1.47,23.2-12.9,28.46-21.89,6-10.2,8.51-25.25,4.8-36.69s-10.87-22.65-21.88-28.47l-11.38-4.8a47.92,47.92,0,0,0-25.32,0Z"/><path class="cls-2" d="M615,182.73c9.34,0,18.29-8.22,17.85-17.86S625,147,615,147c-9.35,0-18.3,8.21-17.86,17.86S605,182.73,615,182.73Z"/><path class="cls-1" d="M662.7,547.69a10.24,10.24,0,0,0,1,7.49,4.5,4.5,0,1,0,7.78-4.54,5.06,5.06,0,0,1-.24-.46c.25.64.33.79.22.46s-.15-.58-.2-.89l.16,1.2a7.06,7.06,0,0,1,0-1.3l-.16,1.2c0-.27.09-.51.15-.77a4.5,4.5,0,1,0-8.68-2.39Z"/><path class="cls-1" d="M664.93,547.84a330.49,330.49,0,0,0-39.76,6.9c-5.63,1.34-3.24,10,2.4,8.68a309,309,0,0,1,37.36-6.58c5.69-.65,5.75-9.65,0-9Z"/></g></g></svg>