<svg xmlns="http://www.w3.org/2000/svg" viewBox="0 0 574.04 271.6"><title>Asset 62</title><g id="Layer_2" data-name="Layer 2"><g id="Layer_1-2" data-name="Layer 1"><path d="M277.89,33.67q-9.11,60.15-22.58,119.53c-.45,2,4.12,3.89,4.51,2.15q13.56-59.7,22.74-120.28c.27-1.79-4.34-3.58-4.67-1.4Z"/><path d="M288.88,111.76l6.09-4.42-4.37-2L283.54,152c-.26,1.73,3.2,3,4.37,2,15.31-13.23,23.44-32.12,35.64-47.88l-4.37-2a103.49,103.49,0,0,1-.06,23.47c-.18,1.52,2.33,2.54,3.5,2.38,5.45-.75,8.26-8.46,10.85-12.56l12.68-20-4.62-1.7L341,148.93c0,2,4.69,3.56,4.71,1.3L346.25,97c0-1.82-3.57-3.38-4.63-1.71l-10.14,16-4.57,7.21c-1.42,2.24-3.73,7.61-6.58,8l3.5,2.38a102.35,102.35,0,0,0,.06-23.47c-.15-1.4-3.2-3.54-4.37-2-12.18,15.75-20.36,34.68-35.64,47.89l4.37,2,7.06-46.68c.28-1.83-3.16-2.91-4.37-2L284.85,109c-1.76,1.28,2.42,4,4,2.78Z"/><path d="M303.23,43.92a15.64,15.64,0,0,1-8.48,16c-2.46,1.24.34,5.34,2.57,4.21a19.12,19.12,0,0,0,10.35-19.6c-.32-2.48-4.84-3.77-4.44-.66Z"/><path d="M407.67,43a262,262,0,0,0,46.48-21.06l-3.61-1.21a299.4,299.4,0,0,1-18.91,92q-4,10.56-8.78,20.8c-2.86,6.13-7.14,19.47-16.18,16-8.05-3.11-9.5-12.71-10-20.21-.37-6.16-.94-15,4.88-19,2.69-1.83,0-4.55-2.33-2.95-9.47,6.43-8.46,20.25-6.57,30.24s11.42,20.58,22.28,14.85c5-2.63,7.43-8,9.81-12.79q5.42-10.93,9.89-22.28a301.36,301.36,0,0,0,13.78-44.85,303.8,303.8,0,0,0,7-52.35c.08-1.85-2.49-1.86-3.61-1.21a254.62,254.62,0,0,1-45.25,20.53c-2.93,1-1.86,4.49,1.1,3.48Z"/><path d="M511.86,85.34a178.83,178.83,0,0,0-3.51,24.71c-.37,5.43-2.44,14.7,1.91,19,9.24,9.11,20.58.41,25.92-8.11a87.45,87.45,0,0,0,9.72-21.41c1.64-5.51,2.83-11.85.52-17.35-3.76-8.94-18.32-14.61-27.06-10.49-1.05.5,2.67,3.39,4,2.78,5.63-2.65,15.21-.54,18.29,5.17,2.15,4,1.85,9,1,13.24-1.8,9-6,17.89-10.8,25.62-2.46,3.92-5.35,8-9.62,10.06-3,1.45-7.87,2.77-9.73-1.74-.75-1.8-.07-5.3,0-7.23a174.36,174.36,0,0,1,3.78-31.79c.32-1.51-4.17-3.37-4.36-2.44Z"/><path d="M35.68,17.58c1.44,5.92.39,11.57-1,17.37C33,41.44,31.26,47.89,29.55,54.34Q24.87,72,20,89.58,10.38,124.77.09,159.79c-.81,2.78,4,3,4.66.73q10.83-36.92,21-74,4.95-18.07,9.73-36.19c2.83-10.76,7.77-22.82,5.05-34-.59-2.43-5.43-1.17-4.84,1.28Z"/><path d="M21.32,101.84a246.25,246.25,0,0,0,41.89-7.76c2.16-.59-1.77-3.46-3.34-3a242.45,242.45,0,0,1-41,7.62c-2.82.27.76,3.32,2.41,3.16Z"/><path d="M77.46,18.32a633.14,633.14,0,0,1-12.3,130.42c-.43,2.14,4.26,3.7,4.76,1.19A633.87,633.87,0,0,0,82.23,19.5c0-2.22-4.79-3.66-4.77-1.18Z"/><path d="M116.43,56,122.32,39,117.77,37l-14.6,108.33c-.15,1.1,4.51,2.39,4.56,2.06L122.32,39c.13-.92-4.35-2.63-4.55-2.06l-5.9,16.93c-.28.81,4.35,2.65,4.56,2.05Z"/><path d="M157.43,8.8l7.42,77.56c.07.74,4.51-.13,4.85-.77,14.48-27.08,17.76-58.66,33.45-85.2.35-.59-1.75-.34-1.84-.33A438,438,0,0,0,144,9.51c-3.37.79-.24,1.19,1.5.78A415.37,415.37,0,0,1,200.2,1.34L198.36,1c-15.69,26.53-19,58.11-33.45,85.19l4.85-.77L162.34,7.87c-.06-.66-5,0-4.91.93Z"/><path d="M158.56,126.28c-2.67,5.17-6,13.26-4.81,19.31.61,3.14,4.21,5.79,7.43,4.85,4.84-1.41,6.67-9.24,6.66-13.57,0-4.76-1.71-8.63-6.42-10.16-3.06-1-.18,2.32,1.28,2.79.53.17.71,4.6.71,5.39a17.91,17.91,0,0,1-.65,4.83c-.44,1.55-2.65,7.62-4.43,7.54-2.15-.08,3.37-16.18,4.54-18.45.68-1.32-3.67-3.77-4.31-2.53Z"/><path d="M565.16,130.77a11.73,11.73,0,0,0-1.23,6,4.08,4.08,0,0,0,3.81,3.94c4.45.73,6.46-4.54,6.29-8.15-.06-1.47-4.87-2.6-4.79-.79a8.28,8.28,0,0,1-.78,3.89,6.87,6.87,0,0,1-1.07,1.65,5.22,5.22,0,0,1-.66.67c-.51.25-.59.31-.25.2l1.88.44c.88.38.36-.77.35-1.32a9.37,9.37,0,0,1,.12-1.75,11.7,11.7,0,0,1,1.13-3.41c.63-1.26-4-3-4.8-1.42Z"/><path d="M450.59,93a55.42,55.42,0,0,0,4.33,32.92c.69,1.5,2.75,1.24,3.85.55a82.17,82.17,0,0,0,34-42.42l-4.78-.16a430.16,430.16,0,0,1-2.56,85.49q-2.67,20.46-7.3,40.58c-3.06,13.3-6.28,27-11.42,39.67-2.09,5.15-4.82,10.39-9.28,13.88-6,4.66-13.76,4.73-20.6,2.08-10.29-4-17.45-13.49-20.56-23.83-6.67-22.21,2.74-44.35,18.35-60.24,9.63-9.8,21.24-17.54,33-24.46,13.19-7.74,27.49-15.3,43.26-13.75,3,.3,3.74-4,.52-4.27-14.61-1.44-28.25,4.34-40.76,11.32-11.91,6.64-23.64,14-33.9,23-18.11,15.95-30.91,38.15-26.88,62.95,1.72,10.56,6.71,20.76,15.12,27.57,9,7.27,22.16,10.66,32.7,4.67,10.88-6.19,14.64-19.51,18-30.68a431.2,431.2,0,0,0,11.16-46.08,434.11,434.11,0,0,0,6-108.86c-.16-2.32-4.13-2-4.78-.17a78,78,0,0,1-32.48,40.57l3.85.55a51.61,51.61,0,0,1-3.9-30.7c.49-2.85-4.49-2.86-5-.19Z"/></g></g></svg>