<?xml version="1.0" encoding="utf-8"?>
<!-- Generator: Adobe Illustrator 22.0.1, SVG Export Plug-In . SVG Version: 6.00 Build 0)  -->
<svg version="1.1" id="Layer_1" xmlns="http://www.w3.org/2000/svg" xmlns:xlink="http://www.w3.org/1999/xlink" x="0px" y="0px"
	 viewBox="0 0 1366 768" style="enable-background:new 0 0 1366 768;" xml:space="preserve">
<style type="text/css">
	.st0{fill:#F7CDF3;}
	.st1{fill:#C1272D;}
	.st2{fill:#997502;}
	.st3{fill:#C9BE9F;}
	.st4{fill:#FF7BAC;}
	.st5{fill:#FCD227;}
	.st6{fill:#1B1464;}
	.st7{fill:#C69C6D;}
	.st8{fill:#FCEE21;}
	.st9{fill:#FC9FC5;}
	.st10{fill:#006837;}
</style>
<g>
	<g>
		<g>
			<path d="M495.8,78.1c33.8-2,66.8-11.4,96.5-27.6c-2.6-1.6-5.2-3.2-7.8-4.8c-3.5,31.5-11,62.4-21.2,92.3
				c-5.1,14.9-10.7,29.7-16.9,44.2c-5.5,12.9-12.8,26.7-26.6,32c-3,1.2-8.8,3.3-10.7,0.3c-2-3.2-2.3-9-2.8-12.6
				c-1.2-9.3-0.6-18.7,1.4-27.9c0.8-3.9-8.3-7.6-9.3-2.9c-1.9,8.9-2.5,17.9-1.5,26.9c0.8,7.1,1.5,17.8,7.8,22.5
				c11.8,8.8,30-2.3,37.8-11.5c11.2-13.2,16.8-31.2,22.8-47.1c6.4-16.8,12-34,16.7-51.3c5.5-20.3,9.6-41,11.9-62
				c0.3-3.1-5.2-6.3-7.8-4.8c-29.2,15.9-61.4,25.1-94.5,27.1c-2.3,0.1-3,2.1-2.1,4C490.5,77,493.5,78.2,495.8,78.1L495.8,78.1z"/>
		</g>
	</g>
	<g>
		<g>
			<path d="M612,168.8c-11.6,1.9-22.8,10.3-23.3,22.9c-0.6,13,10.4,22.8,22.6,24.5c13.3,1.9,26.8-3.3,36.3-12.5
				c11-10.6,16.2-25,21.1-39.1c6.8-19.4,13.5-38.8,20.3-58.2c1-3-8.4-2.6-9.7-0.5c-4.4,7.2-8.8,14.7-15,20.5
				c-5.7,5.3-14.3,10.8-22.3,8.2c-12.2-4.1-17.9-20.3-11.8-31.3c1.3-2.3-8.3-3-9.7-0.5c-8.5,15.2,3.1,33.6,19.4,36
				c9.9,1.5,20.1-1.4,28.2-7c9.2-6.3,15.2-16.1,20.9-25.5c-3.2-0.2-6.5-0.3-9.7-0.5c-5.9,16.9-11.8,33.8-17.7,50.7
				c-5.1,14.6-9.6,30.3-19.7,42.3c-9.5,11.3-27.6,20.5-38.8,5.9c-8.8-11.4-3.4-30.1,11.7-32.6c1.2-0.2,4.1-0.8,3.3-2.6
				C617.5,168.1,613.1,168.6,612,168.8L612,168.8z"/>
		</g>
	</g>
	<g>
		<g>
			<path d="M750.1,99.8c-16.9,11-29.9,27.6-36,46.9c-5.4,17-8.2,42,8.5,53.7c13.9,9.8,33.5,5.4,45.1-5.8
				c7.5-7.2,12.4-16.8,16.2-26.4c3.5-8.8,6.7-18,8-27.4c1.4-9.8,0-20.5-6.7-28.2c-7.2-8.2-19.4-8.2-26.4-16
				c-1.3-1.5-3.5-1.8-4.5,0.2c-1,2.1,0.7,5.1,2,6.6c5.1,5.7,12.1,7.6,18.8,10.6c7.9,3.6,10.7,9.7,10.2,18.2c-0.5,8-3,15.7-5.6,23.2
				c-2.9,8.1-6.1,16.2-11,23.3c-8.6,12.5-23.4,21.2-39,16.6c-7.9-2.3-12-7.7-12.7-15.9c-0.7-8.8,0.8-17.9,3.4-26.3
				c5.8-18.2,17.9-34,33.9-44.4C758,106.6,753.4,97.7,750.1,99.8L750.1,99.8z"/>
		</g>
	</g>
</g>
<g>
	<path class="st0" d="M688.9,281.6c-1.6-1.9-3.5-3.2-5.8-4c-0.7-0.2-1.7,0.1-2.1,0.8c-1.3,2.2-2.9,4.3-1.3,6.8c1.3,2,3.1,3,5.3,2
		c1-0.5,1.8-1.3,2.4-2.2c0.3-0.6,0.9-1.4,0.9-2.1C688.9,282.6,689.3,282.1,688.9,281.6z"/>
	<g>
		<g>
			<path class="st1" d="M705,247.9c-2.7,3.8-5.5,7.6-8,11.5c-1.7,2.7-2.9,5.3-2.3,8.5c0.1,0.1,0.1,0.2,0.3,0.3
				c3.7,1.2,5.4-2.5,7.2-5.1c1.4-2,2.9-3.9,3.5-6.3c0.8-3.4,1-6.4,2.5-9.7c0.4-1-2.3-0.1-2.6,0c-5.9,4.2-11.4,11.8-9.6,19.2
				c0.3,1,2.6,0,2.9-0.6c1.3-2.7,2.8-5.2,4.6-7.7c1.1-1.6,1.9-2.6,1.8-4.6c0-0.9-2.3,0-2.6,0.2c-2.6,2.2-4.3,4.8-5.4,8
				c-0.3,0.8,2.6,0.5,2.9-0.4c1-2.9,2.5-5.2,4.8-7.2c-0.9,0.1-1.7,0.1-2.6,0.2c0.1,2.5-2.7,5.4-3.9,7.4c-0.9,1.5-1.7,3-2.4,4.6
				c1-0.2,1.9-0.4,2.9-0.6c-1.1-4.4,0-7.1,2.4-10.8c1.8-2.8,3.9-5.3,6.6-7.3c-0.9,0-1.7,0-2.6,0c-1.4,3.3-1.7,6.3-2.5,9.7
				c-0.7,2.9-2.9,5.9-4.8,8.1c-0.7,1.3-0.9,1.5-0.6,0.6c0-1.2,0.2-2.4,0.6-3.5c0.5-1.5,1.5-2.8,2.4-4.1c2.4-3.5,4.9-7,7.3-10.5
				C708.4,246.9,705.5,247.2,705,247.9L705,247.9z"/>
		</g>
	</g>
	<g>
		<g>
			<path class="st1" d="M694.1,271c-1.9,2.4-3.7,4.9-5.4,7.5c0.9-0.1,1.9-0.2,2.8-0.3c-1.5-2.9-3.2-2.7-5.9-3.7
				c0.1,0.4,0.2,0.8,0.3,1.2c3.3-3.8,6-7.9,8.1-12.4c-0.9,0.1-1.9,0.2-2.8,0.3c0.1,2.9-0.3,6.3,1.3,8.8c0.9-0.4,1.8-0.8,2.7-1.2
				c-0.7-1-1.5-1.9-2.3-2.8c-0.6-0.7-3.1-0.2-2.8,1c0.3,1.1,0.6,2.3,1,3.4c0.9-0.3,1.9-0.7,2.8-1c-1-0.8-2-1.4-3.1-1.9
				c-0.6-0.2-3.1,0-2.6,1.1c0.6,1.2,1.1,2.5,1.7,3.7c0.9-0.4,1.7-0.8,2.6-1.1c-1.2-0.7-2.4-1.4-3.8-1.3c-0.6,0-1.5,0.4-1.6,1.1
				c-0.2,1.1,1.1,2.2,1.8,2.9c0.7-0.5,1.5-1,2.2-1.5c-0.5-0.2-1.3-0.3-1.7-0.6c-1.4-1.1-0.8-2.3,0-3.4c1-1.4,2-2.7,3-4.1
				c-0.9,0.1-1.9,0.2-2.8,0.3c0.3,2.3,0.8,4.5,1.7,6.8c0.4,1.1,3.3,0.3,2.9-0.8c-0.8-2.2-1.4-4.4-1.7-6.8c-0.1-1.2-2.4-0.2-2.8,0.3
				c-1,1.4-2,2.7-3,4.1c-0.7,0.9-2,2.1-1.7,3.4c0.4,1.6,3,2,4.3,2.4c0.6,0.2,3.1-0.6,2.2-1.5c-0.3-0.3-1.7-1.5-1.6-2
				c-0.5,0.4-1.1,0.7-1.6,1.1c0.7,0.3,1.3,0.6,1.9,1c0.6,0.4,3.1-0.1,2.6-1.1c-0.6-1.2-1.1-2.5-1.7-3.7c-0.9,0.4-1.7,0.8-2.6,1.1
				c1,0.4,1.8,0.9,2.7,1.6c0.7,0.5,3.1,0.3,2.8-1c-0.3-1.1-0.6-2.3-1-3.4c-0.9,0.3-1.9,0.7-2.8,1c0.8,0.9,1.6,1.8,2.3,2.8
				c0.6,0.9,3.4-0.1,2.7-1.2c-1.4-2.3-1-5.8-1.1-8.4c-0.1-1.1-2.5-0.3-2.8,0.3c-2,4.4-4.5,8.4-7.7,12c-0.4,0.5-0.3,1,0.3,1.2
				c1.9,0.7,3.7,0.7,4.7,2.7c0.5,1,2.3,0.5,2.8-0.3c1.6-2.4,3.2-4.8,5-7.1C697.6,270.3,694.8,270.2,694.1,271L694.1,271z"/>
		</g>
	</g>
	<g>
		<g>
			<path class="st1" d="M749.5,414.5c2.6,0,0.1-4.2-2-4.2C744.9,410.3,747.4,414.5,749.5,414.5L749.5,414.5z"/>
		</g>
	</g>
	<g>
		<g>
			<g>
				<path d="M770.5,416.6c-14.2-0.9-27.5-0.1-37.5,11.2c-8.5,9.6-12.5,22.6-15,34.9c-3.1,15.3-3.4,30.9,3.5,45.1
					c6.3,12.9,16.6,23.4,26.6,33.5c10.5,10.6,23.2,21.7,39,20.8c1.8-0.1-0.3-4.5-2-4.4c-17.8,1-31.1-13.8-42.4-25.7
					c-12.9-13.5-23.7-28-23.6-47.5c0-15.5,3.9-33.2,12.1-46.5c3.7-6.1,8.7-11.4,15.3-14.5c8.1-3.8,17.3-3.2,26-2.7
					C774.2,421.2,772.2,416.7,770.5,416.6L770.5,416.6z"/>
			</g>
		</g>
		<g>
			<g>
				<path d="M769.7,418.3c-1.6-4.5,0.3-9.1,3.8-12.1c4.2-3.6,9.7-3.8,14.9-2.6c8.6,1.9,17.2,6.6,24.4,11.5
					c15,10.1,26.7,24.6,32.1,42c5.6,18.1,2.9,36.6-5.1,53.5c-3.7,7.8-8.2,15.1-13,22.3c-2.6,3.8-5.2,7.6-7.9,11.3
					c-2.5,3.4-5.8,8.8-10.7,8.2c-3.2-0.4-0.5,2.8,1.3,3c6.9,0.8,10.7-4.5,14.4-9.6c5.2-7.3,10.3-14.6,14.8-22.3
					c8.6-14.7,14.9-31.2,13.8-48.6c-2-32.6-26.2-58.6-55.3-70.9c-7.2-3.1-16.1-6-23.9-2.8c-6.4,2.7-10.4,9.6-8,16.3
					C765.8,418.9,770.5,420.4,769.7,418.3L769.7,418.3z"/>
			</g>
		</g>
		<g>
			<g>
				<path d="M798.5,552c-1.3,4.9-3,10.6-8.2,12.4c-0.3,0.1-0.3,0.4-0.1,0.6c1.9,3,4.6,9.2,9.1,8.4c5.4-1,11.5-5.5,10.7-11.5
					c-0.2-1.4-4.3-3.2-4.2-2.4c0.4,2.8-0.8,5.4-2.9,7.2c-1.7,1.5-5.7,3.9-8,3.7c1,0.6,2,1.1,3,1.7c-0.8-0.9-3.3-3.8-2.8-5
					c0.2-0.6,2.9-2,3.5-2.7c2.3-2.7,3.3-6.3,4.2-9.6C802.9,553.4,798.6,551.3,798.5,552L798.5,552z"/>
			</g>
		</g>
		<g>
			<g>
				<path d="M803.6,572.1c3.2,7.4,0.6,17.7-8.9,17.5c-3,0-1.3,4.6,1.3,4.6c5.1,0.1,9.7-2.9,12-7.5c2.6-5.3,1.7-11.1-0.6-16.3
					C806.2,567.7,802.3,569.2,803.6,572.1L803.6,572.1z"/>
			</g>
		</g>
		<g>
			<g>
				<path d="M799.3,593.3c4.4,8.7-8.8,14.8-12.2,21.3c-0.7,1.4,3.8,3.4,4.6,1.9c3.8-7.2,17-12.8,12-22.6
					C803.1,592.5,798.4,591.4,799.3,593.3L799.3,593.3z"/>
			</g>
		</g>
		<g>
			<g>
				<path d="M797.9,607.5c2.1,5.9-0.5,12.8-5.7,16.1c-2.1,1.4,1,5.2,2.9,4c7-4.5,9.5-12.8,6.8-20.6
					C800.9,604.7,796.8,604.4,797.9,607.5L797.9,607.5z"/>
			</g>
		</g>
		<g>
			<g>
				<path d="M796.3,624.6c-4.3-3.9-9.2-7.7-13-12.1c-4-4.5-3.5-10.4-2.9-16c-1.5,0.3-3.1,0.7-4.6,1c4.9,2.3,12.3,4.4,12.3,10.9
					c0,1.3,5,1,5-0.5c0-7-7.8-9.4-13.1-11.9c-1-0.5-4.4-0.6-4.6,1c-0.5,5.2-1,10.9,2.3,15.4c3.6,5,9.4,9,13.9,13.1
					C792.7,626.7,797.2,625.4,796.3,624.6L796.3,624.6z"/>
			</g>
		</g>
		<g>
			<g>
				<path d="M789.9,602.1c-0.1-4.7,3.7-9.6,1.8-14.2c-1.7-4.2-6.6-5.9-8.3-10.1c-0.5-1.2-4.3-2.1-4.3-2.2c1.6,3.8,5.3,5.4,7.5,8.7
					c3.1,4.8-1.2,10.2-1.1,15.2C785.6,601,789.9,602,789.9,602.1L789.9,602.1z"/>
			</g>
		</g>
		<g>
			<g>
				<path d="M790.5,573.3c-1,1.1-2.3,2.1-3.8,2.6c-1,0.4,0,1.1,0.5,1.4c0.8,0.4,2.4,1,3.4,0.7c1.7-0.6,3.2-1.5,4.4-2.9
					c0.6-0.7-0.9-1.3-1.4-1.5c-0.6-0.2-1.2-0.4-1.9-0.5C791.4,573.1,790.8,573,790.5,573.3L790.5,573.3z"/>
			</g>
		</g>
		<g>
			<g>
				<path d="M781.5,572.8c-0.9-2-1.2-4.1-1.1-6.3c0.2-2.3-4.2-4.5-4.4-1.7c-0.2,2.9,0.3,5.8,1.5,8.5c0.5,1.1,1.7,2.1,2.9,1.9
					C781.6,575,781.9,573.8,781.5,572.8L781.5,572.8z"/>
			</g>
		</g>
		<g>
			<g>
				<path d="M774.5,583.8c0,3.9,0,7.8,0,11.7c0,1.7,5,1.4,5-0.3c0-3.9,0-7.8,0-11.7C779.5,581.7,774.5,582,774.5,583.8L774.5,583.8z
					"/>
			</g>
		</g>
		<g>
			<g>
				<path d="M777.8,617.1c-3.4,7,2.2,12.5,8.9,13.6c4,0.6,14.5,0.9,12.9-5.8c-0.3-1-5.1-0.4-5,0c0.5,2.1-0.5,4.1-2.7,4.9
					c-2.5,0.8-5.5-0.6-7.3-2.2c-3.1-2.7-3.5-6.8-1.8-10.4C782.9,617.1,778.4,616,777.8,617.1L777.8,617.1z"/>
			</g>
		</g>
		<g>
			<g>
				<path d="M797.8,631.2c-0.6-0.9-1-0.9-1.1,0.1c-0.5,0.8-1.1,1.4-1.8,1.9c-0.8,0.6-1.6,1.1-2.5,1.5c-1.7,0.9-5.4,2.9-7.2,1.3
					c-0.8-0.8-0.7-3.2-1.2-4.5c-0.6-1.5-1.5-2.9-2.6-4c-1.7-1.6,0.2,2.9,0.9,3.6c-0.8-0.8-0.3,1-0.3,1.3c0.1,0.7,0.2,1.5,0.5,2.2
					c0.4,1.3,1.1,2.5,1.9,3.6c2,2.4,4.8,3.1,7.8,2.1c2.8-1,7.3-3.2,7.6-6.6c0.2-2.5-1.6-5.3-3.6-6.6c-0.9-0.6-0.5,0.9-0.4,1.3
					C796.1,629.3,797,630.6,797.8,631.2L797.8,631.2z"/>
			</g>
		</g>
		<g>
			<g>
				<path d="M781.9,640.4c0.1,11.5-8.5,20.2-11.2,31c-1.5,5.9,0.1,11,0.6,16.9c0.7,8.6-5.7,10.4-10.8,15.6c-1.2,1.3,1,3.9,2.3,4.1
					c9.5,1.4,20.9,2.5,27.4-6.1c5.8-7.7,9.7-19.1,10.2-28.6c0.1-1.6-3.6-4.9-3.7-2.6c-0.4,9-4.1,18.2-8.7,25.8
					c-5.8,9.6-17.1,8.7-26.8,7.3c0.8,1.4,1.5,2.7,2.3,4.1c4-4.1,9.9-6.3,11.2-12.3c1.4-6.3-2-12.5-0.9-18.9
					c1.9-12,11.9-21.1,11.8-33.6C785.6,641.4,781.9,638.2,781.9,640.4L781.9,640.4z"/>
			</g>
		</g>
		<g>
			<g>
				<path d="M794.9,636.2c2.8,13,17.2,18.9,20,31.8c1.7,7.6,2.2,18.2-3.1,24.5c-5.5,6.6-14.1,11.5-20.9,16.7c1,1.3,1.9,2.5,2.9,3.8
					c1.5-5,1-9.7-1.7-14.1c-1.6-2.6-4.6-1.1-3,1.5c1.9,3.1,2.3,6.1,1.3,9.5c-0.4,1.2,1.1,5.1,2.9,3.8c7-5.4,15.8-10.5,21.6-17.2
					c5.1-6,5-14.4,4.6-21.9c-0.5-7.5-2.9-14-7.7-19.8c-4.9-5.9-11.5-10.9-13.3-18.8C797.8,633.3,794.2,633,794.9,636.2L794.9,636.2z
					"/>
			</g>
		</g>
		<g>
			<g>
				<path d="M734.1,526.8c5.3,11.2,5.6,23.7,1,35.1c-0.6,1.5,4.1,3.2,4.7,1.6c4.8-12,4.2-24.9-1.3-36.5
					C737.9,525.6,733.1,524.8,734.1,526.8L734.1,526.8z"/>
			</g>
		</g>
		<g>
			<g>
				<path d="M822.9,594.7c-6.1-0.7-11.2-4.3-13.6-10c-1.2-2.9-4.5-1.3-3.3,1.6c2.9,7.1,9.4,12.3,17.1,13.1
					C825.9,599.7,825.2,594.9,822.9,594.7L822.9,594.7z"/>
			</g>
		</g>
		<g>
			<g>
				<path d="M816.7,598.3c-2,0.2-4-0.6-5.7-1.6c-0.9-0.5-2.4-0.4-3.4-0.2c-0.5,0.1-1.8,0.5-0.9,1c3.5,1.9,7.5,2.5,11.4,2.1
					c0.4,0,2.1-0.2,1.7-0.9C819.5,598.1,817.3,598.3,816.7,598.3L816.7,598.3z"/>
			</g>
		</g>
		<g>
			<g>
				<path d="M773.8,588.8c-5.8,0.5-10.9-4-15.3-7.3c-3.4-2.6-6.7-5.3-9.9-8.2c-6.9-6.2-13.2-13.1-18.9-20.4c-1.1-1.4-3.5-1-4.6,0.1
					c-3.2,3.3-7,5.4-11.6,6.2c-0.8,0.1-3,0.9-2.2,2.2c6.4,10.4,13,20.9,23.4,27.8c11.4,7.6,24.2,13.4,36.2,19.9
					c1.7,0.9,5.9-1.1,3.3-2.5c-11.6-6.2-23.8-11.9-34.8-19c-10.4-6.7-17-17.1-23.3-27.4c-0.7,0.7-1.5,1.4-2.2,2.2
					c6.2-1.1,11.3-3.7,15.7-8.2c-1.5,0-3.1,0.1-4.6,0.1c6.9,8.9,14.7,17.2,23.4,24.5c7.2,6,15.7,13.9,25.8,13.1
					C777.1,591.6,776.8,588.6,773.8,588.8L773.8,588.8z"/>
			</g>
		</g>
		<g>
			<g>
				<path d="M828.1,598c3.5,0,6.8-0.9,9.6-3.2c0.9-0.8,2.3-3,3.6-3.2c3.1-0.4,2.3,3.4,2.4,5.1c0.4,5.5,3.2,7.4,6.9,10.8
					c-0.8-1-1.5-1.9-2.3-2.9c0.3,2.8-6.5,5-8.6,5.7c-3.4,1.2-7,2-10.6,2.5c-8.4,1.2-17,1.3-25.5,1.9c-0.2,0,1.9,3.8,3.1,3.7
					c9.8-0.6,20-0.6,29.7-2.6c4.5-0.9,9-2.4,13-4.8c2.8-1.7,3.2-2.7,1.1-5.1c-0.7-0.8-1.7-1.3-2.3-2.1c-1.3-1.8-0.9-4.1-1.1-6.3
					c-0.3-3-1.4-5.2-3.5-7.4c-1.7-1.7-3.6-3.2-6-2.1c-1.7,0.8-2.7,2.8-4.3,3.8c-2.4,1.6-5.2,2.3-8.1,2.3
					C824.9,594.3,826.9,598,828.1,598L828.1,598z"/>
			</g>
		</g>
		<g>
			<g>
				<path d="M715.5,489.8c-1.1-0.5-2.2-0.9-3.3-1.4c-0.3-0.1-1-0.4-1.1,0.2c-0.5,6.2-0.7,12.3-0.3,18.5c0.2,3.8,0.1,8.5,2.1,11.9
					c1.2,1.9,3.4,4,5.7,4c3.8,0,5-4.1,5.7-7.1c0.3-1.3-3.5-4.2-3.7-3.1c-0.5,2.3-1,5.9-3.9,5.4c-2.8-0.5-2.1-6.4-2.2-9
					c-0.3-5.9-0.1-11.7,0.4-17.5c-0.4,0.1-0.7,0.1-1.1,0.2c1.1,0.5,2.2,0.9,3.3,1.4C719.5,494.2,716.6,490.3,715.5,489.8
					L715.5,489.8z"/>
			</g>
		</g>
		<g>
			<g>
				<path d="M846.5,501.8c2.7,5.5-0.5,11.4-3.2,16.3c-1.5,2.7-5.8,12.5-10,10.2c0.9,0.9,1.9,1.8,2.8,2.7c-0.2-0.3-0.3-0.5-0.5-0.8
					c-0.5-0.7-4.1-3.8-3-2c0.9,1.4,2.1,3,3.8,3.7c3.1,1.3,4.9-1.5,6.5-3.9c4.3-6.4,10.9-15.6,7-23.5
					C849.5,503.6,846.2,501.1,846.5,501.8L846.5,501.8z"/>
			</g>
		</g>
		<g>
			<g>
				<path d="M730.3,542.1c-8.3-4-17.1-2.3-24.9,2c-9.9,5.4-18.8,13.1-27.8,19.8c-1.2,0.9,1.7,5,2.9,4.1c7.8-5.7,15.4-11.7,23.4-17.1
					c8-5.3,17.9-9.4,27.2-5C733.6,547,731.6,542.7,730.3,542.1L730.3,542.1z"/>
			</g>
		</g>
		<g>
			<g>
				<path d="M709.6,562.5c-4,2.9-8,5.9-10.9,10c-3.1,4.3-3.8,9.1-4,14.3c-0.1,1.7,4.7,3.1,4.8,1c0.3-5.7,1.3-10.4,5-14.8
					c2.7-3.2,6.1-5.7,9.5-8.2C715.4,563.8,711.1,561.4,709.6,562.5L709.6,562.5z"/>
			</g>
		</g>
		<g>
			<g>
				<path d="M672.5,607.5c1.4-12.4,1.1-24.9-1.2-37.1c-1-5.6-2.5-11.1-4.3-16.5c-1.9-5.7-7.3-13.9-2.4-19.2
					c4.8-5.1,13.3-6.1,15.2-13.8c0.5-2,0.3-4,0.3-6c-0.1-4.4,1.8-6.4,6.3-6.8c7.4-0.7,14.8,0.7,21.6,3.5c2.9,1.2,4.8-2.8,1.9-4.1
					c-6-2.5-12.2-4-18.7-4.2c-4.5-0.1-11.5-0.4-14.5,3.8c-3,4.3,0.1,9.8-2.3,14.2c-2.3,4.1-8,5.8-11.6,8.5
					c-10.5,8.1-1.3,21.1,1.4,31c4.1,14.9,5.1,30.4,3.4,45.8C667.3,609.4,672.1,610.5,672.5,607.5L672.5,607.5z"/>
			</g>
		</g>
		<g>
			<g>
				<path d="M667.2,528.7c0.2-17.4,0.3-35,3.4-52.2c2.8-15.6,9.1-31.1,5.5-47c-0.4-2-5.2-3.1-4.6-0.5c3.7,16.2-3.3,32.2-5.9,48
					c-2.7,16.6-2.9,33.5-3,50.3C662.5,529.4,667.2,531,667.2,528.7L667.2,528.7z"/>
			</g>
		</g>
		<g>
			<g>
				<path d="M717.7,488.5c-4.6-23.9-9.3-47.9-9.9-72.3c-0.5-24.8,3.4-49.6,0.4-74.4c-0.1-0.7-4.8,0.5-4.6,1.9
					c3.1,24.8-0.9,49.6-0.4,74.4c0.5,24.4,5.2,48.4,9.9,72.3C713.3,491.2,718,489.8,717.7,488.5L717.7,488.5z"/>
			</g>
		</g>
		<g>
			<g>
				<path d="M708.6,341.9c1.6-6.7,2.6-13.5,3-20.4c0.4-7.5-0.7-15.2,1-22.6c1.5-6.7,4-13.1,5.2-19.9c1.3-7.4,1.8-15,2.3-22.5
					c0.2-2.9-4.5-2-4.7,0.3c-0.5,7.5-1,15.1-2.3,22.5c-1.2,6.8-3.7,13.2-5.2,19.9c-1.5,6.6-0.8,13.3-0.9,20
					c-0.1,7.8-1.2,15.5-3,23.1C703.3,344.9,708.1,344.1,708.6,341.9L708.6,341.9z"/>
			</g>
		</g>
		<g>
			<g>
				<path d="M718.6,259.2c0-3.2-1.2-21.1-8.8-16.9c-1.6,0.9-2.1,2.7-2.5,4.3c-1,3.5-1.5,7.1-2.4,10.6c-0.6,2.5-1.2,7.8-3.1,9.6
					c-2.1,1.9-6,0.5-8.6,0.8c1,1.2,1.9,2.4,2.9,3.5c-1.4-8.3,0-14,5.9-20.1c3.7-3.8,10.6-7.1,11.7-12.6c0.2-1.1-1.9-3.7-2.9-3.8
					c-17.2-2-24,17.5-32.1,28.8c-0.8,1.1,2.7,4.4,3,4c7.9-11.1,14.7-30.7,31.7-28.7c-1-1.3-2-2.6-2.9-3.8c-0.8,3.7-4.1,5.5-6.8,7.8
					c-2.8,2.4-5.6,5-7.9,8c-4.1,5.5-4.1,11-2.9,17.6c0.1,0.8,1.8,3.7,2.9,3.5c2.4-0.3,5.7,1,8-0.2c2.9-1.5,3.3-7,4-9.8
					c1-3.9,1.4-8.3,2.8-12.2c0.6-1.6,1.6-4.5,3.9-3c1.4,0.9,0.9,7.6,0.9,9C715.4,257,718.6,259.6,718.6,259.2L718.6,259.2z"/>
			</g>
		</g>
		<g>
			<g>
				<path d="M691,246.7c-4.6-9.6-14.1,10.7-15.7,13.3c-2.9,4.9-7.3,10.2-7.5,16.2c-0.2,4.9,2.9,8.6,5.1,12.7
					c13.2,24.7,5.7,53.9-0.9,79.3c-0.6,2.4,3.3,5,4,1.9c5.3-20.5,10.6-41.5,7-62.8c-0.8-4.6-2-9.1-3.6-13.4
					c-1.7-4.5-4.7-8.3-6.5-12.7c-2.7-6.2,2.5-12.3,5.6-17.4c1.4-2.4,2.9-4.8,4.3-7.2c0.8-1.4,5.3-6.8,4.6-8.2
					C688.8,251.2,692.3,249.5,691,246.7L691,246.7z"/>
			</g>
		</g>
		<g>
			<g>
				<path d="M672.5,368.9c-2.3,19.2-4.5,38.5-1.5,57.7c0.4,2.7,4.8,3.8,4.3,0.6c-2.9-18.8-0.8-37.7,1.4-56.5
					C677,368.1,672.9,365.8,672.5,368.9L672.5,368.9z"/>
			</g>
		</g>
		<g>
			<g>
				<path d="M850.2,609c19.7,7.2,43.8,16.9,47,40.6c1.1-0.8,2.2-1.7,3.3-2.5c-10.6-1.4-20.2,3.1-27.7,10.4
					c-5.2,5.1-16.1,17.6-8.4,24.7c0.9-1.1,1.8-2.3,2.8-3.4c-6.4-1.2-9.3,4.6-12.2,9.3c-5.2,8.5-10.4,17-15.6,25.6
					c-1.5,2.5,3.3,3.2,4.6,1.1c3.3-5.4,6.6-10.8,9.9-16.2c1.6-2.6,7.9-16.5,11.5-15.8c1.8,0.3,4.7-1.6,2.8-3.4
					c-5.7-5.3,5.5-16.9,9.3-20.4c5.8-5.3,13.2-9,21.3-8c1.5,0.2,3.6-0.6,3.3-2.5c-3.4-24.8-28.3-35.5-49-43
					C850.6,604.6,847.2,607.9,850.2,609L850.2,609z"/>
			</g>
		</g>
		<g>
			<g>
				<path d="M899.4,650.8c-0.1,27,0.3,54,1.1,81c1.1-0.4,2.1-0.7,3.2-1.1c-19.5-2.1-39.1-0.7-58,4.4c1.2,0.4,2.5,0.8,3.7,1.1
					c-1.2-6-2.2-12-2.9-18.1c-0.2-1.8-5.2-1.7-5-0.1c0.7,6.1,1.7,12.1,2.9,18.1c0.3,1.4,2.7,1.4,3.7,1.1c17.7-4.8,35.9-6.3,54.1-4.3
					c0.6,0.1,3.2,0.2,3.2-1.1c-0.8-27-1.1-54-1.1-81C904.4,649.3,899.4,649.2,899.4,650.8L899.4,650.8z"/>
			</g>
		</g>
		<g>
			<g>
				<path d="M891.5,733.2c-0.4,9.8,1.3,19.3,5.2,28.2c1.1,2.4,5.9,1.1,4.8-1.4c-3.8-8.7-5.5-17.7-5.1-27.2
					C896.6,730.1,891.6,730.6,891.5,733.2L891.5,733.2z"/>
			</g>
		</g>
		<g>
			<g>
				<path d="M845.9,737.8c0.9,8.8,2.7,17.3,5.5,25.6c0.6,1.9,5.6,1.7,4.9-0.4c-2.7-8.1-4.5-16.3-5.4-24.8
					C850.7,736.1,845.7,735.9,845.9,737.8L845.9,737.8z"/>
			</g>
		</g>
		<g>
			<g>
				<path d="M840.7,737.3c0.2,5.5,0.1,10.9-0.4,16.4c1.3-0.6,2.5-1.3,3.8-1.9c-9.4-0.7-17.7-4.7-26.1-8.5
					c-7.2-3.3-14.6-5.9-22.1-8.5c-14.6-5-29.4-10.2-39.9-22c-1.1-1.2-5.6,0.7-4.3,2.2c10.6,12,25.8,17.4,40.6,22.4
					c8,2.8,15.9,5.7,23.7,9.2c8.2,3.7,16.3,7.4,25.4,8c1.1,0.1,3.7-0.4,3.8-1.9c0.4-5.5,0.6-10.9,0.4-16.4
					C845.4,734.3,840.7,735.6,840.7,737.3L840.7,737.3z"/>
			</g>
		</g>
		<g>
			<g>
				<path d="M689.6,659.9c4.2,12,7.9,24.4,13.1,36.1c4.8,10.9,12.3,19.2,20.7,27.5c2.3,2.3,4.5-1.2,2.4-3.2
					c-8.7-8.6-16-17.1-20.6-28.6c-4.3-10.7-7.8-21.8-11.7-32.7C692.5,656.2,688.5,656.8,689.6,659.9L689.6,659.9z"/>
			</g>
		</g>
		<g>
			<g>
				<path d="M669.4,627.4c-0.7,17.3,6,33.2,13.9,48.3c7.8,15,18.5,30,19.2,47.5c0,0.8,5,0.8,5,0.1c-0.7-17.4-11.4-32.5-19.2-47.5
					c-7.8-15.1-14.5-31-13.9-48.3C674.5,626.8,669.5,626.6,669.4,627.4L669.4,627.4z"/>
			</g>
		</g>
		<g>
			<g>
				<path d="M693.8,712.3c0-7.5-4.2-13.7-8.1-19.8c-5.7-8.8-11.7-18-9.3-29c0.4-1.7-3.2-5.1-3.7-2.7c-1.8,8.3,0.7,16.4,4.7,23.7
					c4.5,8.2,12.7,16.2,12.7,26C690.1,712.4,693.8,715.2,693.8,712.3L693.8,712.3z"/>
			</g>
		</g>
		<g>
			<g>
				<path d="M674.9,692.5c1.5,5.5-0.1,10.5-1.9,15.7c-2,5.8-3,10.9-2.8,17c0.6,13.1-0.1,26-2.6,38.8c-0.1,0.6,4.8,1,5,0
					c2.5-12.9,3.2-25.8,2.6-38.8c-0.3-5.8,0.6-10.7,2.5-16.2c1.9-5.5,3.7-10.7,2.1-16.5C679.6,691.3,674.8,692,674.9,692.5
					L674.9,692.5z"/>
			</g>
		</g>
		<g>
			<g>
				<path d="M681.7,721.4c-2.6,15.6,10.9,26,15.3,39.7c0.7,2.1,5.6,2.5,4.9,0.2c-4.2-13.1-17.8-24.1-15.3-38.8
					C687,720.3,682.1,719.2,681.7,721.4L681.7,721.4z"/>
			</g>
		</g>
		<g>
			<g>
				<path d="M790.9,420.2c19.2,7.7,28.1,28.1,28.1,47.7c0,23.2-10,44.6-17.4,66.2c-0.7,2,3.9,0.6,4.4-0.8
					c7.6-22.3,18.2-44.7,17.6-68.7c-0.5-19.4-9.7-39.4-28.6-47C793.5,417,789.7,419.7,790.9,420.2L790.9,420.2z"/>
			</g>
		</g>
		<g>
			<g>
				<path d="M799.6,461.3c0,13.5-1.2,26.9-3.5,40.2c-0.2,1.2,3.9,3.7,4.1,2.6c2.4-13.3,3.5-26.7,3.5-40.2
					C803.7,462.6,799.6,460.4,799.6,461.3L799.6,461.3z"/>
			</g>
		</g>
		<g>
			<g>
				<path d="M766,442.5c4.7,34.6,29.7,63.6,30.2,99.1c0,2.3,4.6,3.9,4.6,1c-0.5-35.6-25.5-64.4-30.2-99.1
					C770.3,441.3,765.7,439.7,766,442.5L766,442.5z"/>
			</g>
		</g>
		<g>
			<g>
				<path d="M745.3,454.7c-2.6,34.7,32.7,55.5,40.9,86.8c0.4,1.4,5.1-0.2,4.7-1.8c-8.1-31-43.4-51.9-40.8-86.2
					C750.2,451.9,745.4,453.2,745.3,454.7L745.3,454.7z"/>
			</g>
		</g>
		<g>
			<g>
				<path d="M736.6,496c9.9,12.3,19.9,24.6,29.8,36.8c1.4,1.8,6.1,0,4.5-1.9c-9.9-12.3-19.9-24.6-29.8-36.8
					C739.7,492.4,735,494.1,736.6,496L736.6,496z"/>
			</g>
		</g>
		<g>
			<g>
				<path d="M783.6,657.2c2.3,10.8,1.3,21.7-2.9,32c-0.1,0.3,3.8-0.9,4.3-2.2c4.2-10.4,5.1-21.4,2.8-32.4
					C787.8,654.1,783.4,655.8,783.6,657.2L783.6,657.2z"/>
			</g>
		</g>
		<g>
			<g>
				<path d="M803.6,665.5c0.8,4.2,1.6,8.4,2.4,12.6c0.2,1,1.2,1.9,2,2.4c0.2,0.1,2.2,1.2,2,0.3c-0.8-4.2-1.6-8.4-2.4-12.6
					c-0.2-1-1.2-1.9-2-2.4C805.4,665.7,803.4,664.7,803.6,665.5L803.6,665.5z"/>
			</g>
		</g>
	</g>
	<g>
		<g>
			<path d="M690.8,280.3c6.3-9.1,12.5-18.2,18.8-27.3c0.2-0.3-0.5-0.3-0.7-0.1c-6.3,9.1-12.5,18.2-18.8,27.3
				C689.9,280.5,690.6,280.5,690.8,280.3L690.8,280.3z"/>
		</g>
	</g>
	<g>
		<g>
			<path d="M683,276.5c2.7,0.7,5,2.3,6.7,4.5c0.5,0.7,0.7-0.1,0.4-0.6c-1.8-2.4-4.3-4.3-7.3-5C682.2,275.3,682.6,276.4,683,276.5
				L683,276.5z"/>
		</g>
	</g>
	<g>
		<g>
			<path d="M681.8,277.9c2.4-0.1,5.5,2.5,6.7,4.4c0.4,0.6,1.4-0.1,1-0.7c-1.5-2.4-4.8-5-7.8-4.8C681,276.8,681,277.9,681.8,277.9
				L681.8,277.9z"/>
		</g>
	</g>
	<g>
		<g>
			<g>
				<path class="st2" d="M689.6,280.8c-2-1.9-4.1-3.8-6.9-4.3c-0.3,0.2-0.6,0.3-0.9,0.5c3,0.4,5.5,2.2,7.1,4.7c0,0,0.9-0.5,0.9-0.5
					c-1.6-2.6-4.1-4.3-7.1-4.7c-0.3,0-0.6,0.5-0.9,0.5c2.8,0.5,4.9,2.4,6.9,4.3C688.8,281.4,689.6,280.7,689.6,280.8L689.6,280.8z"
					/>
			</g>
		</g>
	</g>
	<path class="st1" d="M699.8,257.9l1.1,0.8c1.4,1.1,1.8,3.2,0.7,4.7l-8.8,13c-1,1.5-3,1.9-4.4,0.8l-1.1-0.8
		c-1.4-1.1-1.8-3.2-0.7-4.7l8.8-13C696.4,257.2,698.3,256.8,699.8,257.9z"/>
	<g>
		<g>
			<path d="M689.5,280.8c-1.2,1.6-2.4,3.3-3.6,4.9c-0.8,1.1-1.2,2-3.1,1.6c-1.1-0.3-2-1.2-2.6-2.2c-2.1-3.4,2.1-8,4.4-10.4
				c0.1-0.1-1-0.2-1.2,0.1c-1.9,2-4.2,4.8-5,7.5c-0.6,2.3,1.3,4.6,3.4,5.3c4.5,1.5,6.8-4,8.9-6.9
				C690.7,280.6,689.7,280.5,689.5,280.8L689.5,280.8z"/>
		</g>
	</g>
	<g>
		<g>
			<path class="st3" d="M733.7,208.1c-0.6,0.7-1.3,1.2-2.2,1.7c0.5-0.1,1-0.3,1.4-0.4c0.4-0.7,0.9-1.2,1.6-1.6
				c-0.5,0.1-1,0.3-1.4,0.4c0.6-0.1,1.1,0.1,0.8,0.8c0.5-0.1,1-0.3,1.4-0.4c-1.2-0.1-2.4,0.3-2.3,1.7c0.5-0.1,1-0.3,1.4-0.4
				c-0.4-0.8-1-0.6-1.7-0.3c-0.4,0.2-1.8,0.8-0.5,1.3c0.3,0.1,1.1-0.2,1.4-0.4c0.9-0.4,0.9-1.4,1.7-1.9c-0.5,0.1-1,0.3-1.4,0.4
				c-1.3,3.2-2.5,6.5-3,9.9c0.5-0.1,1-0.3,1.4-0.4c-1-1.3-2.1-2.5-3.4-3.5c-0.5-0.4-1-0.8-1.7-1c-0.3-0.1-0.6-0.2-0.9-0.2
				c0.2-0.4,0.6-0.7,1.1-0.8c-0.4,0.1-0.8,0.2-1.2,0.3c0.1,0.3,0,0.5-0.3,0.6c0.5-0.1,1-0.3,1.4-0.4c-0.7-0.5,1.8-1.9,2.2-2.2
				c1.4-1,2.8-2,4.1-3c-0.4,0.3-1.1,0.1-1.4,0.4c-1.4,1-2.8,2-4.1,3c-0.4,0.3-2.9,1.7-2.2,2.2c0.1,0.1,1.3-0.3,1.4-0.4
				c0.3-0.1,0.4-0.3,0.3-0.6c0,0-1.1,0.3-1.2,0.3c-0.2,0.1-0.5,0.1-0.7,0.2c-1.4,0.8-0.1,0.7,0.7,1.1c1.8,0.9,3.3,2.7,4.5,4.2
				c0,0,1.4-0.3,1.4-0.4c0.5-3.4,1.7-6.7,3-9.9c-0.1,0.2-1.2,0.3-1.4,0.4c-0.7,0.4-0.8,1.2-1.3,1.8c0.4-0.1,0.7-0.2,1.1-0.3
				c-0.7,0.2-0.3-0.9-0.3-1.1c-0.4,0.1-0.9,0.2-1.3,0.4c0.5-0.1,0.8,0.1,0.9,0.5c0,0,1.4-0.4,1.4-0.4c-0.1-0.7-0.1-0.9,0.4-1.4
				c-0.5,0.1-1,0.3-1.4,0.4c0.1,0,0.3,0,0.4,0c0.2,0,1.4-0.3,1.4-0.4c0.4-1.1-0.9-0.8-1.6-0.6c-1.1,0.3-1.7,0.8-2.3,1.8
				c0.1-0.2,1.2-0.2,1.4-0.4c0.9-0.4,1.5-0.9,2.2-1.7C734.9,208,734,207.8,733.7,208.1L733.7,208.1z"/>
		</g>
	</g>
	<g>
		<g>
			<path class="st3" d="M727.9,216c-0.2-0.2,0.1,0.2,0.2,0.2c0.1,0.2,0.2,0.3,0.3,0.5c-0.2-0.4,0.2,0.4,0.2,0.4
				c0.1,0.2,0.2,0.4,0.4,0.5c0.8,0.8,1.9,1,2.8,0.3c1-0.7,1-2,1-3.1c0,0.4,0-0.1,0.1-0.2c0.1-0.4-0.2,0.4,0.1-0.2
				c0-0.1,0.2-0.3,0.1-0.1c0.1-0.2,0.3-0.4,0.5-0.6c1.7-1.8-0.5-5.8-2.6-3.5c-0.6,0.7-1.1,1.5-1.4,2.4c-0.1,0.4-0.2,0.8-0.3,1.2
				c0,0.3-0.1,0.6-0.1,0.9c0,0.1-0.1,0.9,0.1,0.2c0.2-0.4,0.3-0.7,0.5-1.1c0.1-0.1,0.1-0.1,0.2-0.2c0.3-0.1,0.6-0.2,0.9-0.3
				c-0.6,0.1,0.9,0.3,0.7,0.6c0,0-0.4-0.8-0.5-0.9c-0.3-0.5-0.7-0.9-1.1-1.3c-0.9-0.9-2.2,0-2.6,0.9
				C726.8,213.8,727,215.1,727.9,216L727.9,216z"/>
		</g>
	</g>
	<g>
		<g>
			<path class="st3" d="M732.8,209.1c0.2,0.5,0,1-0.5,1.1c0.5-0.1,0.9-0.3,1.4-0.4c0-0.2-0.1-0.5-0.1-0.7c0,0.1-1.3,0.3-1.4,0.4
				c-0.9,0.6-1.7,1.4-2.3,2.3c0.5-0.1,1-0.3,1.4-0.4c-0.1-0.2-0.2-0.4-0.1-0.7c0,0.2-1.4,0.2-1.4,0.4c0,0.3,0,0.5,0.1,0.7
				c0,0,1.4-0.3,1.4-0.4c0.7-0.9,1.4-1.6,2.3-2.3c-0.5,0.1-1,0.3-1.4,0.4c0,0.2,0.1,0.5,0.1,0.7c0,0,1.3-0.3,1.4-0.4
				c0.5-0.2,0.7-0.7,0.5-1.1C734.2,208.6,732.8,209.1,732.8,209.1L732.8,209.1z"/>
		</g>
	</g>
	<g>
		<g>
			<path class="st1" d="M727.4,219.5c-2.9,4.1-5.9,8.2-8.8,12.3c-2,2.8-4.4,5.5-5.4,8.9c-0.4,1.3,2.2,0.7,2.7,0.3
				c4.1-4.4,7.9-9.1,11.4-14.1c0.9-1.2-1.8-1.2-2.3-0.7c-2.7,2.2-4.5,4.7-5.7,8c-0.6,1.6,2.2,1.1,2.8,0.3c3.3-4.8,2-11,4.7-16
				c0.7-1.4-2-1.2-2.6-0.5c-4.5,5.6-8.7,11.4-12.5,17.5c0.9-0.2,1.8-0.3,2.7-0.5c-0.2-0.2,8.9-12.2,9.6-13.2
				c-0.9-0.1-1.8-0.2-2.7-0.3c-0.9,3.6-2.6,6.5-5.3,9c-1.3,1.2,1.5,1.6,2.4,0.8c3-2.8,4.8-6.1,5.8-10.1c0.3-1.3-2.2-0.9-2.7-0.3
				c-3.2,4.4-6.2,9.9-10.3,13.6c-0.3,0.2-0.4,0.7-0.1,1c0.2,0.2,0.3,0.4,0.5,0.5c0.7,0.8,2.2,0.3,2.7-0.5c3.7-5.9,7.8-11.6,12.2-17
				c-0.9-0.2-1.7-0.3-2.6-0.5c-2.7,5-1.4,11.2-4.7,16c0.9,0.1,1.8,0.2,2.8,0.3c1-2.9,2.4-5.1,4.8-7.1c-0.8-0.2-1.5-0.5-2.3-0.7
				c-3.4,4.8-7.1,9.3-11.1,13.6c0.9,0.1,1.8,0.2,2.7,0.3c1.2-3.9,4.5-7.3,6.9-10.6c2.3-3.2,4.6-6.4,6.9-9.6
				C730.8,218.8,728.1,218.5,727.4,219.5L727.4,219.5z"/>
		</g>
	</g>
	<path class="st1" d="M732.2,218.5c-0.3-0.2-0.5-0.4-0.8-0.5c-0.1-0.1-0.4-0.1-0.8-0.1c-0.4-0.6-0.5-1.2-0.4-1.9
		c0-0.3-0.7-0.4-0.8-0.4c-0.3,0-0.6,0-1,0.1c-0.1-0.7-0.4-1.3-0.9-1.8c-0.6-0.6-2.2-0.1-2.6,0.6c-1.4,2.5-2.8,4.9-4.2,7.4
		c-0.6,1.1,2.1,0.8,2.6,0c0.8-1.3,1.5-2.7,2.3-4c-0.8,4.9-8.4,12.8-10,15.2c-0.7,1-4.2,6.1-4.2,7c0,1.5,0.8,2.3,1.8,3.8
		c0.5,0.8,2.4-0.1,2.7-0.8c0,0,0,0,0,0c0.4-0.2,0.7-0.4,0.8-0.7l0-0.2c0.1-0.3-0.1-0.5-0.4-0.5c1.1-0.6,2.9-2.8,3.4-3.7
		c1.6-2.9,2.7-5.7,4.7-8.4c1.6-2,6.8-6.6,7.1-9.9C732.2,219.2,732.6,218.8,732.2,218.5z M724.4,226.4c-1.8,2.3-3.8,4.5-5.2,7.1
		c-1.2,2.1-1.9,4.3-3.4,6.3c-0.3,0.4-0.7,0.7-1,1.1c-0.4-0.8-0.2-1.3,0.7-2.6c0.8-1.2,1.3-2.7,2-3.9c1.7-2.9,3.9-5.5,5.9-8.2
		c1.1-1.5,3.5-4.3,4.6-7c0,0,0.1,0,0.1,0c0.2,0.4,0.4,0.7,0.7,0.8c0,0,0.1,0,0.1,0C728.7,222,725.4,225,724.4,226.4z"/>
	<g>
		<g>
			<path d="M735.8,208.3c-0.2-0.4-0.5-0.7-0.9-0.9c-0.3,0.3-0.6,0.5-0.8,0.8c0.8,0.1,1.7-0.5,2.1-1.2c-0.3,0.1-0.7,0.2-1,0.3
				c-0.1,0.3-0.3,0.6-0.5,0.9c0.3-0.2,0.7-0.3,1-0.5c-0.2-0.3-0.3-0.6-0.2-0.9c0-0.3-0.5,0-0.5,0c-0.2,0.1-0.5,0.3-0.5,0.6
				c-0.1,0.4,0,0.7,0.2,1c0.2,0.3,0.9-0.3,1-0.5c0.2-0.3,0.4-0.7,0.6-1.1c0.1-0.2-0.2-0.2-0.3-0.2c-0.2,0.1-0.5,0.3-0.7,0.5
				c-0.1,0.2-0.2,0.2-0.4,0.2c-0.2,0-1.2,0.7-0.8,0.8c0.4,0.2,0.6,0.4,0.8,0.8C734.8,209.3,735.9,208.6,735.8,208.3L735.8,208.3z"/>
		</g>
	</g>
	<g>
		<g>
			<path d="M735,207.1c0.2,0,1.4-0.4,0.8-0.4C735.6,206.7,734.4,207.1,735,207.1L735,207.1z"/>
		</g>
	</g>
	<g>
		<g>
			<path d="M732.9,219.2c0-0.7-0.5-1.2-1.1-1.4c-0.3-0.1-0.7,0-0.9-0.1c-0.6-0.2-0.3-0.7-0.2-1.3c0.2-2.1-2-1.2-3.2-1.3
				c0.1,0.1,0.2,0.2,0.3,0.3c0.6-1.4-0.9-1.8-1.9-1.4c-0.7,0.3,0.3,0.5,0.7,0.4c0.1-0.1,0,1,0,1c-0.1,0.2,0.2,0.3,0.3,0.3
				c0.5,0,2.2-0.3,2.4,0.1c0.5,0.6-0.4,1.5,0.1,2.2c0.6,0.9,2.3-0.3,2.3,1.5C731.7,219.7,732.9,219.6,732.9,219.2L732.9,219.2z"/>
		</g>
	</g>
	<g>
		<g>
			<path d="M714.6,245.7c6-8.7,12-17.4,18-26.1c0.3-0.4-0.4-0.5-0.6-0.2c-6,8.7-12,17.4-18,26.1C713.8,245.9,714.4,246,714.6,245.7
				L714.6,245.7z"/>
		</g>
	</g>
	<g>
		<g>
			<path d="M684.1,275.1c14-20.3,28-40.5,41.9-60.8c0.4-0.6-0.8-0.3-1,0c-14,20.3-28,40.5-41.9,60.8
				C682.7,275.7,683.8,275.4,684.1,275.1L684.1,275.1z"/>
		</g>
	</g>
	<g>
		<g>
			<path class="st3" d="M730,215c2.4,0,4.4-4.2,1.3-4.2C728.9,210.8,726.9,215,730,215L730,215z"/>
		</g>
	</g>
	<g>
		<g>
			<path d="M726.3,214c3.5-2.6,7-5.1,10.5-7.7c-0.4-0.2-0.7-0.3-1.1-0.5c-1.1,4.4-3.4,8.3-3.9,12.8c0,0.3,1.1,0.6,1.2,0.5
				c0.5-4.5,2.8-8.5,3.9-12.8c0.1-0.3-0.9-0.6-1.1-0.5c-3.5,2.6-7,5.1-10.5,7.7C725,213.6,726,214.1,726.3,214L726.3,214z"/>
		</g>
	</g>
	<g>
		<g>
			<path d="M729.7,219.2c-6.2,9.1-12.3,18.2-18.5,27.3c-0.2,0.3,0.5,0.3,0.7,0.1c6.2-9.1,12.3-18.2,18.5-27.3
				C730.6,218.9,729.8,218.9,729.7,219.2L729.7,219.2z"/>
		</g>
	</g>
	<g>
		<g>
			<path d="M735.3,207.3c0.1-0.6-0.6-0.2-0.8-0.1c-0.1,0.1-0.4,0.2-0.5,0.3c-0.1,0.2,0.2,0.3,0.4,0.3c0.4,0,0.8-0.4,1.1-0.5
				c0.5-0.3,0.6-0.8,1-1.2c-0.2,0.2-0.6,0.3-0.9,0.5c-0.5,0.4-1.3,1.1-0.6,1.8c0,0,0.8-0.4,0.9-0.5c0.3-0.3,0.5-0.7,0.6-1.1
				c-0.3,0.2-0.6,0.3-0.9,0.5c-0.1,0.4-0.2,0.8-0.5,1.1c0.3-0.2,0.6-0.3,0.9-0.5c-0.1-0.2-0.2-0.4-0.4-0.6c0,0-0.8,0.4-0.9,0.5
				c-0.1,0.3,0,0.6,0.2,0.8c0.1,0.1,0.8-0.6,0.9-0.5c-0.2-0.2-0.3-0.5-0.2-0.8c-0.3,0.2-0.6,0.3-0.9,0.5c0.1,0.2,0.2,0.4,0.4,0.6
				c0,0,0.8-0.4,0.9-0.5c0.2-0.4,0.4-0.7,0.5-1.1c0,0.1-0.4,0.2-0.4,0.2c-0.1,0-0.4,0.2-0.4,0.3c-0.1,0.4-0.3,0.8-0.6,1.1
				c0.3-0.2,0.6-0.3,0.9-0.5c-0.7-0.6,0.1-1.4,0.6-1.8c-0.3,0.2-0.6,0.3-0.9,0.5c-0.1,0.1-0.2,0.3-0.3,0.5c-0.1,0.1-0.3,0.3-0.3,0.5
				C735.4,207.3,735.6,207.3,735.3,207.3c-0.1,0-0.1,0-0.2,0c-0.1,0-0.3-0.1-0.2-0.3c-0.3,0.2-0.6,0.3-0.9,0.5
				c0.2-0.1,0.4,0.1,0.4,0.3c0-0.1,0.4-0.2,0.4-0.2C734.9,207.6,735.3,207.4,735.3,207.3L735.3,207.3z"/>
		</g>
	</g>
	<g>
		<g>
			<path d="M726.5,216.8c-13.5,19.9-26.6,40-40.8,59.3c-0.3,0.4,0.8,1.1,1,0.7c14.2-19.3,27.4-39.5,40.8-59.3
				C727.8,217.2,726.8,216.4,726.5,216.8L726.5,216.8z"/>
		</g>
	</g>
</g>
</svg>
