<svg id="Layer_1" data-name="Layer 1" xmlns="http://www.w3.org/2000/svg" viewBox="0 0 1366 768"><defs><style>.cls-1{fill:#f7cdf3;}.cls-2{fill:#c1272d;}.cls-3{fill:#997502;}.cls-4{fill:#c9be9f;}</style></defs><title>homepage-o</title><path d="M495.8,78.07a230.85,230.85,0,0,0,96.52-27.56l-7.79-4.85c-3.46,31.5-11,62.36-21.16,92.34q-7.61,22.4-16.9,44.18c-5.5,12.86-12.78,26.66-26.58,32-3,1.17-8.85,3.34-10.74.32s-2.3-9-2.77-12.61a81.92,81.92,0,0,1,1.36-27.88c.84-3.91-8.34-7.6-9.35-2.91a84.26,84.26,0,0,0-1.49,26.92c.77,7.09,1.54,17.79,7.81,22.46,11.82,8.81,30-2.3,37.82-11.52,11.17-13.18,16.78-31.18,22.8-47.11,6.36-16.85,12-34,16.69-51.35a409.68,409.68,0,0,0,11.86-62c.34-3.07-5.15-6.28-7.78-4.85a225.55,225.55,0,0,1-94.54,27.13c-2.3.14-3,2.14-2.06,4,1.05,2.13,4,3.36,6.3,3.23Z"/><path d="M612,168.76c-11.61,1.87-22.8,10.3-23.35,22.9-.57,13,10.44,22.8,22.59,24.53,13.28,1.9,26.8-3.27,36.33-12.47,11-10.59,16.22-25,21.13-39.12q10.15-29.08,20.28-58.18c1-3-8.38-2.61-9.69-.46-4.38,7.22-8.84,14.68-15,20.51-5.68,5.34-14.27,10.85-22.33,8.17-12.23-4.07-17.93-20.3-11.8-31.28,1.28-2.28-8.27-3-9.69-.46-8.46,15.16,3.1,33.58,19.39,36,9.87,1.45,20.07-1.39,28.23-7,9.21-6.32,15.24-16.13,20.93-25.49l-9.69-.46q-8.82,25.33-17.66,50.68c-5.08,14.58-9.56,30.29-19.71,42.31-9.53,11.29-27.58,20.45-38.76,5.93-8.81-11.43-3.43-30.12,11.71-32.57,1.23-.2,4.07-.83,3.35-2.57s-5.08-1.17-6.22-1Z"/><path class="cls-1" d="M688.9,281.58a11.92,11.92,0,0,0-5.8-3.95,1.88,1.88,0,0,0-2.13.8c-1.25,2.25-2.92,4.32-1.3,6.83,1.27,2,3.1,3,5.31,2a5.63,5.63,0,0,0,2.38-2.21,4.53,4.53,0,0,0,.95-2.1C688.92,282.64,689.32,282.1,688.9,281.58Z"/><path class="cls-2" d="M705,247.94c-2.67,3.83-5.46,7.59-8,11.49-1.75,2.66-2.92,5.26-2.32,8.5a.41.41,0,0,0,.28.26c3.69,1.25,5.45-2.53,7.2-5.06,1.39-2,2.94-3.88,3.49-6.3.78-3.41,1.05-6.37,2.49-9.66.43-1-2.33-.14-2.58,0-5.88,4.22-11.45,11.84-9.58,19.24.25,1,2.62,0,2.89-.59a54.81,54.81,0,0,1,4.56-7.71c1.12-1.6,1.87-2.59,1.76-4.59-.05-.86-2.28,0-2.59.22a17.73,17.73,0,0,0-5.4,8c-.29.83,2.58.47,2.88-.42a15.92,15.92,0,0,1,4.81-7.2l-2.6.22c.14,2.46-2.67,5.37-3.87,7.37-.89,1.48-1.68,3-2.43,4.56l2.89-.59c-1.12-4.45,0-7.1,2.37-10.83a25.29,25.29,0,0,1,6.59-7.31l-2.58.05c-1.45,3.28-1.67,6.27-2.49,9.66-.7,2.87-2.93,5.87-4.79,8.11q-1.08,2-.63.57a8.28,8.28,0,0,1,.62-3.49,20.07,20.07,0,0,1,2.4-4.07c2.4-3.51,4.88-7,7.32-10.47.68-1-2.19-.66-2.67,0Z"/><path class="cls-2" d="M694.11,271.05c-1.91,2.43-3.71,4.92-5.38,7.51l2.81-.3c-1.46-2.86-3.23-2.69-5.91-3.7l.32,1.19A50.55,50.55,0,0,0,694,263.31l-2.81.3c.13,2.89-.25,6.27,1.31,8.8l2.68-1.2a31.68,31.68,0,0,0-2.33-2.84c-.63-.67-3.11-.17-2.79,1l1,3.43,2.79-1a13,13,0,0,0-3.13-1.95c-.57-.24-3.09,0-2.59,1.15l1.69,3.74,2.59-1.15a6.63,6.63,0,0,0-3.84-1.33c-.59,0-1.48.41-1.62,1.06-.25,1.13,1.11,2.23,1.8,2.91l2.2-1.47a6.67,6.67,0,0,1-1.68-.58c-1.41-1.09-.77-2.34,0-3.39l3-4.08-2.82.3a28.69,28.69,0,0,0,1.66,6.76c.42,1.14,3.3.3,2.89-.78a28.55,28.55,0,0,1-1.65-6.76c-.15-1.23-2.44-.2-2.81.3l-3,4.08c-.69.92-2,2.14-1.67,3.44.39,1.64,3,2,4.33,2.45.59.2,3.12-.57,2.21-1.47-.3-.28-1.68-1.5-1.57-2l-1.62,1.06a13.28,13.28,0,0,1,1.89,1c.59.36,3.06-.09,2.59-1.14L691,270.24l-2.59,1.14a11.12,11.12,0,0,1,2.73,1.62c.66.53,3.14.27,2.79-1l-1-3.44-2.79,1a27.47,27.47,0,0,1,2.33,2.84c.65.89,3.38-.06,2.68-1.2-1.41-2.28-1-5.78-1.09-8.37,0-1.11-2.52-.34-2.82.3a48.45,48.45,0,0,1-7.72,12c-.44.5-.29,1,.32,1.19,1.85.7,3.7.71,4.74,2.74.52,1,2.31.48,2.82-.3,1.57-2.43,3.23-4.78,5-7.05,1.1-1.39-1.67-1.53-2.36-.64Z"/><path class="cls-2" d="M749.45,414.53c2.64,0,.11-4.19-2-4.19-2.63,0-.1,4.19,2,4.19Z"/><path d="M770.47,416.62c-14.17-.93-27.48-.05-37.47,11.2-8.52,9.61-12.52,22.59-15,34.94-3.09,15.25-3.44,30.88,3.54,45.15,6.33,12.92,16.58,23.42,26.61,33.53,10.49,10.58,23.17,21.68,39,20.81,1.82-.1-.3-4.53-2-4.43-17.8,1-31.12-13.84-42.37-25.66-12.85-13.5-23.66-28-23.63-47.46,0-15.52,3.93-33.17,12.1-46.52,3.72-6.08,8.73-11.41,15.26-14.47,8.09-3.81,17.27-3.23,26-2.66,1.68.11-.29-4.32-2-4.43Z"/><path d="M769.72,418.34c-1.6-4.49.29-9.06,3.81-12.06,4.16-3.55,9.74-3.78,14.87-2.65,8.6,1.89,17.16,6.64,24.41,11.52,15,10.09,26.66,24.63,32.07,42,5.65,18.09,2.92,36.58-5,53.52a170.5,170.5,0,0,1-13,22.29q-3.84,5.72-7.89,11.31c-2.46,3.41-5.85,8.77-10.74,8.18-3.23-.39-.52,2.8,1.29,3,6.92.83,10.74-4.48,14.39-9.6,5.18-7.26,10.29-14.59,14.79-22.3,8.59-14.74,14.87-31.24,13.8-48.56-2-32.59-26.24-58.63-55.25-70.94-7.25-3.07-16.15-6-23.87-2.84-6.39,2.65-10.41,9.58-8,16.26.51,1.44,5.14,3,4.4.89Z"/><path d="M798.45,552c-1.26,4.85-3,10.56-8.22,12.36-.28.09-.28.41-.13.64,1.92,3,4.56,9.24,9,8.4,5.4-1,11.49-5.48,10.68-11.46-.18-1.36-4.3-3.19-4.2-2.41a7.9,7.9,0,0,1-2.93,7.21c-1.72,1.48-5.66,3.88-8,3.66l3,1.72c-.84-.87-3.27-3.75-2.78-5,.25-.61,3-2,3.52-2.65,2.3-2.67,3.3-6.29,4.17-9.63.36-1.41-3.94-3.51-4.11-2.85Z"/><path d="M803.55,572.11c3.22,7.37.58,17.66-8.89,17.52-3,0-1.26,4.57,1.32,4.61a13.29,13.29,0,0,0,12-7.48c2.63-5.27,1.7-11.12-.56-16.31a2.11,2.11,0,1,0-3.86,1.66Z"/><path d="M799.33,593.27c4.39,8.67-8.75,14.8-12.16,21.28-.71,1.36,3.84,3.4,4.63,1.89,3.77-7.17,17-12.76,12-22.62-.67-1.32-5.4-2.44-4.44-.55Z"/><path d="M797.86,607.47a14,14,0,0,1-5.75,16.14c-2.15,1.38,1,5.17,2.88,4A17.16,17.16,0,0,0,801.75,607c-.82-2.32-5-2.63-3.89.45Z"/><path d="M796.31,624.61c-4.31-3.94-9.18-7.68-13-12.07s-3.49-10.42-2.93-16l-4.57,1c4.88,2.34,12.34,4.42,12.31,10.92,0,1.33,5,1,5-.53,0-7-7.85-9.36-13.1-11.87-1-.47-4.42-.58-4.58,1-.53,5.24-1,10.92,2.3,15.42,3.62,5,9.37,9,13.9,13.14,1.13,1,5.65-.22,4.74-1Z"/><path d="M789.9,602.14c-.06-4.71,3.66-9.56,1.82-14.2-1.67-4.21-6.56-5.88-8.29-10.09-.5-1.21-4.3-2.09-4.33-2.15,1.58,3.81,5.35,5.43,7.53,8.75,3.13,4.75-1.15,10.17-1.09,15.24,0,1.3,4.36,2.32,4.36,2.45Z"/><path d="M790.51,573.28a9.59,9.59,0,0,1-3.78,2.62c-1,.36,0,1.1.54,1.37a5,5,0,0,0,3.37.66,10.83,10.83,0,0,0,4.38-2.87c.6-.67-.94-1.33-1.38-1.5a6.88,6.88,0,0,0-1.88-.45c-.33,0-1-.1-1.25.17Z"/><path d="M781.49,572.8a13,13,0,0,1-1.08-6.3c.17-2.27-4.17-4.5-4.38-1.67a17.51,17.51,0,0,0,1.47,8.48,3,3,0,0,0,2.91,1.9,1.61,1.61,0,0,0,1.08-2.41Z"/><path d="M774.51,583.75v11.74c0,1.67,5,1.44,5-.35V583.41c0-1.68-5-1.45-5,.34Z"/><path d="M777.84,617.12c-3.39,7,2.21,12.5,8.88,13.58,4,.65,14.54.89,12.9-5.78-.25-1-5.09-.4-5,0a4,4,0,0,1-2.67,4.85c-2.47.8-5.51-.62-7.34-2.23-3.09-2.7-3.48-6.82-1.77-10.37,0-.06-4.44-1.18-5,0Z"/><path d="M797.82,631.16q-.93-1.38-1.08.12a6.08,6.08,0,0,1-1.81,1.9,18.06,18.06,0,0,1-2.49,1.53c-1.65.9-5.38,2.91-7.16,1.29-.85-.76-.69-3.22-1.16-4.47a10.45,10.45,0,0,0-2.64-4c-1.68-1.59.17,2.87.9,3.56-.85-.8-.32,1-.26,1.35a13.66,13.66,0,0,0,.47,2.18,11.13,11.13,0,0,0,1.94,3.56,6.69,6.69,0,0,0,7.78,2.08c2.84-1,7.34-3.19,7.57-6.61a8,8,0,0,0-3.6-6.61c-.94-.61-.49.91-.4,1.27a5.55,5.55,0,0,0,1.94,2.82Z"/><path d="M781.92,640.41c.09,11.5-8.47,20.21-11.2,31-1.5,5.92.09,11,.58,16.92.72,8.57-5.71,10.45-10.77,15.57-1.24,1.26,1,3.91,2.3,4.11,9.46,1.38,20.93,2.48,27.44-6.12,5.81-7.68,9.74-19.07,10.18-28.63.07-1.64-3.58-4.89-3.69-2.61-.41,9-4.06,18.17-8.67,25.84-5.78,9.61-17.13,8.69-26.82,7.28l2.3,4.1c4-4.05,9.89-6.26,11.22-12.33,1.37-6.27-2-12.53-.94-18.87,1.91-12,11.85-21.08,11.76-33.61,0-1.63-3.7-4.84-3.69-2.61Z"/><path d="M794.91,636.25c2.82,13,17.19,18.94,20,31.77,1.67,7.57,2.19,18.23-3.07,24.49-5.52,6.55-14.1,11.48-20.86,16.68l2.86,3.77a16.78,16.78,0,0,0-1.71-14.11c-1.57-2.6-4.62-1.15-3,1.52a11,11,0,0,1,1.25,9.51c-.36,1.19,1.08,5.14,2.87,3.77,7-5.41,15.76-10.47,21.57-17.25,5.15-6,5-14.41,4.57-21.87a32.83,32.83,0,0,0-7.73-19.77c-4.94-5.91-11.55-10.92-13.25-18.79-.58-2.68-4.2-2.93-3.5.28Z"/><path d="M734.09,526.77a43.65,43.65,0,0,1,1,35.14c-.6,1.51,4.1,3.18,4.74,1.58A45.18,45.18,0,0,0,738.56,527c-.65-1.37-5.43-2.23-4.47-.21Z"/><path d="M822.86,594.65a16.17,16.17,0,0,1-13.55-10c-1.19-2.89-4.49-1.27-3.32,1.59a21.22,21.22,0,0,0,17.07,13.13c2.85.31,2.1-4.44-.2-4.7Z"/><path d="M816.75,598.31a10.21,10.21,0,0,1-5.75-1.55,5.48,5.48,0,0,0-3.42-.2c-.47.1-1.82.51-.88,1a19.67,19.67,0,0,0,11.41,2.11c.43,0,2.08-.2,1.73-.94s-2.57-.49-3.09-.45Z"/><path d="M773.77,588.84c-5.84.46-10.92-4-15.29-7.29q-5.15-3.88-9.93-8.19a157.29,157.29,0,0,1-18.95-20.43c-1.08-1.4-3.46-1-4.58.12a21.36,21.36,0,0,1-11.58,6.23c-.81.14-3,.85-2.2,2.16,6.36,10.42,13,20.91,23.37,27.78,11.4,7.55,24.16,13.4,36.2,19.87,1.71.91,5.91-1.11,3.29-2.51-11.58-6.21-23.8-11.86-34.83-19-10.42-6.75-17-17.05-23.32-27.44l-2.19,2.16a28.28,28.28,0,0,0,15.72-8.18l-4.58.13a159.94,159.94,0,0,0,23.41,24.48c7.21,6,15.73,13.94,25.79,13.13,3-.25,2.71-3.26-.33-3Z"/><path d="M828.14,598a14.32,14.32,0,0,0,9.6-3.2c.92-.77,2.29-3,3.6-3.19,3.08-.38,2.3,3.36,2.43,5.06.4,5.5,3.21,7.41,6.93,10.83l-2.26-2.91c.25,2.77-6.47,4.95-8.63,5.74a51.58,51.58,0,0,1-10.61,2.47c-8.42,1.18-17,1.35-25.49,1.88-.22,0,1.88,3.81,3.06,3.74,9.84-.61,20-.63,29.66-2.56a38,38,0,0,0,13-4.83c2.75-1.72,3.15-2.69,1.1-5-.66-.76-1.73-1.32-2.3-2.11-1.31-1.81-.87-4.15-1.11-6.27a11.43,11.43,0,0,0-3.54-7.35c-1.68-1.67-3.62-3.25-6-2.06-1.65.81-2.74,2.75-4.29,3.79a14.2,14.2,0,0,1-8.12,2.28c-.14,0,1.82,3.74,3,3.74Z"/><path d="M715.54,489.85l-3.28-1.36c-.27-.11-1-.41-1.06.15a127.23,127.23,0,0,0-.31,18.52c.22,3.78.08,8.53,2.13,11.88,1.16,1.89,3.38,4,5.74,4,3.77,0,5-4.07,5.67-7.07.29-1.32-3.49-4.23-3.75-3.07-.51,2.31-1,5.88-3.92,5.37s-2-6.41-2.18-9a126.92,126.92,0,0,1,.37-17.55l-1.06.15,3.28,1.36c2.3.95-.55-2.92-1.63-3.37Z"/><path d="M846.54,501.78c2.73,5.53-.47,11.45-3.19,16.33-1.51,2.7-5.8,12.5-10,10.16l2.84,2.71-.51-.76c-.45-.67-4.14-3.75-3-2a9.55,9.55,0,0,0,3.76,3.7c3.14,1.3,4.92-1.53,6.53-3.91,4.34-6.38,10.86-15.61,7-23.49-.46-.93-3.75-3.43-3.39-2.72Z"/><path d="M730.34,542.08c-8.29-4-17.07-2.34-24.91,2-9.88,5.42-18.77,13.09-27.83,19.76-1.23.9,1.69,5,2.91,4.06,7.76-5.71,15.38-11.73,23.41-17.05s17.93-9.42,27.23-5c2.43,1.16.46-3.15-.81-3.76Z"/><path d="M709.61,562.5c-4,2.93-8,6-10.9,10-3.09,4.32-3.78,9.11-4.05,14.29-.09,1.69,4.66,3.11,4.76,1,.3-5.66,1.27-10.41,5-14.81a54.49,54.49,0,0,1,9.45-8.16c1.49-1.1-2.82-3.41-4.27-2.35Z"/><path d="M672.45,607.47A123.83,123.83,0,0,0,667,553.79c-1.88-5.69-7.34-13.88-2.35-19.17,4.79-5.06,13.33-6.14,15.25-13.8a23.49,23.49,0,0,0,.27-6c-.07-4.42,1.81-6.39,6.33-6.8a45.81,45.81,0,0,1,21.57,3.52c2.93,1.2,4.8-2.84,1.86-4.05a53.49,53.49,0,0,0-18.74-4.15c-4.5-.14-11.49-.44-14.45,3.78s.12,9.8-2.33,14.16c-2.32,4.11-8,5.77-11.63,8.53-10.46,8.09-1.33,21.09,1.37,31a121.88,121.88,0,0,1,3.43,45.78c-.31,2.82,4.55,3.91,4.88.93Z"/><path d="M667.23,528.67c.17-17.43.33-35,3.37-52.18,2.76-15.6,9.11-31.05,5.47-47-.45-2-5.19-3.08-4.59-.46,3.68,16.17-3.32,32.22-5.9,48-2.71,16.61-2.88,33.49-3.05,50.28,0,2.08,4.67,3.72,4.7,1.38Z"/><path d="M717.72,488.47c-4.64-23.88-9.31-47.92-9.85-72.31-.55-24.84,3.43-49.64.36-74.43-.09-.74-4.79.53-4.63,1.89,3.07,24.78-.91,49.59-.36,74.43.54,24.39,5.21,48.43,9.85,72.3.16.83,4.88-.6,4.63-1.88Z"/><path d="M708.65,341.89a110.77,110.77,0,0,0,3-20.42c.36-7.54-.67-15.22,1-22.63,1.53-6.73,4-13.11,5.22-19.94a213,213,0,0,0,2.3-22.54c.19-2.87-4.54-2-4.7.29a213,213,0,0,1-2.29,22.54c-1.19,6.83-3.69,13.21-5.22,19.94s-.84,13.28-1,20a106.3,106.3,0,0,1-3,23.08c-.66,2.76,4.15,2,4.69-.29Z"/><path d="M718.6,259.22c0-3.23-1.2-21.11-8.84-16.93-1.56.85-2.11,2.69-2.55,4.28-1,3.49-1.5,7.11-2.39,10.63-.64,2.51-1.16,7.8-3.1,9.63s-6,.52-8.56.84l2.9,3.54c-1.44-8.28,0-14,5.89-20.15,3.65-3.8,10.58-7.12,11.74-12.6.23-1.08-1.87-3.71-2.93-3.83-17.19-2-24,17.53-32.06,28.82-.75,1.05,2.7,4.44,3,4,7.91-11.12,14.69-30.68,31.67-28.75l-2.92-3.83c-.78,3.7-4.11,5.5-6.78,7.77a49.56,49.56,0,0,0-7.86,8c-4.08,5.5-4.07,11.05-2.94,17.57.15.84,1.8,3.67,2.9,3.53,2.44-.3,5.72,1,8-.2,2.91-1.55,3.3-7,4-9.77,1-3.95,1.41-8.35,2.8-12.16.57-1.59,1.61-4.46,3.89-3,1.43.94.92,7.59.91,9s3.2,4,3.21,3.62Z"/><path d="M691,246.68c-4.58-9.58-14.07,10.67-15.66,13.33-2.94,4.89-7.26,10.25-7.54,16.18-.22,4.9,2.93,8.56,5.12,12.65,13.24,24.68,5.73,53.89-.9,79.3-.63,2.44,3.25,5,4,1.93,5.33-20.46,10.59-41.53,7-62.76a69.08,69.08,0,0,0-3.64-13.43c-1.72-4.52-4.66-8.32-6.52-12.69-2.66-6.23,2.51-12.26,5.59-17.39l4.32-7.2c.85-1.41,5.28-6.85,4.65-8.19,1.35,2.83,4.84,1.09,3.49-1.73Z"/><path d="M672.51,368.89c-2.3,19.16-4.48,38.48-1.52,57.7.41,2.66,4.77,3.78,4.27.57-2.9-18.84-.82-37.72,1.44-56.51.31-2.56-3.81-4.88-4.19-1.76Z"/><path d="M850.16,609c19.73,7.15,43.76,16.88,47,40.57l3.32-2.48c-10.62-1.38-20.21,3.07-27.72,10.45-5.23,5.13-16.09,17.59-8.36,24.71l2.77-3.4c-6.37-1.21-9.33,4.6-12.17,9.25l-15.58,25.56c-1.52,2.49,3.34,3.22,4.64,1.09l9.87-16.19c1.61-2.63,8-16.46,11.5-15.79,1.75.33,4.72-1.6,2.77-3.4-5.72-5.28,5.47-16.92,9.28-20.41,5.82-5.32,13.2-9,21.25-7.95,1.55.2,3.58-.59,3.32-2.48-3.39-24.83-28.27-35.52-49-43.05-2.38-.86-5.79,2.46-2.86,3.52Z"/><path d="M899.45,650.84q-.12,40.53,1,81l3.2-1.07a156.74,156.74,0,0,0-58,4.44l3.73,1.14c-1.22-6-2.2-12-2.92-18.1-.22-1.76-5.19-1.69-5-.15q1.1,9.12,2.92,18.11c.29,1.41,2.67,1.43,3.73,1.15a146.77,146.77,0,0,1,54.15-4.31c.64.07,3.24.18,3.2-1.07q-1.17-40.51-1.06-81c0-1.7-5-1.82-5-.15Z"/><path d="M891.51,733.21a63.13,63.13,0,0,0,5.2,28.24c1.07,2.44,5.87,1,4.82-1.35a60.36,60.36,0,0,1-5.09-27.16c.12-2.81-4.82-2.31-4.93.27Z"/><path d="M845.9,737.84a118.89,118.89,0,0,0,5.48,25.63c.62,1.86,5.58,1.73,4.87-.42a115.75,115.75,0,0,1-5.37-24.81c-.22-2.12-5.18-2.35-5-.4Z"/><path d="M840.72,737.25a137.72,137.72,0,0,1-.35,16.38l3.77-1.89c-9.37-.7-17.66-4.72-26.09-8.55-7.2-3.27-14.59-5.9-22.07-8.46-14.56-5-29.45-10.18-39.94-22-1.1-1.24-5.63.75-4.34,2.21,10.64,12,25.83,17.38,40.61,22.43,8.05,2.75,16,5.67,23.69,9.2,8.17,3.74,16.3,7.36,25.37,8,1.09.08,3.66-.42,3.78-1.88a137.72,137.72,0,0,0,.35-16.38c-.08-2-4.84-.69-4.78.93Z"/><path d="M689.62,659.92c4.23,12,7.94,24.41,13.08,36.06,4.79,10.87,12.32,19.23,20.69,27.48,2.33,2.29,4.48-1.18,2.41-3.22-8.72-8.6-16-17.12-20.61-28.62-4.29-10.73-7.83-21.81-11.68-32.71-1-2.76-5-2.06-3.89,1Z"/><path d="M669.44,627.36c-.66,17.3,6,33.23,13.87,48.29s18.54,30,19.2,47.48c0,.81,5,.78,5,.14-.66-17.45-11.39-32.49-19.2-47.48s-14.54-31-13.87-48.29c0-.7-5-.89-5-.14Z"/><path d="M693.78,712.3c0-7.5-4.18-13.71-8.1-19.78-5.72-8.83-11.66-18-9.3-29,.37-1.73-3.17-5.08-3.69-2.66-1.78,8.34.69,16.43,4.7,23.75,4.51,8.21,12.71,16.21,12.69,26,0,1.83,3.69,4.62,3.7,1.69Z"/><path d="M674.94,692.46c1.47,5.48-.1,10.52-1.88,15.74a44.14,44.14,0,0,0-2.76,17A166.27,166.27,0,0,1,667.72,764c-.11.56,4.79,1.05,5,0a166.32,166.32,0,0,0,2.58-38.84,42.3,42.3,0,0,1,2.5-16.23c1.85-5.47,3.68-10.71,2.14-16.5-.29-1.11-5.13-.44-5,.05Z"/><path d="M681.74,721.38c-2.64,15.58,11,26,15.3,39.72.65,2,5.61,2.48,4.9.24-4.16-13.1-17.83-24.09-15.33-38.81.38-2.27-4.49-3.38-4.87-1.15Z"/><path d="M791,420.18c19.15,7.66,28,28.12,28.08,47.73,0,23.21-10,44.65-17.39,66.18-.68,2,3.92.56,4.39-.83,7.62-22.29,18.22-44.66,17.59-68.74-.5-19.38-9.71-39.41-28.58-47-1.49-.59-5.36,2.11-4.09,2.62Z"/><path d="M799.61,461.28a228.68,228.68,0,0,1-3.53,40.2c-.2,1.16,3.9,3.65,4.08,2.6a229.55,229.55,0,0,0,3.53-40.2c0-1.31-4.08-3.46-4.08-2.6Z"/><path d="M766,442.49c4.66,34.63,29.72,63.64,30.17,99.1,0,2.27,4.61,3.87,4.58,1-.45-35.58-25.51-64.44-30.18-99.1-.3-2.22-5-3.79-4.57-1Z"/><path d="M745.33,454.65c-2.55,34.69,32.66,55.49,40.88,86.81.35,1.35,5.07-.24,4.66-1.79-8.13-31-43.35-51.91-40.83-86.21.12-1.61-4.6-.29-4.71,1.19Z"/><path d="M736.55,496l29.78,36.85c1.42,1.75,6.1,0,4.53-1.91l-29.78-36.84c-1.42-1.76-6.09,0-4.53,1.9Z"/><path d="M783.64,657.2a54.21,54.21,0,0,1-2.87,32c-.13.32,3.77-.88,4.31-2.2a55,55,0,0,0,2.83-32.37c-.11-.53-4.55,1.26-4.27,2.61Z"/><path d="M803.57,665.52,806,678.09a4.35,4.35,0,0,0,2,2.42c.17.11,2.16,1.2,2,.34l-2.45-12.57a4.35,4.35,0,0,0-2-2.42c-.17-.12-2.16-1.2-2-.34Z"/><path d="M690.76,280.26,709.57,253c.21-.3-.52-.28-.68-.05L690.08,280.2c-.21.31.52.29.68.06Z"/><path d="M683,276.54a12.11,12.11,0,0,1,6.69,4.49c.51.67.75-.09.39-.56a13.24,13.24,0,0,0-7.28-5c-.55-.14-.18,1,.2,1.1Z"/><path d="M681.81,277.9c2.43-.13,5.5,2.47,6.73,4.42.37.59,1.41-.09,1-.72-1.53-2.42-4.85-5-7.82-4.8a.55.55,0,1,0,.08,1.1Z"/><path class="cls-3" d="M689.64,280.78c-2-1.9-4.12-3.82-6.93-4.32l-.87.5a10,10,0,0,1,7.11,4.75s.87-.5.87-.5a10,10,0,0,0-7.11-4.75c-.26,0-.62.54-.87.5,2.82.5,4.92,2.42,6.93,4.32.08.07.8-.56.87-.5Z"/><path class="cls-2" d="M699.77,257.9l1.09.81a3.46,3.46,0,0,1,.74,4.66l-8.77,13a3.06,3.06,0,0,1-4.42.79l-1.09-.82a3.46,3.46,0,0,1-.74-4.66l8.77-13A3.07,3.07,0,0,1,699.77,257.9Z"/><path d="M689.45,280.78c-1.2,1.63-2.4,3.28-3.62,4.91-.81,1.09-1.18,2-3.07,1.57a4.72,4.72,0,0,1-2.62-2.19c-2.11-3.36,2.12-8,4.36-10.4,0-.06-1-.15-1.2.1-1.88,2-4.2,4.76-5,7.48-.63,2.29,1.29,4.64,3.4,5.35,4.51,1.51,6.76-4,8.93-6.93.07-.09-1-.17-1.21.11Z"/><path class="cls-4" d="M733.71,208.1a7,7,0,0,1-2.16,1.66l1.45-.39a4.6,4.6,0,0,1,1.59-1.63l-1.44.39c.62-.06,1.06.1.82.8l1.45-.39c-1.23-.09-2.42.3-2.27,1.72l1.45-.39c-.42-.77-1-.56-1.74-.3-.45.17-1.75.79-.5,1.27a3.38,3.38,0,0,0,1.4-.36c.9-.4.89-1.41,1.74-1.88l-1.45.39a44.6,44.6,0,0,0-3,9.9l1.45-.39a19.16,19.16,0,0,0-3.39-3.52,5.27,5.27,0,0,0-1.67-1,2.21,2.21,0,0,0-.92-.17,1.52,1.52,0,0,1,1.06-.81l-1.23.32a.41.41,0,0,1-.27.61l1.45-.38c-.73-.5,1.77-1.89,2.18-2.18l4.14-3c-.37.28-1.07.11-1.45.39l-4.14,3c-.44.32-2.91,1.67-2.18,2.17a4.58,4.58,0,0,0,1.45-.38.41.41,0,0,0,.26-.62s-1.13.3-1.23.33a3.49,3.49,0,0,0-.72.2c-1.42.77-.09.74.74,1.15a14.46,14.46,0,0,1,4.47,4.24,8.59,8.59,0,0,0,1.45-.39,44.6,44.6,0,0,1,3-9.9c-.08.19-1.24.27-1.45.39-.7.38-.78,1.18-1.3,1.75l1.09-.3c-.69.18-.31-.94-.25-1.05l-1.35.36c.5-.11.8.06.91.51a14.06,14.06,0,0,0,1.45-.39c-.07-.65-.09-.89.38-1.36l-1.45.39.44,0a5.13,5.13,0,0,0,1.45-.39c.38-1.11-.92-.79-1.55-.62a3.68,3.68,0,0,0-2.32,1.84c.15-.24,1.18-.25,1.45-.39a7,7,0,0,0,2.16-1.66c-.27.31-1.16.07-1.45.39Z"/><path class="cls-4" d="M727.94,216c-.16-.16.14.19.18.23l.34.5c-.24-.37.21.37.22.39a2.93,2.93,0,0,0,.41.52,2.06,2.06,0,0,0,2.8.33c1-.75,1-2,1-3.12,0,.42,0-.08.05-.18.1-.38-.21.42.09-.21,0-.07.18-.31,0-.12a4.06,4.06,0,0,1,.46-.55c1.65-1.79-.52-5.84-2.64-3.55a6.51,6.51,0,0,0-1.37,2.43,7.84,7.84,0,0,0-.3,1.25c0,.3-.08.61-.09.91,0,.15-.07.89.06.18l.49-1.1.16-.2,1-.33c-.56.09.91.29.7.55,0,0-.45-.78-.54-.92a9,9,0,0,0-1.15-1.32c-.85-.86-2.19,0-2.57.89a3.08,3.08,0,0,0,.66,3.42Z"/><path class="cls-4" d="M732.76,209.09a.84.84,0,0,1-.49,1.13l1.42-.38-.08-.72s-1.33.3-1.45.39a10.49,10.49,0,0,0-2.31,2.25l1.45-.38a1,1,0,0,1-.14-.7c0,.18-1.42.2-1.45.39a1,1,0,0,0,.14.69,8,8,0,0,0,1.45-.38,10.11,10.11,0,0,1,2.31-2.26l-1.45.39.08.71s1.3-.33,1.43-.37a.86.86,0,0,0,.54-1.15s-1.43.42-1.45.39Z"/><path class="cls-2" d="M727.36,219.49l-8.82,12.33c-2,2.81-4.39,5.54-5.44,8.87-.42,1.33,2.23.72,2.66.25a134.23,134.23,0,0,0,11.44-14.06c.85-1.2-1.76-1.19-2.32-.73a17.34,17.34,0,0,0-5.69,8c-.58,1.63,2.15,1.12,2.75.26,3.32-4.81,2-11,4.71-16,.74-1.38-2-1.23-2.58-.51a182.94,182.94,0,0,0-12.52,17.53l2.7-.49c-.2-.22,8.92-12.2,9.62-13.18l-2.66-.25a17.5,17.5,0,0,1-5.29,9.05c-1.29,1.2,1.53,1.57,2.4.76a19.52,19.52,0,0,0,5.82-10.06c.31-1.29-2.22-.86-2.67-.25-3.21,4.44-6.19,9.92-10.26,13.63a.76.76,0,0,0-.13,1l.51.54a1.88,1.88,0,0,0,2.71-.49,179.11,179.11,0,0,1,12.17-17l-2.57-.51c-2.71,5-1.43,11.25-4.71,16l2.75.26a15.05,15.05,0,0,1,4.83-7.08l-2.32-.73a131,131,0,0,1-11.09,13.57l2.66.25c1.22-3.88,4.52-7.32,6.88-10.6l6.86-9.6c1.06-1.47-1.68-1.76-2.4-.75Z"/><path class="cls-2" d="M732.22,218.54l-.76-.55a1.47,1.47,0,0,0-.77-.13,2.26,2.26,0,0,1-.35-1.92c0-.33-.66-.39-.84-.38l-1,.06a3.3,3.3,0,0,0-.92-1.83c-.55-.55-2.2-.09-2.57.56l-4.18,7.37c-.62,1.1,2.13.75,2.56,0,.77-1.35,1.53-2.7,2.3-4-.78,4.87-8.39,12.79-10,15.23-.66,1-4.19,6.1-4.21,7,0,1.49.85,2.32,1.85,3.79.52.77,2.38-.11,2.67-.75h0c.38-.16.7-.39.75-.71l0-.21a.42.42,0,0,0-.36-.52,12.73,12.73,0,0,0,3.4-3.73c1.61-2.89,2.65-5.73,4.72-8.4,1.57-2,6.83-6.61,7.11-9.92C732.21,219.16,732.61,218.82,732.22,218.54Zm-7.84,7.83a63.55,63.55,0,0,0-5.24,7.06c-1.21,2.11-1.86,4.3-3.36,6.27a12.52,12.52,0,0,1-1,1.06c-.37-.76-.2-1.3.69-2.63s1.3-2.65,2-3.92a84.87,84.87,0,0,1,5.88-8.16c1.13-1.52,3.47-4.31,4.59-7l.12,0a2.09,2.09,0,0,0,.66.79l.12,0C728.66,222,725.41,225,724.38,226.37Z"/><path d="M735.76,208.27a1.54,1.54,0,0,0-.89-.88l-.83.8a2.36,2.36,0,0,0,2.11-1.22l-1,.31a4.27,4.27,0,0,1-.46.87l1-.46a1.08,1.08,0,0,1-.2-.9c0-.25-.46,0-.53,0a1,1,0,0,0-.54.58,1.29,1.29,0,0,0,.24,1c.21.29.86-.29,1-.46a4.67,4.67,0,0,0,.56-1.06c.09-.23-.17-.22-.31-.18a1.2,1.2,0,0,0-.67.48c-.12.21-.2.21-.44.19s-1.19.66-.83.81a1.38,1.38,0,0,1,.78.79c.12.28,1.18-.34,1-.7Z"/><path d="M735,207.09c.23,0,1.36-.43.81-.43-.24,0-1.37.43-.81.43Z"/><path d="M732.91,219.21a1.47,1.47,0,0,0-1.13-1.43c-.28-.09-.66,0-.91-.09-.61-.23-.3-.66-.24-1.3.17-2.07-2-1.16-3.16-1.26l.32.26c.59-1.38-.93-1.77-1.94-1.36-.75.3.31.52.69.37.13-.05,0,1,0,1-.08.18.21.25.33.26.5,0,2.15-.25,2.4.08.46.62-.36,1.5.08,2.16.62.94,2.29-.27,2.28,1.47,0,.34,1.23.23,1.24-.18Z"/><path d="M714.63,245.7l18-26.12c.26-.38-.42-.49-.61-.21l-18,26.12c-.26.38.42.49.61.21Z"/><path d="M684.09,275.07,726,214.31c.4-.58-.76-.32-1,0L683.08,275.1c-.4.58.76.32,1,0Z"/><path class="cls-4" d="M730,215c2.4,0,4.44-4.21,1.33-4.21-2.4,0-4.44,4.21-1.33,4.21Z"/><path d="M726.25,214l10.53-7.69-1.12-.5c-1.07,4.35-3.41,8.3-3.86,12.81,0,.34,1.14.65,1.16.47.45-4.51,2.79-8.46,3.85-12.82.07-.27-.93-.64-1.12-.5l-10.52,7.69c-.19.14.83.73,1.08.54Z"/><path d="M729.69,219.17,711.2,246.42c-.21.31.53.29.69.06l18.48-27.26c.21-.3-.53-.28-.68-.05Z"/><path d="M735.27,207.34c.12-.57-.58-.2-.77-.09s-.42.17-.48.29.22.3.39.28a2.83,2.83,0,0,0,1.07-.53c.46-.28.61-.76.95-1.16-.19.22-.63.33-.87.5-.53.37-1.31,1.13-.65,1.78a5.65,5.65,0,0,0,.87-.5,3.57,3.57,0,0,0,.6-1.1l-.86.5a4.33,4.33,0,0,1-.46,1.14l.86-.5-.35-.62a8.22,8.22,0,0,0-.87.5.7.7,0,0,0,.21.78c.07.07.8-.56.86-.5a.72.72,0,0,1-.2-.78l-.87.5.36.62s.82-.43.86-.5a4.33,4.33,0,0,0,.46-1.14c0,.07-.37.21-.43.25s-.4.16-.43.25a3.6,3.6,0,0,1-.61,1.1l.87-.5c-.66-.65.11-1.41.65-1.78l-.87.5a3.88,3.88,0,0,0-.32.47c-.07.12-.3.35-.32.47.52-.23.64-.31.36-.25a.5.5,0,0,1-.21,0c-.13,0-.29-.13-.19-.26l-.86.5a.26.26,0,0,1,.38.3c0-.06.38-.22.44-.25s.41-.17.43-.25Z"/><path d="M726.54,216.81c-13.47,19.86-26.62,40-40.84,59.32-.26.36.75,1.09,1,.73,14.22-19.34,27.37-39.47,40.84-59.33.25-.37-.77-1.09-1-.72Z"/></svg>