<svg xmlns="http://www.w3.org/2000/svg" xmlns:xlink="http://www.w3.org/1999/xlink" viewBox="0 0 47.34 72"><defs><style>.cls-1{fill:none;}.cls-2{isolation:isolate;}.cls-3{fill:#611417;}.cls-4{clip-path:url(#clip-path);}.cls-5{fill:#641417;}.cls-6{fill:#681518;}.cls-7{fill:#6c1619;}.cls-8{fill:#70171a;}.cls-9{fill:#74171b;}.cls-10{fill:#78181c;}.cls-11{fill:#7c191d;}.cls-12{fill:#7f1a1e;}.cls-13{fill:#a82227;}</style><clipPath id="clip-path" transform="translate(0 0)"><path class="cls-1" d="M13.42,52.07,8.86,49.59a14.5,14.5,0,0,1-2.65-1.85C2.36,44.37,0,38.84,0,32,.05,18.18,9.67,4.23,21.49.78c.45-.13.9-.25,1.37-.36s.94-.19,1.4-.25a15.29,15.29,0,0,1,9.58,1.62L38.4,4.27a15.3,15.3,0,0,0-9.58-1.62c-.47.06-.93.15-1.4.25s-.92.23-1.37.36C14.23,6.71,4.61,20.66,4.56,34.43c0,6.88,2.35,12.42,6.21,15.79A14.5,14.5,0,0,0,13.42,52.07Z"/></clipPath></defs><title>Asset 42</title><g id="Layer_2" data-name="Layer 2"><g id="Layer_1-2" data-name="Layer 1"><g class="cls-2"><polygon class="cls-3" points="25.87 72 21.32 69.52 16.19 59.07 20.75 61.55 25.87 72"/><polygon class="cls-3" points="20.75 61.55 16.19 59.07 12.18 50.9 16.74 53.38 20.75 61.55"/><g class="cls-2"><g class="cls-4"><g class="cls-2"><path class="cls-5" d="M13.42,52.07,8.86,49.59a14.5,14.5,0,0,1-2.65-1.85C2.36,44.37,0,38.84,0,32A33,33,0,0,1,2.09,20.7l4.56,2.48A33,33,0,0,0,4.56,34.43c0,6.88,2.35,12.42,6.21,15.79a14.5,14.5,0,0,0,2.65,1.85" transform="translate(0 0)"/><path class="cls-6" d="M6.65,23.18,2.09,20.7a35.67,35.67,0,0,1,2.14-4.76l4.55,2.48a36.93,36.93,0,0,0-2.13,4.76" transform="translate(0 0)"/><path class="cls-7" d="M8.78,18.42,4.23,15.94A33.64,33.64,0,0,1,6.5,12.26l4.56,2.48a35.34,35.34,0,0,0-2.28,3.68" transform="translate(0 0)"/><path class="cls-8" d="M11.06,14.74,6.5,12.26A33.74,33.74,0,0,1,8.93,9.17l4.56,2.48a32.09,32.09,0,0,0-2.43,3.09" transform="translate(0 0)"/><path class="cls-9" d="M13.49,11.65,8.93,9.17a30,30,0,0,1,2.63-2.66L16.12,9a30,30,0,0,0-2.63,2.66" transform="translate(0 0)"/><path class="cls-10" d="M16.12,9,11.56,6.51a29.6,29.6,0,0,1,3-2.35l4.56,2.48a28.5,28.5,0,0,0-3,2.35" transform="translate(0 0)"/><path class="cls-11" d="M19.08,6.64,14.52,4.16A25.34,25.34,0,0,1,18.21,2l4.56,2.48a24.82,24.82,0,0,0-3.69,2.13" transform="translate(0 0)"/><path class="cls-12" d="M22.77,4.51,18.21,2A21.06,21.06,0,0,1,21.49.78c.45-.13.9-.25,1.37-.36s.94-.19,1.4-.25A16,16,0,0,1,30.5.48L35.06,3a16,16,0,0,0-6.24-.31c-.47.06-.93.15-1.4.25s-.92.23-1.37.36a21.06,21.06,0,0,0-3.28,1.25" transform="translate(0 0)"/><path class="cls-11" d="M35.06,3,30.5.48a14.87,14.87,0,0,1,2.8,1L37.86,4a14.87,14.87,0,0,0-2.8-1" transform="translate(0 0)"/><path class="cls-10" d="M37.86,4,33.3,1.51l.54.28L38.4,4.27,37.86,4" transform="translate(0 0)"/></g></g></g><path class="cls-13" d="M47.34,21.25v1.44a35.14,35.14,0,0,1-6.18,18.49,34.09,34.09,0,0,1-5.93,6.7L31.06,58.62,25.87,72,20.75,61.55l-4-8.17a14.6,14.6,0,0,1-6-3.16c-3.86-3.37-6.24-8.91-6.21-15.79C4.61,20.66,14.23,6.71,26.05,3.26c.45-.13.9-.25,1.37-.36s.93-.19,1.4-.25C39,1.22,47,9,47.33,21,47.33,21.1,47.34,21.18,47.34,21.25Z" transform="translate(0 0)"/></g></g></g></svg>