<svg xmlns="http://www.w3.org/2000/svg" viewBox="0 0 615.57 404.2"><defs><style>.cls-1{font-size:72px;font-family:CourierNewPSMT, Courier New;}</style></defs><title>Asset 49</title><g id="Layer_2" data-name="Layer 2"><g id="Layer_1-2" data-name="Layer 1"><path d="M614,267.19c-26.65,11.59-53-6.91-69.08-27.05-8.63-10.82-16.42-22.29-24.88-33.24q-13-16.83-26.87-33c-19.39-22.71-39.86-44.49-61-65.53-17.56-17.44-35.78-34.28-55.34-49.46-40.3-31.26-87.35-55.13-139-58.46C187.07-2.84,135,12.62,93.71,42.18,53.45,71,24.17,113.63,9.93,160.92,2.47,185.68-1.48,212.12.51,238A139.18,139.18,0,0,0,22.45,302.8c25,38.78,65.82,66,108.59,81.61,53.72,19.64,112.43,22.25,169,18.11,29.47-2.15,59.22-5.55,88.16-11.58a219.79,219.79,0,0,0,70.9-27.87c38.88-23.83,72.31-57.22,115.24-74.15a145.68,145.68,0,0,1,33.21-8.78c1.81-.25,1.62-5.23,0-5C562.44,281.46,526.59,310,491,336c-18,13.19-36.54,26-56.91,35.37-26.44,12.15-55.33,16.92-84,20.81C248,406.06,127,405.4,48.28,328.38c-15.84-15.49-29.14-33.87-37.15-54.63C.82,247,.88,217.91,5.76,190c8.61-49.21,33.56-95.29,70.79-128.71,37.69-33.83,87.8-53.78,138.31-56.09,51.82-2.37,100.72,16.15,143,45.14,43.73,30,81.52,69,116.87,108.26,19,21.1,37.15,43,54,65.82,14.43,19.5,28.55,41.4,53.12,48.74,10.83,3.24,22.29,3.37,32.75-1.17,1.52-.66,1.1-5.59-.66-4.83Z"/><text class="cls-1" transform="translate(139.1 183.81)">hello <tspan x="0" y="86.4">world </tspan></text></g></g></svg>