<svg xmlns="http://www.w3.org/2000/svg" viewBox="0 0 281.46 604.36"><title>Asset 53</title><g id="Layer_2" data-name="Layer 2"><g id="Layer_1-2" data-name="Layer 1"><path d="M268.74,590a10.94,10.94,0,0,0,8.61-2.85l-2.44-2.79a11.4,11.4,0,0,0-.54,12.21l2.39-1.87a25.46,25.46,0,0,1-3.36-5.83l-.82,2.51a5,5,0,0,1,4.57,1.12,1.56,1.56,0,1,0,2.1-2.29,8.5,8.5,0,0,0-7.7-2.39c-1.24.24-1.2,1.6-.82,2.51a29.34,29.34,0,0,0,3.93,6.65c1.31,1.69,3.35-.16,2.38-1.87a7.52,7.52,0,0,1,.31-8c1-1.53-.78-4.28-2.44-2.79a8.14,8.14,0,0,1-6.37,2.07c-2.24-.22-1.72,3.39.2,3.57Z"/><path d="M218.53,537.62a8.8,8.8,0,0,0,10.37-.26,12.29,12.29,0,0,0,3.58-3.81c1.42-2.36.55-2.69,3.7-3.5,3.32-.85,3.09.18,5.43,2.15,3.23,2.73,6.7,3.92,10.32,1.06,4.65-3.68,4.27-10.25,7.62-14.75l-2.56-.66c3.64,5.83,12.2,5.07,12.94-2.43.19-1.93-2.93-3.63-3.16-1.29-.27,2.74-4,7.21-7.1,2.26-.46-.73-1.81-1.68-2.56-.67-2.65,3.56-3,7.72-5,11.53-1.43,2.69-2.52,3.54-5.43,3.34s-3.18-1.16-5.33-3a11.56,11.56,0,0,0-3.48-2.21c-2.49-.89-4.85-.46-6.38,1.82-1.15,1.72-1.36,3.79-2.82,5.39-2.2,2.42-5.74,4.09-8.75,2.07-2-1.36-3.13,1.76-1.4,2.92Z"/><path d="M271.29,513.28q3.48,44.58,6.95,89.17l2.66-.94c-21.13-20.17-34.19-47.89-58.6-64.73-2-1.39-3.11,1.75-1.4,2.92,24.11,16.64,37,44.15,57.9,64.09,1,1,2.79.76,2.65-.94q-3.46-44.58-6.95-89.17c-.16-2.06-3.4-2.84-3.21-.4Z"/><path d="M21.24,85.79,173.79,437.71l42.9,99c.95,2.17,3.6.67,2.68-1.46L66.81,183.31l-42.9-99c-.94-2.17-3.6-.67-2.67,1.46Z"/><path d="M228.83,521.83C178.36,408,126.92,294.45,78,179.91Q57.29,131.54,37.83,82.67c-.8-2-4-1.75-3.06.53,45.69,115.46,97.58,228.44,147.88,341.93l43.51,98.16c1,2.17,3.61.67,2.67-1.46Z"/><path d="M73.26,60,225.82,412l42.9,99c.94,2.18,3.6.68,2.67-1.46L118.84,157.55l-42.91-99C75,56.4,72.34,57.9,73.26,60Z"/><path d="M255.89,513.13C205.42,399.25,154,285.74,105,171.21Q84.35,122.84,64.89,74c-.8-2-4-1.74-3.06.54C107.52,190,159.41,302.94,209.71,416.43l43.51,98.16c1,2.16,3.61.67,2.67-1.46Z"/><path d="M22.6,81q-8.21-20.7-16.41-41.4c-1.65-4.19-3.63-8.47-2.72-13.09C4.24,22.6,6.57,19,9.08,16A34.78,34.78,0,0,1,24.31,5.62C30.4,3.5,38.08,2.53,44.2,5.06,51,7.88,55,16.87,58.33,23A174,174,0,0,1,74,62.68c.56,2.14,3.67,1.83,3.06-.54A178.55,178.55,0,0,0,57.92,16.19C54.26,10,50.57,3.5,43.36,1.19,37.14-.8,29.9-.1,23.79,1.87,12.38,5.54-1.09,16.73.07,30,.78,38.15,5.75,46.7,8.74,54.25L19.55,81.52c.8,2,4,1.74,3.05-.54Z"/><path d="M70.8,50.55a86.12,86.12,0,0,1-49.62,27.5c-2.08.36-.89,3.89,1,3.56a88.74,88.74,0,0,0,51-28.28c1.29-1.44-1-4.36-2.45-2.78Z"/><path d="M66.71,39.9c-4,8.9-11.92,14.48-20.35,18.9-9.06,4.75-18.92,9.82-29.25,10.53-2.08.15-.91,3.7,1,3.57,11-.76,21.77-6.31,31.32-11.5C57.88,56.83,65.57,50.92,69.62,42c.79-1.75-2-4.15-2.91-2.1Z"/></g></g></svg>